STARTFONT 2.1
FONT -FontForge-Goethe-Medium-R-Normal--24-170-100-100-P-102-ISO10646-1
SIZE 17 100 100
FONTBOUNDINGBOX 43 25 -12 -7
COMMENT "Generated by fontforge, http://fontforge.sourceforge.net"
COMMENT "Created by Rebecca Bettencourt with FontForge 2.0 (http://fontforge.sf.net)"
STARTPROPERTIES 40
FOUNDRY "FontForge"
FAMILY_NAME "Goethe"
WEIGHT_NAME "Medium"
SLANT "R"
SETWIDTH_NAME "Normal"
ADD_STYLE_NAME ""
PIXEL_SIZE 24
POINT_SIZE 170
RESOLUTION_X 100
RESOLUTION_Y 100
SPACING "P"
AVERAGE_WIDTH 102
CHARSET_REGISTRY "ISO10646"
CHARSET_ENCODING "1"
FONTNAME_REGISTRY ""
CHARSET_COLLECTIONS "ISO8859-2 ISO8859-5 ISO8859-7 ISO8859-9 ISO8859-4 ISO10646-1"
FONT_NAME "Goethe"
FACE_NAME "Goethe"
COPYRIGHT "Created by Rebecca Bettencourt with FontForge 2.0 (http://fontforge.sf.net)"
FONT_VERSION "1.0"
FONT_ASCENT 17
FONT_DESCENT 7
UNDERLINE_POSITION -2
UNDERLINE_THICKNESS 2
X_HEIGHT 9
CAP_HEIGHT 12
RAW_ASCENT 700
RAW_DESCENT 300
NORM_SPACE 6
RELATIVE_WEIGHT 50
RELATIVE_SETWIDTH 50
SUPERSCRIPT_X 0
SUPERSCRIPT_Y 12
SUPERSCRIPT_SIZE 24
SUBSCRIPT_X 0
SUBSCRIPT_Y 12
SUBSCRIPT_SIZE 24
FIGURE_WIDTH 10
AVG_LOWERCASE_WIDTH 99
AVG_UPPERCASE_WIDTH 115
ENDPROPERTIES
CHARS 813
STARTCHAR space
ENCODING 32
SWIDTH 250 0
DWIDTH 6 0
BBX 1 1 0 0
BITMAP
00
ENDCHAR
STARTCHAR exclam
ENCODING 33
SWIDTH 100 0
DWIDTH 2 0
BBX 1 13 0 0
BITMAP
80
80
80
80
80
80
80
80
80
00
00
80
80
ENDCHAR
STARTCHAR quotedbl
ENCODING 34
SWIDTH 200 0
DWIDTH 5 0
BBX 4 3 0 11
BITMAP
B0
B0
B0
ENDCHAR
STARTCHAR numbersign
ENCODING 35
SWIDTH 450 0
DWIDTH 11 0
BBX 10 9 0 4
BITMAP
0900
0900
7FC0
3200
3200
3200
FF00
4400
4400
ENDCHAR
STARTCHAR dollar
ENCODING 36
SWIDTH 400 0
DWIDTH 10 0
BBX 8 18 0 -2
BITMAP
08
08
08
3D
4B
89
88
88
48
3C
0A
09
89
89
CA
BC
08
08
ENDCHAR
STARTCHAR percent
ENCODING 37
SWIDTH 500 0
DWIDTH 12 0
BBX 11 13 0 0
BITMAP
7700
8900
8A00
8A00
8A00
7400
0400
05C0
0A20
0A20
0A20
3220
31C0
ENDCHAR
STARTCHAR ampersand
ENCODING 38
SWIDTH 500 0
DWIDTH 12 0
BBX 11 13 0 0
BITMAP
3000
4800
4800
4800
4800
3000
49E0
84C0
8500
8200
8200
4500
38C0
ENDCHAR
STARTCHAR quotesingle
ENCODING 39
SWIDTH 100 0
DWIDTH 2 0
BBX 1 3 0 11
BITMAP
80
80
80
ENDCHAR
STARTCHAR parenleft
ENCODING 40
SWIDTH 200 0
DWIDTH 5 0
BBX 4 18 0 -4
BITMAP
30
40
40
40
80
80
80
80
80
80
80
80
80
40
40
40
30
30
ENDCHAR
STARTCHAR parenright
ENCODING 41
SWIDTH 200 0
DWIDTH 5 0
BBX 4 18 0 -4
BITMAP
80
40
40
40
30
30
30
30
30
30
30
30
30
40
40
40
80
80
ENDCHAR
STARTCHAR asterisk
ENCODING 42
SWIDTH 300 0
DWIDTH 7 0
BBX 6 6 0 8
BITMAP
30
B4
78
B4
30
30
ENDCHAR
STARTCHAR plus
ENCODING 43
SWIDTH 400 0
DWIDTH 10 0
BBX 8 9 0 1
BITMAP
08
08
08
08
FF
08
08
08
08
ENDCHAR
STARTCHAR comma
ENCODING 44
SWIDTH 150 0
DWIDTH 4 0
BBX 2 3 0 -1
BITMAP
40
40
80
ENDCHAR
STARTCHAR hyphen
ENCODING 45
SWIDTH 350 0
DWIDTH 8 0
BBX 7 1 0 5
BITMAP
FE
ENDCHAR
STARTCHAR period
ENCODING 46
SWIDTH 100 0
DWIDTH 2 0
BBX 1 2 0 0
BITMAP
80
80
ENDCHAR
STARTCHAR slash
ENCODING 47
SWIDTH 300 0
DWIDTH 7 0
BBX 6 18 0 -4
BITMAP
04
04
04
08
08
08
08
30
30
30
40
40
40
40
80
80
80
80
ENDCHAR
STARTCHAR zero
ENCODING 48
SWIDTH 400 0
DWIDTH 10 0
BBX 8 13 0 0
BITMAP
3C
42
42
81
81
81
81
81
81
42
42
42
3C
ENDCHAR
STARTCHAR one
ENCODING 49
SWIDTH 400 0
DWIDTH 10 0
BBX 4 13 2 0
BITMAP
20
E0
20
20
20
20
20
20
20
20
20
20
F0
ENDCHAR
STARTCHAR two
ENCODING 50
SWIDTH 400 0
DWIDTH 10 0
BBX 8 13 0 0
BITMAP
7C
82
01
01
01
02
04
08
30
40
40
81
FF
ENDCHAR
STARTCHAR three
ENCODING 51
SWIDTH 400 0
DWIDTH 10 0
BBX 8 13 0 0
BITMAP
7C
82
01
01
01
02
3C
02
01
01
01
82
7C
ENDCHAR
STARTCHAR four
ENCODING 52
SWIDTH 400 0
DWIDTH 10 0
BBX 8 13 0 0
BITMAP
34
34
34
44
44
44
84
FF
04
04
04
04
0E
ENDCHAR
STARTCHAR five
ENCODING 53
SWIDTH 400 0
DWIDTH 10 0
BBX 8 13 0 0
BITMAP
7F
40
80
80
80
FC
02
01
01
01
01
82
7C
ENDCHAR
STARTCHAR six
ENCODING 54
SWIDTH 400 0
DWIDTH 10 0
BBX 8 13 0 0
BITMAP
0E
30
40
80
80
BC
C2
81
81
81
81
42
3C
ENDCHAR
STARTCHAR seven
ENCODING 55
SWIDTH 400 0
DWIDTH 10 0
BBX 8 13 0 0
BITMAP
FF
81
02
02
02
04
04
04
08
08
08
08
08
ENDCHAR
STARTCHAR eight
ENCODING 56
SWIDTH 400 0
DWIDTH 10 0
BBX 8 13 0 0
BITMAP
3C
42
81
81
81
42
3C
42
81
81
81
42
3C
ENDCHAR
STARTCHAR nine
ENCODING 57
SWIDTH 400 0
DWIDTH 10 0
BBX 8 13 0 0
BITMAP
3C
42
81
81
81
81
43
3D
01
02
02
04
38
ENDCHAR
STARTCHAR colon
ENCODING 58
SWIDTH 100 0
DWIDTH 2 0
BBX 1 8 0 0
BITMAP
80
80
00
00
00
00
80
80
ENDCHAR
STARTCHAR semicolon
ENCODING 59
SWIDTH 150 0
DWIDTH 4 0
BBX 2 9 0 -1
BITMAP
40
40
00
00
00
00
40
40
80
ENDCHAR
STARTCHAR less
ENCODING 60
SWIDTH 250 0
DWIDTH 6 0
BBX 5 9 0 1
BITMAP
08
08
30
40
80
40
30
30
08
ENDCHAR
STARTCHAR equal
ENCODING 61
SWIDTH 350 0
DWIDTH 8 0
BBX 7 3 0 4
BITMAP
FE
00
FE
ENDCHAR
STARTCHAR greater
ENCODING 62
SWIDTH 250 0
DWIDTH 6 0
BBX 5 9 0 1
BITMAP
80
80
40
30
08
30
40
40
80
ENDCHAR
STARTCHAR question
ENCODING 63
SWIDTH 400 0
DWIDTH 10 0
BBX 8 13 0 0
BITMAP
3C
42
81
01
01
02
04
08
08
00
00
08
08
ENDCHAR
STARTCHAR at
ENCODING 64
SWIDTH 550 0
DWIDTH 13 0
BBX 12 12 0 0
BITMAP
0F00
70E0
4020
4020
8710
8910
8910
86E0
4000
4000
7000
0E00
ENDCHAR
STARTCHAR A
ENCODING 65
SWIDTH 500 0
DWIDTH 12 0
BBX 11 13 0 0
BITMAP
0C00
0400
0A00
0A00
0A00
0A00
3100
3F00
3100
40C0
40C0
40C0
F1E0
ENDCHAR
STARTCHAR B
ENCODING 66
SWIDTH 450 0
DWIDTH 11 0
BBX 10 13 0 0
BITMAP
FE00
4100
40C0
40C0
40C0
4100
7E00
4100
40C0
40C0
40C0
4100
FE00
ENDCHAR
STARTCHAR C
ENCODING 67
SWIDTH 450 0
DWIDTH 11 0
BBX 10 13 0 0
BITMAP
0EC0
71C0
40C0
8000
8000
8000
8000
8000
8000
40C0
40C0
71C0
0E00
ENDCHAR
STARTCHAR D
ENCODING 68
SWIDTH 450 0
DWIDTH 11 0
BBX 10 13 0 0
BITMAP
FC00
4300
4100
40C0
40C0
40C0
40C0
40C0
40C0
4100
4100
4300
FC00
ENDCHAR
STARTCHAR E
ENCODING 69
SWIDTH 450 0
DWIDTH 11 0
BBX 10 13 0 0
BITMAP
FFC0
40C0
4000
4000
4000
4200
7E00
4200
4000
4000
4000
40C0
FFC0
ENDCHAR
STARTCHAR F
ENCODING 70
SWIDTH 450 0
DWIDTH 11 0
BBX 10 13 0 0
BITMAP
FFC0
40C0
4000
4000
4000
4200
7E00
4200
4000
4000
4000
4000
F000
ENDCHAR
STARTCHAR G
ENCODING 71
SWIDTH 450 0
DWIDTH 11 0
BBX 10 13 0 0
BITMAP
0EC0
71C0
40C0
8000
8000
8000
83C0
80C0
80C0
40C0
40C0
71C0
0EC0
ENDCHAR
STARTCHAR H
ENCODING 72
SWIDTH 500 0
DWIDTH 12 0
BBX 11 13 0 0
BITMAP
F1E0
40C0
40C0
40C0
40C0
40C0
7FC0
40C0
40C0
40C0
40C0
40C0
F1E0
ENDCHAR
STARTCHAR I
ENCODING 73
SWIDTH 200 0
DWIDTH 5 0
BBX 4 13 0 0
BITMAP
F0
40
40
40
40
40
40
40
40
40
40
40
F0
ENDCHAR
STARTCHAR J
ENCODING 74
SWIDTH 450 0
DWIDTH 11 0
BBX 10 13 0 0
BITMAP
03C0
0100
0100
0100
0100
0100
0100
0100
0100
8200
8200
C600
3800
ENDCHAR
STARTCHAR K
ENCODING 75
SWIDTH 450 0
DWIDTH 11 0
BBX 10 13 0 0
BITMAP
F3C0
4100
4200
4400
4400
4800
7400
4200
4200
4100
4100
4100
F3C0
ENDCHAR
STARTCHAR L
ENCODING 76
SWIDTH 450 0
DWIDTH 11 0
BBX 10 13 0 0
BITMAP
F000
4000
4000
4000
4000
4000
4000
4000
4000
4000
4000
40C0
FFC0
ENDCHAR
STARTCHAR M
ENCODING 77
SWIDTH 600 0
DWIDTH 14 0
BBX 13 13 0 0
BITMAP
C018
7030
48D0
4510
4510
4210
4210
4010
4010
4010
4010
4010
F038
ENDCHAR
STARTCHAR N
ENCODING 78
SWIDTH 500 0
DWIDTH 12 0
BBX 11 13 0 0
BITMAP
C1E0
70C0
70C0
48C0
48C0
48C0
44C0
44C0
42C0
42C0
42C0
41C0
F0C0
ENDCHAR
STARTCHAR O
ENCODING 79
SWIDTH 500 0
DWIDTH 12 0
BBX 11 13 0 0
BITMAP
0E00
71C0
40C0
8020
8020
8020
8020
8020
8020
40C0
40C0
71C0
0E00
ENDCHAR
STARTCHAR P
ENCODING 80
SWIDTH 450 0
DWIDTH 11 0
BBX 10 13 0 0
BITMAP
FE00
4100
40C0
40C0
40C0
4100
7E00
4000
4000
4000
4000
4000
F000
ENDCHAR
STARTCHAR Q
ENCODING 81
SWIDTH 500 0
DWIDTH 12 0
BBX 11 15 0 -2
BITMAP
0E00
71C0
40C0
8020
8020
8020
8020
8020
8020
40C0
40C0
71C0
0E00
3100
00E0
ENDCHAR
STARTCHAR R
ENCODING 82
SWIDTH 450 0
DWIDTH 11 0
BBX 10 13 0 0
BITMAP
FE00
4100
40C0
40C0
40C0
4100
7E00
4400
4200
4100
4100
4100
F0C0
ENDCHAR
STARTCHAR S
ENCODING 83
SWIDTH 400 0
DWIDTH 10 0
BBX 8 13 0 0
BITMAP
3D
43
81
80
80
40
3C
02
01
81
81
C2
BC
ENDCHAR
STARTCHAR T
ENCODING 84
SWIDTH 400 0
DWIDTH 10 0
BBX 8 13 0 0
BITMAP
FF
89
08
08
08
08
08
08
08
08
08
08
3C
ENDCHAR
STARTCHAR U
ENCODING 85
SWIDTH 550 0
DWIDTH 13 0
BBX 12 13 0 0
BITMAP
F0F0
4020
4020
4020
4020
4020
4020
4020
4020
30C0
30C0
39C0
0600
ENDCHAR
STARTCHAR V
ENCODING 86
SWIDTH 500 0
DWIDTH 12 0
BBX 11 13 0 0
BITMAP
F1E0
40C0
40C0
3100
3100
3100
3100
0A00
0A00
0A00
0A00
0400
0400
ENDCHAR
STARTCHAR W
ENCODING 87
SWIDTH 700 0
DWIDTH 17 0
BBX 16 13 0 0
BITMAP
F00F
4004
4004
3108
3108
3108
3108
0AD0
0AD0
0AD0
0AD0
0420
0420
ENDCHAR
STARTCHAR X
ENCODING 88
SWIDTH 500 0
DWIDTH 12 0
BBX 11 13 0 0
BITMAP
F1E0
40C0
3100
3100
3100
0A00
0400
0A00
3100
3100
3100
40C0
F1E0
ENDCHAR
STARTCHAR Y
ENCODING 89
SWIDTH 500 0
DWIDTH 12 0
BBX 11 13 0 0
BITMAP
F1E0
40C0
3100
3100
3100
0A00
0400
0400
0400
0400
0400
0400
0E00
ENDCHAR
STARTCHAR Z
ENCODING 90
SWIDTH 400 0
DWIDTH 10 0
BBX 8 13 0 0
BITMAP
FF
81
02
04
04
04
08
30
30
40
40
81
FF
ENDCHAR
STARTCHAR bracketleft
ENCODING 91
SWIDTH 200 0
DWIDTH 5 0
BBX 4 18 0 -4
BITMAP
F0
80
80
80
80
80
80
80
80
80
80
80
80
80
80
80
F0
F0
ENDCHAR
STARTCHAR backslash
ENCODING 92
SWIDTH 300 0
DWIDTH 7 0
BBX 6 18 0 -4
BITMAP
80
80
80
40
40
40
40
30
30
30
08
08
08
08
04
04
04
04
ENDCHAR
STARTCHAR bracketright
ENCODING 93
SWIDTH 200 0
DWIDTH 5 0
BBX 4 18 0 -4
BITMAP
F0
30
30
30
30
30
30
30
30
30
30
30
30
30
30
30
F0
F0
ENDCHAR
STARTCHAR asciicircum
ENCODING 94
SWIDTH 300 0
DWIDTH 7 0
BBX 6 3 0 11
BITMAP
30
48
84
ENDCHAR
STARTCHAR underscore
ENCODING 95
SWIDTH 400 0
DWIDTH 10 0
BBX 8 1 0 -1
BITMAP
FF
ENDCHAR
STARTCHAR grave
ENCODING 96
SWIDTH 200 0
DWIDTH 5 0
BBX 4 3 0 11
BITMAP
80
40
30
ENDCHAR
STARTCHAR a
ENCODING 97
SWIDTH 400 0
DWIDTH 10 0
BBX 8 10 0 0
BITMAP
3C
3C
42
02
3E
42
82
82
86
7B
ENDCHAR
STARTCHAR b
ENCODING 98
SWIDTH 450 0
DWIDTH 11 0
BBX 10 14 0 0
BITMAP
C000
4000
4000
4000
4E00
4E00
7100
40C0
40C0
40C0
40C0
40C0
7100
CE00
ENDCHAR
STARTCHAR c
ENCODING 99
SWIDTH 400 0
DWIDTH 10 0
BBX 8 10 0 0
BITMAP
3D
3D
43
81
80
80
81
81
42
3C
ENDCHAR
STARTCHAR d
ENCODING 100
SWIDTH 450 0
DWIDTH 11 0
BBX 10 14 0 0
BITMAP
0300
0100
0100
0100
3D00
3D00
4300
8100
8100
8100
8100
8100
4300
3DC0
ENDCHAR
STARTCHAR e
ENCODING 101
SWIDTH 400 0
DWIDTH 10 0
BBX 8 10 0 0
BITMAP
3C
3C
42
81
FF
80
80
80
42
3C
ENDCHAR
STARTCHAR f
ENCODING 102
SWIDTH 200 0
DWIDTH 5 0
BBX 6 14 0 0
BITMAP
0C
30
40
40
F0
F0
40
40
40
40
40
40
40
F0
ENDCHAR
STARTCHAR g
ENCODING 103
SWIDTH 450 0
DWIDTH 11 0
BBX 10 15 0 -5
BITMAP
3DC0
3DC0
4300
8100
8100
8100
8100
8100
4300
3D00
0100
0100
0200
0200
3C00
ENDCHAR
STARTCHAR h
ENCODING 104
SWIDTH 450 0
DWIDTH 11 0
BBX 10 14 0 0
BITMAP
C000
4000
4000
4000
4C00
4C00
7200
4100
4100
4100
4100
4100
4100
F3C0
ENDCHAR
STARTCHAR i
ENCODING 105
SWIDTH 200 0
DWIDTH 5 0
BBX 4 14 0 0
BITMAP
40
40
00
00
C0
C0
40
40
40
40
40
40
40
F0
ENDCHAR
STARTCHAR j
ENCODING 106
SWIDTH 150 0
DWIDTH 4 0
BBX 4 19 -2 -5
BITMAP
10
10
00
00
30
30
10
10
10
10
10
10
10
10
10
10
20
20
C0
ENDCHAR
STARTCHAR k
ENCODING 107
SWIDTH 450 0
DWIDTH 11 0
BBX 10 14 0 0
BITMAP
C000
4000
4000
4000
4700
4700
4200
4400
4800
7400
4200
4200
4100
F3C0
ENDCHAR
STARTCHAR l
ENCODING 108
SWIDTH 200 0
DWIDTH 5 0
BBX 4 14 0 0
BITMAP
C0
40
40
40
40
40
40
40
40
40
40
40
40
F0
ENDCHAR
STARTCHAR m
ENCODING 109
SWIDTH 700 0
DWIDTH 17 0
BBX 16 10 0 0
BITMAP
CC30
CC30
72C8
4104
4104
4104
4104
4104
4104
F3CF
ENDCHAR
STARTCHAR n
ENCODING 110
SWIDTH 450 0
DWIDTH 11 0
BBX 10 10 0 0
BITMAP
CC00
CC00
7200
4100
4100
4100
4100
4100
4100
F3C0
ENDCHAR
STARTCHAR o
ENCODING 111
SWIDTH 400 0
DWIDTH 10 0
BBX 8 10 0 0
BITMAP
3C
3C
42
81
81
81
81
81
42
3C
ENDCHAR
STARTCHAR p
ENCODING 112
SWIDTH 450 0
DWIDTH 11 0
BBX 10 15 0 -5
BITMAP
CE00
CE00
7100
40C0
40C0
40C0
40C0
40C0
7100
4E00
4000
4000
4000
4000
F000
ENDCHAR
STARTCHAR q
ENCODING 113
SWIDTH 450 0
DWIDTH 11 0
BBX 10 15 0 -5
BITMAP
3DC0
3DC0
4300
8100
8100
8100
8100
8100
4300
3D00
0100
0100
0100
0100
03C0
ENDCHAR
STARTCHAR r
ENCODING 114
SWIDTH 400 0
DWIDTH 10 0
BBX 8 10 0 0
BITMAP
CE
CE
71
40
40
40
40
40
40
F0
ENDCHAR
STARTCHAR s
ENCODING 115
SWIDTH 350 0
DWIDTH 8 0
BBX 7 10 0 0
BITMAP
7A
7A
86
82
70
0C
82
82
C2
BC
ENDCHAR
STARTCHAR t
ENCODING 116
SWIDTH 200 0
DWIDTH 5 0
BBX 5 14 0 0
BITMAP
40
40
40
40
F0
F0
40
40
40
40
40
40
40
38
ENDCHAR
STARTCHAR u
ENCODING 117
SWIDTH 450 0
DWIDTH 11 0
BBX 10 10 0 0
BITMAP
C300
C300
4100
4100
4100
4100
4100
4100
3300
0DC0
ENDCHAR
STARTCHAR v
ENCODING 118
SWIDTH 400 0
DWIDTH 10 0
BBX 8 10 0 0
BITMAP
F7
F7
42
42
34
34
34
34
08
08
ENDCHAR
STARTCHAR w
ENCODING 119
SWIDTH 500 0
DWIDTH 12 0
BBX 11 10 0 0
BITMAP
F1E0
F1E0
40C0
40C0
3500
3500
3500
3500
0A00
0A00
ENDCHAR
STARTCHAR x
ENCODING 120
SWIDTH 400 0
DWIDTH 10 0
BBX 8 10 0 0
BITMAP
F7
F7
42
34
08
08
34
34
42
F7
ENDCHAR
STARTCHAR y
ENCODING 121
SWIDTH 400 0
DWIDTH 10 0
BBX 8 15 0 -5
BITMAP
F7
F7
42
42
34
34
34
34
08
08
30
30
40
40
80
ENDCHAR
STARTCHAR z
ENCODING 122
SWIDTH 350 0
DWIDTH 8 0
BBX 7 10 0 0
BITMAP
FE
FE
82
04
08
30
40
40
82
FE
ENDCHAR
STARTCHAR braceleft
ENCODING 123
SWIDTH 300 0
DWIDTH 7 0
BBX 6 18 0 -4
BITMAP
0C
30
30
30
30
30
30
30
C0
30
30
30
30
30
30
30
0C
0C
ENDCHAR
STARTCHAR bar
ENCODING 124
SWIDTH 100 0
DWIDTH 2 0
BBX 1 18 0 -4
BITMAP
80
80
80
80
80
80
80
80
80
80
80
80
80
80
80
80
80
80
ENDCHAR
STARTCHAR braceright
ENCODING 125
SWIDTH 300 0
DWIDTH 7 0
BBX 6 18 0 -4
BITMAP
C0
30
30
30
30
30
30
30
0C
30
30
30
30
30
30
30
C0
C0
ENDCHAR
STARTCHAR asciitilde
ENCODING 126
SWIDTH 350 0
DWIDTH 8 0
BBX 7 2 0 12
BITMAP
72
8C
ENDCHAR
STARTCHAR nonbreakingspace
ENCODING 160
SWIDTH 250 0
DWIDTH 6 0
BBX 1 1 0 0
BITMAP
00
ENDCHAR
STARTCHAR exclamdown
ENCODING 161
SWIDTH 100 0
DWIDTH 2 0
BBX 1 14 0 -4
BITMAP
80
80
80
00
80
80
80
80
80
80
80
80
80
80
ENDCHAR
STARTCHAR cent
ENCODING 162
SWIDTH 400 0
DWIDTH 10 0
BBX 8 14 0 -2
BITMAP
08
08
3D
3D
4B
89
88
88
89
89
4A
3C
08
08
ENDCHAR
STARTCHAR sterling
ENCODING 163
SWIDTH 400 0
DWIDTH 10 0
BBX 8 13 0 0
BITMAP
0C
32
30
30
30
7C
30
30
30
30
30
41
FF
ENDCHAR
STARTCHAR currency
ENCODING 164
SWIDTH 350 0
DWIDTH 8 0
BBX 7 8 0 2
BITMAP
BA
BA
44
82
82
44
BA
BA
ENDCHAR
STARTCHAR yen
ENCODING 165
SWIDTH 500 0
DWIDTH 12 0
BBX 11 13 0 0
BITMAP
F1E0
40C0
3100
3100
3100
0A00
3F00
0400
3F00
0400
0400
0400
0E00
ENDCHAR
STARTCHAR brokenbar
ENCODING 166
SWIDTH 100 0
DWIDTH 2 0
BBX 1 18 0 -4
BITMAP
80
80
80
80
80
80
80
00
00
00
80
80
80
80
80
80
80
80
ENDCHAR
STARTCHAR section
ENCODING 167
SWIDTH 350 0
DWIDTH 8 0
BBX 7 14 0 -1
BITMAP
38
44
40
38
38
44
82
82
44
38
38
04
44
38
ENDCHAR
STARTCHAR dieresis
ENCODING 168
SWIDTH 350 0
DWIDTH 8 0
BBX 7 1 0 13
BITMAP
C6
ENDCHAR
STARTCHAR copyright
ENCODING 169
SWIDTH 600 0
DWIDTH 14 0
BBX 13 13 0 0
BITMAP
0700
38E0
4010
4710
4710
88C8
8808
88C8
4710
4010
4010
38E0
0700
ENDCHAR
STARTCHAR ordfeminine
ENCODING 170
SWIDTH 350 0
DWIDTH 8 0
BBX 7 8 0 5
BITMAP
78
04
7C
84
84
7E
00
7C
ENDCHAR
STARTCHAR guillemotleft
ENCODING 171
SWIDTH 400 0
DWIDTH 10 0
BBX 8 9 0 1
BITMAP
09
09
32
44
88
44
32
32
09
ENDCHAR
STARTCHAR logicalnot
ENCODING 172
SWIDTH 400 0
DWIDTH 10 0
BBX 8 3 0 4
BITMAP
FF
01
01
ENDCHAR
STARTCHAR hyphen
ENCODING 173
SWIDTH 350 0
DWIDTH 8 0
BBX 7 1 0 5
BITMAP
FE
ENDCHAR
STARTCHAR registered
ENCODING 174
SWIDTH 600 0
DWIDTH 14 0
BBX 13 13 0 0
BITMAP
0700
38E0
4010
4F10
4F10
88C8
8F08
8908
48D0
4010
4010
38E0
0700
ENDCHAR
STARTCHAR macron
ENCODING 175
SWIDTH 300 0
DWIDTH 7 0
BBX 6 1 0 13
BITMAP
FC
ENDCHAR
STARTCHAR degree
ENCODING 176
SWIDTH 300 0
DWIDTH 7 0
BBX 6 6 0 7
BITMAP
78
84
84
84
84
78
ENDCHAR
STARTCHAR plusminus
ENCODING 177
SWIDTH 400 0
DWIDTH 10 0
BBX 8 11 0 0
BITMAP
08
08
08
08
FF
08
08
08
08
00
FF
ENDCHAR
STARTCHAR twosuperior
ENCODING 178
SWIDTH 300 0
DWIDTH 7 0
BBX 6 7 0 7
BITMAP
78
84
08
30
40
40
FC
ENDCHAR
STARTCHAR threesuperior
ENCODING 179
SWIDTH 300 0
DWIDTH 7 0
BBX 6 7 0 7
BITMAP
78
84
38
04
84
84
78
ENDCHAR
STARTCHAR acute
ENCODING 180
SWIDTH 200 0
DWIDTH 5 0
BBX 4 3 0 11
BITMAP
30
40
80
ENDCHAR
STARTCHAR mu
ENCODING 181
SWIDTH 450 0
DWIDTH 11 0
BBX 10 15 0 -5
BITMAP
C300
C300
4100
4100
4100
4100
4100
4100
7300
4DC0
4000
4000
4000
4000
4000
ENDCHAR
STARTCHAR paragraph
ENCODING 182
SWIDTH 500 0
DWIDTH 12 0
BBX 11 14 0 -1
BITMAP
3FE0
7EC0
FEC0
FEC0
FEC0
FEC0
7EC0
3EC0
02C0
02C0
02C0
02C0
02C0
02C0
ENDCHAR
STARTCHAR periodcentered
ENCODING 183
SWIDTH 100 0
DWIDTH 2 0
BBX 1 2 0 6
BITMAP
80
80
ENDCHAR
STARTCHAR cedilla
ENCODING 184
SWIDTH 300 0
DWIDTH 7 0
BBX 4 5 1 -5
BITMAP
60
10
90
90
60
ENDCHAR
STARTCHAR onesuperior
ENCODING 185
SWIDTH 300 0
DWIDTH 7 0
BBX 4 7 1 7
BITMAP
60
E0
60
60
60
60
F0
ENDCHAR
STARTCHAR ordmasculine
ENCODING 186
SWIDTH 300 0
DWIDTH 7 0
BBX 6 8 0 5
BITMAP
78
84
84
84
84
78
00
78
ENDCHAR
STARTCHAR guillemotright
ENCODING 187
SWIDTH 400 0
DWIDTH 10 0
BBX 8 9 0 1
BITMAP
88
88
44
32
09
32
44
44
88
ENDCHAR
STARTCHAR onequarter
ENCODING 188
SWIDTH 500 0
DWIDTH 12 0
BBX 11 13 0 0
BITMAP
4100
C100
4200
4200
4200
F400
0400
04C0
09C0
0AC0
0AC0
33E0
30C0
ENDCHAR
STARTCHAR onehalf
ENCODING 189
SWIDTH 500 0
DWIDTH 12 0
BBX 11 13 0 0
BITMAP
4100
C100
4200
4200
4200
F400
0400
05C0
0A20
08C0
08C0
3100
33E0
ENDCHAR
STARTCHAR threequarters
ENCODING 190
SWIDTH 500 0
DWIDTH 12 0
BBX 11 13 0 0
BITMAP
7100
8900
3200
8A00
8A00
7400
0400
04C0
09C0
0AC0
0AC0
33E0
30C0
ENDCHAR
STARTCHAR questiondown
ENCODING 191
SWIDTH 400 0
DWIDTH 10 0
BBX 8 14 0 -4
BITMAP
08
08
08
00
08
08
30
30
40
80
81
42
3C
3C
ENDCHAR
STARTCHAR Agrave
ENCODING 192
SWIDTH 500 0
DWIDTH 12 0
BBX 11 17 0 0
BITMAP
0800
0400
0400
0000
0C00
0400
0A00
0A00
0A00
0A00
3100
3F00
3100
40C0
40C0
40C0
F1E0
ENDCHAR
STARTCHAR Aacute
ENCODING 193
SWIDTH 500 0
DWIDTH 12 0
BBX 11 17 0 0
BITMAP
0200
0400
0400
0000
0C00
0400
0A00
0A00
0A00
0A00
3100
3F00
3100
40C0
40C0
40C0
F1E0
ENDCHAR
STARTCHAR Acircumflex
ENCODING 194
SWIDTH 500 0
DWIDTH 12 0
BBX 11 17 0 0
BITMAP
0400
0A00
0A00
0000
0C00
0400
0A00
0A00
0A00
0A00
3100
3F00
3100
40C0
40C0
40C0
F1E0
ENDCHAR
STARTCHAR Atilde
ENCODING 195
SWIDTH 500 0
DWIDTH 12 0
BBX 11 17 0 0
BITMAP
0D00
3600
3600
0000
0C00
0400
0A00
0A00
0A00
0A00
3100
3F00
3100
40C0
40C0
40C0
F1E0
ENDCHAR
STARTCHAR Adieresis
ENCODING 196
SWIDTH 500 0
DWIDTH 12 0
BBX 11 16 0 0
BITMAP
3B00
3B00
0000
0C00
0400
0A00
0A00
0A00
0A00
3100
3F00
3100
40C0
40C0
40C0
F1E0
ENDCHAR
STARTCHAR Aring
ENCODING 197
SWIDTH 500 0
DWIDTH 12 0
BBX 11 17 0 0
BITMAP
0E00
3100
3100
0E00
0400
0400
0A00
0A00
0A00
0A00
3100
3F00
3100
40C0
40C0
40C0
F1E0
ENDCHAR
STARTCHAR AE
ENCODING 198
SWIDTH 700 0
DWIDTH 17 0
BBX 16 13 0 0
BITMAP
07FF
0303
0500
0500
0500
0908
0FF8
3108
3100
4100
4100
4103
F3FF
ENDCHAR
STARTCHAR Ccedilla
ENCODING 199
SWIDTH 450 0
DWIDTH 11 0
BBX 10 18 0 -5
BITMAP
0EC0
71C0
40C0
8000
8000
8000
8000
8000
8000
40C0
40C0
71C0
0E00
0400
0200
0A00
0A00
0400
ENDCHAR
STARTCHAR Egrave
ENCODING 200
SWIDTH 450 0
DWIDTH 11 0
BBX 10 17 0 0
BITMAP
0800
0400
0400
0000
FFC0
40C0
4000
4000
4000
4200
7E00
4200
4000
4000
4000
40C0
FFC0
ENDCHAR
STARTCHAR Eacute
ENCODING 201
SWIDTH 450 0
DWIDTH 11 0
BBX 10 17 0 0
BITMAP
0400
0800
0800
0000
FFC0
40C0
4000
4000
4000
4200
7E00
4200
4000
4000
4000
40C0
FFC0
ENDCHAR
STARTCHAR Ecircumflex
ENCODING 202
SWIDTH 450 0
DWIDTH 11 0
BBX 10 17 0 0
BITMAP
0C00
3200
3200
0000
FFC0
40C0
4000
4000
4000
4200
7E00
4200
4000
4000
4000
40C0
FFC0
ENDCHAR
STARTCHAR Edieresis
ENCODING 203
SWIDTH 450 0
DWIDTH 11 0
BBX 10 16 0 0
BITMAP
7300
7300
0000
FFC0
40C0
4000
4000
4000
4200
7E00
4200
4000
4000
4000
40C0
FFC0
ENDCHAR
STARTCHAR Igrave
ENCODING 204
SWIDTH 200 0
DWIDTH 5 0
BBX 4 17 0 0
BITMAP
80
40
40
00
F0
40
40
40
40
40
40
40
40
40
40
40
F0
ENDCHAR
STARTCHAR Iacute
ENCODING 205
SWIDTH 200 0
DWIDTH 5 0
BBX 4 17 0 0
BITMAP
30
40
40
00
F0
40
40
40
40
40
40
40
40
40
40
40
F0
ENDCHAR
STARTCHAR Icircumflex
ENCODING 206
SWIDTH 200 0
DWIDTH 5 0
BBX 4 17 0 0
BITMAP
40
B0
B0
00
F0
40
40
40
40
40
40
40
40
40
40
40
F0
ENDCHAR
STARTCHAR Idieresis
ENCODING 207
SWIDTH 200 0
DWIDTH 5 0
BBX 6 16 -1 0
BITMAP
DC
DC
00
78
20
20
20
20
20
20
20
20
20
20
20
78
ENDCHAR
STARTCHAR Eth
ENCODING 208
SWIDTH 450 0
DWIDTH 11 0
BBX 10 13 0 0
BITMAP
FC00
4300
4100
40C0
40C0
40C0
F0C0
40C0
40C0
4100
4100
4300
FC00
ENDCHAR
STARTCHAR Ntilde
ENCODING 209
SWIDTH 500 0
DWIDTH 12 0
BBX 11 17 0 0
BITMAP
3CC0
4700
4700
0000
C1E0
70C0
70C0
48C0
48C0
48C0
44C0
44C0
42C0
42C0
42C0
41C0
F0C0
ENDCHAR
STARTCHAR Ograve
ENCODING 210
SWIDTH 500 0
DWIDTH 12 0
BBX 11 17 0 0
BITMAP
0800
0400
0400
0000
0E00
71C0
40C0
8020
8020
8020
8020
8020
8020
40C0
40C0
71C0
0E00
ENDCHAR
STARTCHAR Oacute
ENCODING 211
SWIDTH 500 0
DWIDTH 12 0
BBX 11 17 0 0
BITMAP
0200
0400
0400
0000
0E00
71C0
40C0
8020
8020
8020
8020
8020
8020
40C0
40C0
71C0
0E00
ENDCHAR
STARTCHAR Ocircumflex
ENCODING 212
SWIDTH 500 0
DWIDTH 12 0
BBX 11 17 0 0
BITMAP
0400
0A00
0A00
0000
0E00
71C0
40C0
8020
8020
8020
8020
8020
8020
40C0
40C0
71C0
0E00
ENDCHAR
STARTCHAR Otilde
ENCODING 213
SWIDTH 500 0
DWIDTH 12 0
BBX 11 17 0 0
BITMAP
0D00
3600
3600
0000
0E00
71C0
40C0
8020
8020
8020
8020
8020
8020
40C0
40C0
71C0
0E00
ENDCHAR
STARTCHAR Odieresis
ENCODING 214
SWIDTH 500 0
DWIDTH 12 0
BBX 11 16 0 0
BITMAP
3B00
3B00
0000
0E00
71C0
40C0
8020
8020
8020
8020
8020
8020
40C0
40C0
71C0
0E00
ENDCHAR
STARTCHAR multiply
ENCODING 215
SWIDTH 400 0
DWIDTH 10 0
BBX 8 9 0 1
BITMAP
81
81
42
34
08
34
42
42
81
ENDCHAR
STARTCHAR Oslash
ENCODING 216
SWIDTH 500 0
DWIDTH 12 0
BBX 11 13 0 0
BITMAP
0E20
71C0
40C0
8120
8120
8220
8420
8820
B020
40C0
40C0
71C0
8E00
ENDCHAR
STARTCHAR Ugrave
ENCODING 217
SWIDTH 550 0
DWIDTH 13 0
BBX 12 17 0 0
BITMAP
0400
0200
0200
0000
F0F0
4020
4020
4020
4020
4020
4020
4020
4020
30C0
30C0
39C0
0600
ENDCHAR
STARTCHAR Uacute
ENCODING 218
SWIDTH 550 0
DWIDTH 13 0
BBX 12 17 0 0
BITMAP
0200
0400
0400
0000
F0F0
4020
4020
4020
4020
4020
4020
4020
4020
30C0
30C0
39C0
0600
ENDCHAR
STARTCHAR Ucircumflex
ENCODING 219
SWIDTH 550 0
DWIDTH 13 0
BBX 12 17 0 0
BITMAP
0600
0900
0900
0000
F0F0
4020
4020
4020
4020
4020
4020
4020
4020
30C0
30C0
39C0
0600
ENDCHAR
STARTCHAR Udieresis
ENCODING 220
SWIDTH 550 0
DWIDTH 13 0
BBX 12 16 0 0
BITMAP
39C0
39C0
0000
F0F0
4020
4020
4020
4020
4020
4020
4020
4020
30C0
30C0
39C0
0600
ENDCHAR
STARTCHAR Yacute
ENCODING 221
SWIDTH 500 0
DWIDTH 12 0
BBX 11 17 0 0
BITMAP
0200
0400
0400
0000
F1E0
40C0
3100
3100
3100
0A00
0400
0400
0400
0400
0400
0400
0E00
ENDCHAR
STARTCHAR Thorn
ENCODING 222
SWIDTH 450 0
DWIDTH 11 0
BBX 10 13 0 0
BITMAP
F000
4000
7E00
4100
4100
40C0
40C0
40C0
4100
7E00
7E00
4000
F000
ENDCHAR
STARTCHAR germandbls
ENCODING 223
SWIDTH 450 0
DWIDTH 11 0
BBX 10 13 0 0
BITMAP
0E00
3100
40C0
40C0
40C0
4100
4600
4100
40C0
40C0
40C0
4100
C600
ENDCHAR
STARTCHAR agrave
ENCODING 224
SWIDTH 400 0
DWIDTH 10 0
BBX 8 13 0 0
BITMAP
30
08
00
3C
3C
42
02
3E
42
82
82
86
7B
ENDCHAR
STARTCHAR aacute
ENCODING 225
SWIDTH 400 0
DWIDTH 10 0
BBX 8 13 0 0
BITMAP
04
08
00
3C
3C
42
02
3E
42
82
82
86
7B
ENDCHAR
STARTCHAR acircumflex
ENCODING 226
SWIDTH 400 0
DWIDTH 10 0
BBX 8 13 0 0
BITMAP
08
34
00
3C
3C
42
02
3E
42
82
82
86
7B
ENDCHAR
STARTCHAR atilde
ENCODING 227
SWIDTH 400 0
DWIDTH 10 0
BBX 8 13 0 0
BITMAP
3A
4C
00
3C
3C
42
02
3E
42
82
82
86
7B
ENDCHAR
STARTCHAR adieresis
ENCODING 228
SWIDTH 400 0
DWIDTH 10 0
BBX 8 12 0 0
BITMAP
76
00
3C
3C
42
02
3E
42
82
82
86
7B
ENDCHAR
STARTCHAR aring
ENCODING 229
SWIDTH 400 0
DWIDTH 10 0
BBX 8 14 0 0
BITMAP
3C
42
3C
00
3C
3C
42
02
3E
42
82
82
86
7B
ENDCHAR
STARTCHAR ae
ENCODING 230
SWIDTH 650 0
DWIDTH 16 0
BBX 14 10 0 0
BITMAP
3CF0
3CF0
4308
0204
3FFC
4200
8200
8200
8508
78F0
ENDCHAR
STARTCHAR ccedilla
ENCODING 231
SWIDTH 400 0
DWIDTH 10 0
BBX 8 15 0 -5
BITMAP
3D
3D
43
81
80
80
81
81
42
3C
08
04
34
34
08
ENDCHAR
STARTCHAR egrave
ENCODING 232
SWIDTH 400 0
DWIDTH 10 0
BBX 8 13 0 0
BITMAP
30
08
00
3C
3C
42
81
FF
80
80
80
42
3C
ENDCHAR
STARTCHAR eacute
ENCODING 233
SWIDTH 400 0
DWIDTH 10 0
BBX 8 13 0 0
BITMAP
04
08
00
3C
3C
42
81
FF
80
80
80
42
3C
ENDCHAR
STARTCHAR ecircumflex
ENCODING 234
SWIDTH 400 0
DWIDTH 10 0
BBX 8 13 0 0
BITMAP
08
34
00
3C
3C
42
81
FF
80
80
80
42
3C
ENDCHAR
STARTCHAR edieresis
ENCODING 235
SWIDTH 400 0
DWIDTH 10 0
BBX 8 12 0 0
BITMAP
76
00
3C
3C
42
81
FF
80
80
80
42
3C
ENDCHAR
STARTCHAR igrave
ENCODING 236
SWIDTH 200 0
DWIDTH 5 0
BBX 4 14 0 0
BITMAP
80
40
00
00
C0
C0
40
40
40
40
40
40
40
F0
ENDCHAR
STARTCHAR iacute
ENCODING 237
SWIDTH 200 0
DWIDTH 5 0
BBX 4 14 0 0
BITMAP
30
40
00
00
C0
C0
40
40
40
40
40
40
40
F0
ENDCHAR
STARTCHAR icircumflex
ENCODING 238
SWIDTH 200 0
DWIDTH 5 0
BBX 4 14 0 0
BITMAP
40
B0
00
00
C0
C0
40
40
40
40
40
40
40
F0
ENDCHAR
STARTCHAR idieresis
ENCODING 239
SWIDTH 200 0
DWIDTH 5 0
BBX 6 13 -1 0
BITMAP
DC
00
00
60
60
20
20
20
20
20
20
20
78
ENDCHAR
STARTCHAR eth
ENCODING 240
SWIDTH 400 0
DWIDTH 10 0
BBX 8 14 0 0
BITMAP
79
06
0A
01
3D
3D
43
81
81
81
81
81
42
3C
ENDCHAR
STARTCHAR ntilde
ENCODING 241
SWIDTH 450 0
DWIDTH 11 0
BBX 10 13 0 0
BITMAP
3900
4600
0000
CC00
CC00
7200
4100
4100
4100
4100
4100
4100
F3C0
ENDCHAR
STARTCHAR ograve
ENCODING 242
SWIDTH 400 0
DWIDTH 10 0
BBX 8 13 0 0
BITMAP
30
08
00
3C
3C
42
81
81
81
81
81
42
3C
ENDCHAR
STARTCHAR oacute
ENCODING 243
SWIDTH 400 0
DWIDTH 10 0
BBX 8 13 0 0
BITMAP
04
08
00
3C
3C
42
81
81
81
81
81
42
3C
ENDCHAR
STARTCHAR ocircumflex
ENCODING 244
SWIDTH 400 0
DWIDTH 10 0
BBX 8 13 0 0
BITMAP
08
34
00
3C
3C
42
81
81
81
81
81
42
3C
ENDCHAR
STARTCHAR otilde
ENCODING 245
SWIDTH 400 0
DWIDTH 10 0
BBX 8 13 0 0
BITMAP
3A
4C
00
3C
3C
42
81
81
81
81
81
42
3C
ENDCHAR
STARTCHAR odieresis
ENCODING 246
SWIDTH 400 0
DWIDTH 10 0
BBX 8 12 0 0
BITMAP
76
00
3C
3C
42
81
81
81
81
81
42
3C
ENDCHAR
STARTCHAR divide
ENCODING 247
SWIDTH 400 0
DWIDTH 10 0
BBX 8 9 0 1
BITMAP
08
08
08
00
FF
00
08
08
08
ENDCHAR
STARTCHAR oslash
ENCODING 248
SWIDTH 400 0
DWIDTH 10 0
BBX 8 10 0 0
BITMAP
3D
3D
42
85
89
89
B1
B1
42
BC
ENDCHAR
STARTCHAR ugrave
ENCODING 249
SWIDTH 450 0
DWIDTH 11 0
BBX 10 13 0 0
BITMAP
3000
0800
0000
C300
C300
4100
4100
4100
4100
4100
4100
3300
0DC0
ENDCHAR
STARTCHAR uacute
ENCODING 250
SWIDTH 450 0
DWIDTH 11 0
BBX 10 13 0 0
BITMAP
0400
0800
0000
C300
C300
4100
4100
4100
4100
4100
4100
3300
0DC0
ENDCHAR
STARTCHAR ucircumflex
ENCODING 251
SWIDTH 450 0
DWIDTH 11 0
BBX 10 13 0 0
BITMAP
0800
3400
0000
C300
C300
4100
4100
4100
4100
4100
4100
3300
0DC0
ENDCHAR
STARTCHAR udieresis
ENCODING 252
SWIDTH 450 0
DWIDTH 11 0
BBX 10 12 0 0
BITMAP
7600
0000
C300
C300
4100
4100
4100
4100
4100
4100
3300
0DC0
ENDCHAR
STARTCHAR yacute
ENCODING 253
SWIDTH 400 0
DWIDTH 10 0
BBX 8 18 0 -5
BITMAP
04
08
00
F7
F7
42
42
34
34
34
34
08
08
30
30
40
40
80
ENDCHAR
STARTCHAR thorn
ENCODING 254
SWIDTH 450 0
DWIDTH 11 0
BBX 10 19 0 -5
BITMAP
C000
4000
4000
4000
4E00
4E00
7100
40C0
40C0
40C0
40C0
40C0
7100
4E00
4000
4000
4000
4000
F000
ENDCHAR
STARTCHAR ydieresis
ENCODING 255
SWIDTH 400 0
DWIDTH 10 0
BBX 8 17 0 -5
BITMAP
76
00
F7
F7
42
42
34
34
34
34
08
08
30
30
40
40
80
ENDCHAR
STARTCHAR Amacron
ENCODING 256
SWIDTH 500 0
DWIDTH 12 0
BBX 11 16 0 0
BITMAP
3F00
3F00
0000
0C00
0400
0A00
0A00
0A00
0A00
3100
3F00
3100
40C0
40C0
40C0
F1E0
ENDCHAR
STARTCHAR amacron
ENCODING 257
SWIDTH 400 0
DWIDTH 10 0
BBX 8 12 0 0
BITMAP
7E
00
3C
3C
42
02
3E
42
82
82
86
7B
ENDCHAR
STARTCHAR Abreve
ENCODING 258
SWIDTH 500 0
DWIDTH 12 0
BBX 11 17 0 0
BITMAP
3100
0E00
0E00
0000
0C00
0400
0A00
0A00
0A00
0A00
3100
3F00
3100
40C0
40C0
40C0
F1E0
ENDCHAR
STARTCHAR abreve
ENCODING 259
SWIDTH 400 0
DWIDTH 10 0
BBX 8 13 0 0
BITMAP
42
3C
00
3C
3C
42
02
3E
42
82
82
86
7B
ENDCHAR
STARTCHAR Aogonek
ENCODING 260
SWIDTH 500 0
DWIDTH 12 0
BBX 11 18 0 -5
BITMAP
0C00
0400
0A00
0A00
0A00
0A00
3100
3F00
3100
40C0
40C0
40C0
F1E0
0400
0800
0A00
0A00
0400
ENDCHAR
STARTCHAR aogonek
ENCODING 261
SWIDTH 400 0
DWIDTH 10 0
BBX 8 15 0 -5
BITMAP
3C
3C
42
02
3E
42
82
82
86
7B
30
40
48
48
30
ENDCHAR
STARTCHAR Cacute
ENCODING 262
SWIDTH 450 0
DWIDTH 11 0
BBX 10 17 0 0
BITMAP
0200
0400
0400
0000
0EC0
71C0
40C0
8000
8000
8000
8000
8000
8000
40C0
40C0
71C0
0E00
ENDCHAR
STARTCHAR cacute
ENCODING 263
SWIDTH 400 0
DWIDTH 10 0
BBX 8 13 0 0
BITMAP
04
08
00
3D
3D
43
81
80
80
81
81
42
3C
ENDCHAR
STARTCHAR Ccircumflex
ENCODING 264
SWIDTH 450 0
DWIDTH 11 0
BBX 10 17 0 0
BITMAP
0400
0A00
0A00
0000
0EC0
71C0
40C0
8000
8000
8000
8000
8000
8000
40C0
40C0
71C0
0E00
ENDCHAR
STARTCHAR ccircumflex
ENCODING 265
SWIDTH 400 0
DWIDTH 10 0
BBX 8 13 0 0
BITMAP
08
34
00
3D
3D
43
81
80
80
81
81
42
3C
ENDCHAR
STARTCHAR Cdotaccent
ENCODING 266
SWIDTH 450 0
DWIDTH 11 0
BBX 10 16 0 0
BITMAP
0C00
0C00
0000
0EC0
71C0
40C0
8000
8000
8000
8000
8000
8000
40C0
40C0
71C0
0E00
ENDCHAR
STARTCHAR cdotaccent
ENCODING 267
SWIDTH 400 0
DWIDTH 10 0
BBX 8 12 0 0
BITMAP
38
00
3D
3D
43
81
80
80
81
81
42
3C
ENDCHAR
STARTCHAR Ccaron
ENCODING 268
SWIDTH 450 0
DWIDTH 11 0
BBX 10 17 0 0
BITMAP
0A00
0400
0400
0000
0EC0
71C0
40C0
8000
8000
8000
8000
8000
8000
40C0
40C0
71C0
0E00
ENDCHAR
STARTCHAR ccaron
ENCODING 269
SWIDTH 400 0
DWIDTH 10 0
BBX 8 13 0 0
BITMAP
34
08
00
3D
3D
43
81
80
80
81
81
42
3C
ENDCHAR
STARTCHAR Dcaron
ENCODING 270
SWIDTH 450 0
DWIDTH 11 0
BBX 10 17 0 0
BITMAP
3400
0800
0800
0000
FC00
4300
4100
40C0
40C0
40C0
40C0
40C0
40C0
4100
4100
4300
FC00
ENDCHAR
STARTCHAR dcaron
ENCODING 271
SWIDTH 450 0
DWIDTH 11 0
BBX 12 14 0 0
BITMAP
0330
0130
0110
0120
3D00
3D00
4300
8100
8100
8100
8100
8100
4300
3DC0
ENDCHAR
STARTCHAR Dcroat
ENCODING 272
SWIDTH 450 0
DWIDTH 11 0
BBX 10 13 0 0
BITMAP
FC00
4300
4100
40C0
40C0
40C0
F0C0
40C0
40C0
4100
4100
4300
FC00
ENDCHAR
STARTCHAR dcroat
ENCODING 273
SWIDTH 450 0
DWIDTH 11 0
BBX 10 14 0 0
BITMAP
0300
0100
03C0
0100
3D00
3D00
4300
8100
8100
8100
8100
8100
4300
3DC0
ENDCHAR
STARTCHAR Emacron
ENCODING 274
SWIDTH 450 0
DWIDTH 11 0
BBX 10 16 0 0
BITMAP
3E00
3E00
0000
FFC0
40C0
4000
4000
4000
4200
7E00
4200
4000
4000
4000
40C0
FFC0
ENDCHAR
STARTCHAR emacron
ENCODING 275
SWIDTH 400 0
DWIDTH 10 0
BBX 8 12 0 0
BITMAP
7E
00
3C
3C
42
81
FF
80
80
80
42
3C
ENDCHAR
STARTCHAR Ebreve
ENCODING 276
SWIDTH 450 0
DWIDTH 11 0
BBX 10 17 0 0
BITMAP
4100
3E00
3E00
0000
FFC0
40C0
4000
4000
4000
4200
7E00
4200
4000
4000
4000
40C0
FFC0
ENDCHAR
STARTCHAR ebreve
ENCODING 277
SWIDTH 400 0
DWIDTH 10 0
BBX 8 13 0 0
BITMAP
42
3C
00
3C
3C
42
81
FF
80
80
80
42
3C
ENDCHAR
STARTCHAR Edotaccent
ENCODING 278
SWIDTH 450 0
DWIDTH 11 0
BBX 10 16 0 0
BITMAP
0C00
0C00
0000
FFC0
40C0
4000
4000
4000
4200
7E00
4200
4000
4000
4000
40C0
FFC0
ENDCHAR
STARTCHAR edotaccent
ENCODING 279
SWIDTH 400 0
DWIDTH 10 0
BBX 8 12 0 0
BITMAP
38
00
3C
3C
42
81
FF
80
80
80
42
3C
ENDCHAR
STARTCHAR Eogonek
ENCODING 280
SWIDTH 450 0
DWIDTH 11 0
BBX 10 18 0 -5
BITMAP
FFC0
40C0
4000
4000
4000
4200
7E00
4200
4000
4000
4000
40C0
FFC0
0400
0800
0A00
0A00
0400
ENDCHAR
STARTCHAR eogonek
ENCODING 281
SWIDTH 400 0
DWIDTH 10 0
BBX 8 15 0 -5
BITMAP
3C
3C
42
81
FF
80
80
80
42
3C
08
30
34
34
08
ENDCHAR
STARTCHAR Ecaron
ENCODING 282
SWIDTH 450 0
DWIDTH 11 0
BBX 10 17 0 0
BITMAP
3200
0C00
0C00
0000
FFC0
40C0
4000
4000
4000
4200
7E00
4200
4000
4000
4000
40C0
FFC0
ENDCHAR
STARTCHAR ecaron
ENCODING 283
SWIDTH 400 0
DWIDTH 10 0
BBX 8 13 0 0
BITMAP
34
08
00
3C
3C
42
81
FF
80
80
80
42
3C
ENDCHAR
STARTCHAR Gcircumflex
ENCODING 284
SWIDTH 450 0
DWIDTH 11 0
BBX 10 17 0 0
BITMAP
0400
0A00
0A00
0000
0EC0
71C0
40C0
8000
8000
8000
83C0
80C0
80C0
40C0
40C0
71C0
0EC0
ENDCHAR
STARTCHAR gcircumflex
ENCODING 285
SWIDTH 450 0
DWIDTH 11 0
BBX 10 18 0 -5
BITMAP
0800
3400
0000
3DC0
3DC0
4300
8100
8100
8100
8100
8100
4300
3D00
0100
0100
0200
0200
3C00
ENDCHAR
STARTCHAR Gbreve
ENCODING 286
SWIDTH 450 0
DWIDTH 11 0
BBX 10 17 0 0
BITMAP
3100
0E00
0E00
0000
0EC0
71C0
40C0
8000
8000
8000
83C0
80C0
80C0
40C0
40C0
71C0
0EC0
ENDCHAR
STARTCHAR gbreve
ENCODING 287
SWIDTH 450 0
DWIDTH 11 0
BBX 10 18 0 -5
BITMAP
4200
3C00
0000
3DC0
3DC0
4300
8100
8100
8100
8100
8100
4300
3D00
0100
0100
0200
0200
3C00
ENDCHAR
STARTCHAR Gdotaccent
ENCODING 288
SWIDTH 450 0
DWIDTH 11 0
BBX 10 16 0 0
BITMAP
0C00
0C00
0000
0EC0
71C0
40C0
8000
8000
8000
83C0
80C0
80C0
40C0
40C0
71C0
0EC0
ENDCHAR
STARTCHAR gdotaccent
ENCODING 289
SWIDTH 450 0
DWIDTH 11 0
BBX 10 17 0 -5
BITMAP
3800
0000
3DC0
3DC0
4300
8100
8100
8100
8100
8100
4300
3D00
0100
0100
0200
0200
3C00
ENDCHAR
STARTCHAR Gcommaaccent
ENCODING 290
SWIDTH 450 0
DWIDTH 11 0
BBX 10 18 0 -5
BITMAP
0EC0
71C0
40C0
8000
8000
8000
83C0
80C0
80C0
40C0
40C0
71C0
0EC0
0000
0400
0400
0400
0800
ENDCHAR
STARTCHAR gcommaaccent
ENCODING 291
SWIDTH 450 0
DWIDTH 11 0
BBX 10 19 0 -5
BITMAP
0400
0800
0800
0000
3DC0
3DC0
4300
8100
8100
8100
8100
8100
4300
3D00
0100
0100
0200
0200
3C00
ENDCHAR
STARTCHAR Hcircumflex
ENCODING 292
SWIDTH 500 0
DWIDTH 12 0
BBX 11 17 0 0
BITMAP
0A00
0400
0400
0000
F1E0
40C0
40C0
40C0
40C0
40C0
7FC0
40C0
40C0
40C0
40C0
40C0
F1E0
ENDCHAR
STARTCHAR hcircumflex
ENCODING 293
SWIDTH 450 0
DWIDTH 11 0
BBX 10 17 0 0
BITMAP
3400
0800
0800
C000
4000
4000
4000
4C00
4C00
7200
4100
4100
4100
4100
4100
4100
F3C0
ENDCHAR
STARTCHAR Hbar
ENCODING 294
SWIDTH 500 0
DWIDTH 12 0
BBX 11 13 0 0
BITMAP
F1E0
40C0
FFE0
40C0
40C0
40C0
7FC0
40C0
40C0
40C0
40C0
40C0
F1E0
ENDCHAR
STARTCHAR hbar
ENCODING 295
SWIDTH 450 0
DWIDTH 11 0
BBX 10 14 0 0
BITMAP
C000
4000
F000
4000
4C00
4C00
7200
4100
4100
4100
4100
4100
4100
F3C0
ENDCHAR
STARTCHAR Itilde
ENCODING 296
SWIDTH 200 0
DWIDTH 5 0
BBX 6 17 -1 0
BITMAP
64
B8
B8
00
78
20
20
20
20
20
20
20
20
20
20
20
78
ENDCHAR
STARTCHAR itilde
ENCODING 297
SWIDTH 200 0
DWIDTH 5 0
BBX 6 14 -1 0
BITMAP
64
B8
00
00
60
60
20
20
20
20
20
20
20
78
ENDCHAR
STARTCHAR Imacron
ENCODING 298
SWIDTH 200 0
DWIDTH 5 0
BBX 6 16 -1 0
BITMAP
FC
FC
00
78
20
20
20
20
20
20
20
20
20
20
20
78
ENDCHAR
STARTCHAR imacron
ENCODING 299
SWIDTH 200 0
DWIDTH 5 0
BBX 6 13 -1 0
BITMAP
FC
00
00
60
60
20
20
20
20
20
20
20
78
ENDCHAR
STARTCHAR Ibreve
ENCODING 300
SWIDTH 200 0
DWIDTH 5 0
BBX 6 17 -1 0
BITMAP
84
78
78
00
78
20
20
20
20
20
20
20
20
20
20
20
78
ENDCHAR
STARTCHAR ibreve
ENCODING 301
SWIDTH 200 0
DWIDTH 5 0
BBX 6 14 -1 0
BITMAP
84
78
00
00
60
60
20
20
20
20
20
20
20
78
ENDCHAR
STARTCHAR Iogonek
ENCODING 302
SWIDTH 200 0
DWIDTH 5 0
BBX 4 18 0 -5
BITMAP
F0
40
40
40
40
40
40
40
40
40
40
40
F0
40
80
B0
B0
40
ENDCHAR
STARTCHAR iogonek
ENCODING 303
SWIDTH 200 0
DWIDTH 5 0
BBX 4 19 0 -5
BITMAP
40
40
00
00
C0
C0
40
40
40
40
40
40
40
F0
40
80
B0
B0
40
ENDCHAR
STARTCHAR Idotaccent
ENCODING 304
SWIDTH 200 0
DWIDTH 5 0
BBX 4 16 0 0
BITMAP
C0
C0
00
F0
40
40
40
40
40
40
40
40
40
40
40
F0
ENDCHAR
STARTCHAR dotlessi
ENCODING 305
SWIDTH 200 0
DWIDTH 5 0
BBX 4 10 0 0
BITMAP
C0
C0
40
40
40
40
40
40
40
F0
ENDCHAR
STARTCHAR IJ
ENCODING 306
SWIDTH 500 0
DWIDTH 12 0
BBX 11 13 0 0
BITMAP
F1E0
40C0
40C0
40C0
40C0
40C0
40C0
40C0
40C0
40C0
40C0
4100
F600
ENDCHAR
STARTCHAR ij
ENCODING 307
SWIDTH 350 0
DWIDTH 8 0
BBX 7 19 0 -5
BITMAP
42
42
00
00
C6
C6
42
42
42
42
42
42
42
F2
02
02
04
04
38
ENDCHAR
STARTCHAR Jcircumflex
ENCODING 308
SWIDTH 450 0
DWIDTH 11 0
BBX 10 17 0 0
BITMAP
0100
02C0
02C0
0000
03C0
0100
0100
0100
0100
0100
0100
0100
0100
8200
8200
C600
3800
ENDCHAR
STARTCHAR jcircumflex
ENCODING 309
SWIDTH 150 0
DWIDTH 4 0
BBX 6 19 -2 -5
BITMAP
10
2C
00
00
30
30
10
10
10
10
10
10
10
10
10
10
20
20
C0
ENDCHAR
STARTCHAR Kcommaaccent
ENCODING 310
SWIDTH 450 0
DWIDTH 11 0
BBX 10 18 0 -5
BITMAP
F3C0
4100
4200
4400
4400
4800
7400
4200
4200
4100
4100
4100
F3C0
0000
0800
0800
0800
3000
ENDCHAR
STARTCHAR kcommaaccent
ENCODING 311
SWIDTH 450 0
DWIDTH 11 0
BBX 10 19 0 -5
BITMAP
C000
4000
4000
4000
4700
4700
4200
4400
4800
7400
4200
4200
4100
F3C0
0000
0800
0800
0800
3000
ENDCHAR
STARTCHAR kgreenlandic
ENCODING 312
SWIDTH 450 0
DWIDTH 11 0
BBX 10 10 0 0
BITMAP
C700
C700
4200
4400
4800
7400
4200
4200
4100
F3C0
ENDCHAR
STARTCHAR Lacute
ENCODING 313
SWIDTH 450 0
DWIDTH 11 0
BBX 10 17 0 0
BITMAP
3000
4000
4000
0000
F000
4000
4000
4000
4000
4000
4000
4000
4000
4000
4000
40C0
FFC0
ENDCHAR
STARTCHAR lacute
ENCODING 314
SWIDTH 200 0
DWIDTH 5 0
BBX 4 18 0 0
BITMAP
30
40
00
00
C0
40
40
40
40
40
40
40
40
40
40
40
40
F0
ENDCHAR
STARTCHAR Lcommaaccent
ENCODING 315
SWIDTH 450 0
DWIDTH 11 0
BBX 10 18 0 -5
BITMAP
F000
4000
4000
4000
4000
4000
4000
4000
4000
4000
4000
40C0
FFC0
0000
0800
0800
0800
3000
ENDCHAR
STARTCHAR lcommaaccent
ENCODING 316
SWIDTH 200 0
DWIDTH 5 0
BBX 4 19 0 -5
BITMAP
C0
40
40
40
40
40
40
40
40
40
40
40
40
F0
00
40
40
40
80
ENDCHAR
STARTCHAR Lcaron
ENCODING 317
SWIDTH 450 0
DWIDTH 11 0
BBX 10 17 0 0
BITMAP
B000
4000
4000
0000
F000
4000
4000
4000
4000
4000
4000
4000
4000
4000
4000
40C0
FFC0
ENDCHAR
STARTCHAR lcaron
ENCODING 318
SWIDTH 200 0
DWIDTH 5 0
BBX 6 14 0 0
BITMAP
CC
4C
44
48
40
40
40
40
40
40
40
40
40
F0
ENDCHAR
STARTCHAR Ldot
ENCODING 319
SWIDTH 450 0
DWIDTH 11 0
BBX 10 13 0 0
BITMAP
F000
4000
4000
4000
4000
4000
4C00
4000
4000
4000
4000
40C0
FFC0
ENDCHAR
STARTCHAR ldot
ENCODING 320
SWIDTH 200 0
DWIDTH 5 0
BBX 6 14 0 0
BITMAP
C0
40
40
40
40
40
40
4C
40
40
40
40
40
F0
ENDCHAR
STARTCHAR Lslash
ENCODING 321
SWIDTH 450 0
DWIDTH 11 0
BBX 10 13 0 0
BITMAP
F000
4000
4000
4000
4000
7000
C000
4000
4000
4000
4000
40C0
FFC0
ENDCHAR
STARTCHAR lslash
ENCODING 322
SWIDTH 200 0
DWIDTH 5 0
BBX 4 14 0 0
BITMAP
C0
40
40
40
40
40
70
C0
40
40
40
40
40
F0
ENDCHAR
STARTCHAR Nacute
ENCODING 323
SWIDTH 500 0
DWIDTH 12 0
BBX 11 17 0 0
BITMAP
0200
0400
0400
0000
C1E0
70C0
70C0
48C0
48C0
48C0
44C0
44C0
42C0
42C0
42C0
41C0
F0C0
ENDCHAR
STARTCHAR nacute
ENCODING 324
SWIDTH 450 0
DWIDTH 11 0
BBX 10 13 0 0
BITMAP
0400
0800
0000
CC00
CC00
7200
4100
4100
4100
4100
4100
4100
F3C0
ENDCHAR
STARTCHAR Ncommaaccent
ENCODING 325
SWIDTH 500 0
DWIDTH 12 0
BBX 11 18 0 -5
BITMAP
C1E0
70C0
70C0
48C0
48C0
48C0
44C0
44C0
42C0
42C0
42C0
41C0
F0C0
0000
0400
0400
0400
0800
ENDCHAR
STARTCHAR ncommaaccent
ENCODING 326
SWIDTH 450 0
DWIDTH 11 0
BBX 10 15 0 -5
BITMAP
CC00
CC00
7200
4100
4100
4100
4100
4100
4100
F3C0
0000
0400
0400
0400
0800
ENDCHAR
STARTCHAR Ncaron
ENCODING 327
SWIDTH 500 0
DWIDTH 12 0
BBX 11 17 0 0
BITMAP
0A00
0400
0400
0000
C1E0
70C0
70C0
48C0
48C0
48C0
44C0
44C0
42C0
42C0
42C0
41C0
F0C0
ENDCHAR
STARTCHAR ncaron
ENCODING 328
SWIDTH 450 0
DWIDTH 11 0
BBX 10 13 0 0
BITMAP
3200
0C00
0000
CC00
CC00
7200
4100
4100
4100
4100
4100
4100
F3C0
ENDCHAR
STARTCHAR napostrophe
ENCODING 329
SWIDTH 450 0
DWIDTH 11 0
BBX 12 16 -2 0
BITMAP
C000
C000
C000
4000
8000
0000
3300
3300
1C80
1040
1040
1040
1040
1040
1040
3CF0
ENDCHAR
STARTCHAR Eng
ENCODING 330
SWIDTH 500 0
DWIDTH 12 0
BBX 11 18 0 -5
BITMAP
C1E0
70C0
70C0
48C0
48C0
48C0
44C0
44C0
42C0
42C0
42C0
41C0
F0C0
00C0
00C0
0100
0100
0E00
ENDCHAR
STARTCHAR eng
ENCODING 331
SWIDTH 450 0
DWIDTH 11 0
BBX 8 15 0 -5
BITMAP
CC
CC
72
41
41
41
41
41
41
F1
01
01
02
02
3C
ENDCHAR
STARTCHAR Omacron
ENCODING 332
SWIDTH 500 0
DWIDTH 12 0
BBX 11 16 0 0
BITMAP
3F00
3F00
0000
0E00
71C0
40C0
8020
8020
8020
8020
8020
8020
40C0
40C0
71C0
0E00
ENDCHAR
STARTCHAR omacron
ENCODING 333
SWIDTH 400 0
DWIDTH 10 0
BBX 8 12 0 0
BITMAP
7E
00
3C
3C
42
81
81
81
81
81
42
3C
ENDCHAR
STARTCHAR Obreve
ENCODING 334
SWIDTH 500 0
DWIDTH 12 0
BBX 11 17 0 0
BITMAP
3100
0E00
0E00
0000
0E00
71C0
40C0
8020
8020
8020
8020
8020
8020
40C0
40C0
71C0
0E00
ENDCHAR
STARTCHAR obreve
ENCODING 335
SWIDTH 400 0
DWIDTH 10 0
BBX 8 13 0 0
BITMAP
42
3C
00
3C
3C
42
81
81
81
81
81
42
3C
ENDCHAR
STARTCHAR Ohungarumlaut
ENCODING 336
SWIDTH 500 0
DWIDTH 12 0
BBX 11 17 0 0
BITMAP
0500
0A00
0A00
0000
0E00
71C0
40C0
8020
8020
8020
8020
8020
8020
40C0
40C0
71C0
0E00
ENDCHAR
STARTCHAR ohungarumlaut
ENCODING 337
SWIDTH 400 0
DWIDTH 10 0
BBX 8 13 0 0
BITMAP
0A
34
00
3C
3C
42
81
81
81
81
81
42
3C
ENDCHAR
STARTCHAR OE
ENCODING 338
SWIDTH 650 0
DWIDTH 16 0
BBX 14 13 0 0
BITMAP
0FFC
7204
4200
8200
8200
8210
83F0
8210
8200
4200
4200
7204
0FFC
ENDCHAR
STARTCHAR oe
ENCODING 339
SWIDTH 700 0
DWIDTH 17 0
BBX 16 10 0 0
BITMAP
3C38
3C38
42C4
8103
81FF
8100
8100
8100
42C4
3C38
ENDCHAR
STARTCHAR Racute
ENCODING 340
SWIDTH 450 0
DWIDTH 11 0
BBX 10 17 0 0
BITMAP
0400
0800
0800
0000
FE00
4100
40C0
40C0
40C0
4100
7E00
4400
4200
4100
4100
4100
F0C0
ENDCHAR
STARTCHAR racute
ENCODING 341
SWIDTH 400 0
DWIDTH 10 0
BBX 8 13 0 0
BITMAP
04
08
00
CE
CE
71
40
40
40
40
40
40
F0
ENDCHAR
STARTCHAR Rcommaaccent
ENCODING 342
SWIDTH 450 0
DWIDTH 11 0
BBX 10 18 0 -5
BITMAP
FE00
4100
40C0
40C0
40C0
4100
7E00
4400
4200
4100
4100
4100
F0C0
0000
0400
0400
0400
0800
ENDCHAR
STARTCHAR rcommaaccent
ENCODING 343
SWIDTH 400 0
DWIDTH 10 0
BBX 8 15 0 -5
BITMAP
CE
CE
71
40
40
40
40
40
40
F0
00
08
08
08
30
ENDCHAR
STARTCHAR Rcaron
ENCODING 344
SWIDTH 450 0
DWIDTH 11 0
BBX 10 17 0 0
BITMAP
3400
0800
0800
0000
FE00
4100
40C0
40C0
40C0
4100
7E00
4400
4200
4100
4100
4100
F0C0
ENDCHAR
STARTCHAR rcaron
ENCODING 345
SWIDTH 400 0
DWIDTH 10 0
BBX 8 13 0 0
BITMAP
34
08
00
CE
CE
71
40
40
40
40
40
40
F0
ENDCHAR
STARTCHAR Sacute
ENCODING 346
SWIDTH 400 0
DWIDTH 10 0
BBX 8 17 0 0
BITMAP
04
08
08
00
3D
43
81
80
80
40
3C
02
01
81
81
C2
BC
ENDCHAR
STARTCHAR sacute
ENCODING 347
SWIDTH 350 0
DWIDTH 8 0
BBX 7 13 0 0
BITMAP
08
30
00
7A
7A
86
82
70
0C
82
82
C2
BC
ENDCHAR
STARTCHAR Scircumflex
ENCODING 348
SWIDTH 400 0
DWIDTH 10 0
BBX 8 17 0 0
BITMAP
08
34
34
00
3D
43
81
80
80
40
3C
02
01
81
81
C2
BC
ENDCHAR
STARTCHAR scircumflex
ENCODING 349
SWIDTH 350 0
DWIDTH 8 0
BBX 7 13 0 0
BITMAP
38
44
00
7A
7A
86
82
70
0C
82
82
C2
BC
ENDCHAR
STARTCHAR Scedilla
ENCODING 350
SWIDTH 400 0
DWIDTH 10 0
BBX 8 18 0 -5
BITMAP
3D
43
81
80
80
40
3C
02
01
81
81
C2
BC
08
04
34
34
08
ENDCHAR
STARTCHAR scedilla
ENCODING 351
SWIDTH 350 0
DWIDTH 8 0
BBX 7 15 0 -5
BITMAP
7A
7A
86
82
70
0C
82
82
C2
BC
08
04
34
34
08
ENDCHAR
STARTCHAR Scaron
ENCODING 352
SWIDTH 400 0
DWIDTH 10 0
BBX 8 17 0 0
BITMAP
34
08
08
00
3D
43
81
80
80
40
3C
02
01
81
81
C2
BC
ENDCHAR
STARTCHAR scaron
ENCODING 353
SWIDTH 350 0
DWIDTH 8 0
BBX 7 13 0 0
BITMAP
44
38
00
7A
7A
86
82
70
0C
82
82
C2
BC
ENDCHAR
STARTCHAR Tcommaaccent
ENCODING 354
SWIDTH 400 0
DWIDTH 10 0
BBX 8 18 0 -5
BITMAP
FF
89
08
08
08
08
08
08
08
08
08
08
3C
08
04
34
34
08
ENDCHAR
STARTCHAR tcommaaccent
ENCODING 355
SWIDTH 200 0
DWIDTH 5 0
BBX 5 19 0 -5
BITMAP
40
40
40
40
F0
F0
40
40
40
40
40
40
40
38
30
08
48
48
30
ENDCHAR
STARTCHAR Tcaron
ENCODING 356
SWIDTH 400 0
DWIDTH 10 0
BBX 8 17 0 0
BITMAP
34
08
08
00
FF
89
08
08
08
08
08
08
08
08
08
08
3C
ENDCHAR
STARTCHAR tcaron
ENCODING 357
SWIDTH 200 0
DWIDTH 5 0
BBX 6 14 0 0
BITMAP
4C
4C
44
48
F0
F0
40
40
40
40
40
40
40
38
ENDCHAR
STARTCHAR Tbar
ENCODING 358
SWIDTH 400 0
DWIDTH 10 0
BBX 8 13 0 0
BITMAP
FF
89
08
08
08
08
7E
08
08
08
08
08
3C
ENDCHAR
STARTCHAR tbar
ENCODING 359
SWIDTH 200 0
DWIDTH 5 0
BBX 5 14 0 0
BITMAP
40
40
40
40
F0
F0
40
40
F0
40
40
40
40
38
ENDCHAR
STARTCHAR Utilde
ENCODING 360
SWIDTH 550 0
DWIDTH 13 0
BBX 12 17 0 0
BITMAP
0CC0
3300
3300
0000
F0F0
4020
4020
4020
4020
4020
4020
4020
4020
30C0
30C0
39C0
0600
ENDCHAR
STARTCHAR utilde
ENCODING 361
SWIDTH 450 0
DWIDTH 11 0
BBX 10 13 0 0
BITMAP
3900
4600
0000
C300
C300
4100
4100
4100
4100
4100
4100
3300
0DC0
ENDCHAR
STARTCHAR Umacron
ENCODING 362
SWIDTH 550 0
DWIDTH 13 0
BBX 12 16 0 0
BITMAP
3FC0
3FC0
0000
F0F0
4020
4020
4020
4020
4020
4020
4020
4020
30C0
30C0
39C0
0600
ENDCHAR
STARTCHAR umacron
ENCODING 363
SWIDTH 450 0
DWIDTH 11 0
BBX 10 12 0 0
BITMAP
7E00
0000
C300
C300
4100
4100
4100
4100
4100
4100
3300
0DC0
ENDCHAR
STARTCHAR Ubreve
ENCODING 364
SWIDTH 550 0
DWIDTH 13 0
BBX 12 17 0 0
BITMAP
30C0
0F00
0F00
0000
F0F0
4020
4020
4020
4020
4020
4020
4020
4020
30C0
30C0
39C0
0600
ENDCHAR
STARTCHAR ubreve
ENCODING 365
SWIDTH 450 0
DWIDTH 11 0
BBX 10 13 0 0
BITMAP
4200
3C00
0000
C300
C300
4100
4100
4100
4100
4100
4100
3300
0DC0
ENDCHAR
STARTCHAR Uring
ENCODING 366
SWIDTH 550 0
DWIDTH 13 0
BBX 12 17 0 0
BITMAP
0600
0900
0900
0600
F0F0
4020
4020
4020
4020
4020
4020
4020
4020
30C0
30C0
39C0
0600
ENDCHAR
STARTCHAR uring
ENCODING 367
SWIDTH 450 0
DWIDTH 11 0
BBX 10 14 0 0
BITMAP
3C00
4200
3C00
0000
C300
C300
4100
4100
4100
4100
4100
4100
3300
0DC0
ENDCHAR
STARTCHAR Uhungarumlaut
ENCODING 368
SWIDTH 550 0
DWIDTH 13 0
BBX 12 17 0 0
BITMAP
0500
0A00
0A00
0000
F0F0
4020
4020
4020
4020
4020
4020
4020
4020
30C0
30C0
39C0
0600
ENDCHAR
STARTCHAR uhungarumlaut
ENCODING 369
SWIDTH 450 0
DWIDTH 11 0
BBX 10 13 0 0
BITMAP
0A00
3400
0000
C300
C300
4100
4100
4100
4100
4100
4100
3300
0DC0
ENDCHAR
STARTCHAR Uogonek
ENCODING 370
SWIDTH 550 0
DWIDTH 13 0
BBX 12 18 0 -5
BITMAP
F0F0
4020
4020
4020
4020
4020
4020
4020
4020
30C0
30C0
39C0
0600
0200
0400
0500
0500
0200
ENDCHAR
STARTCHAR uogonek
ENCODING 371
SWIDTH 450 0
DWIDTH 11 0
BBX 10 15 0 -5
BITMAP
C300
C300
4100
4100
4100
4100
4100
4100
3300
0DC0
0400
0800
0A00
0A00
0400
ENDCHAR
STARTCHAR Wcircumflex
ENCODING 372
SWIDTH 700 0
DWIDTH 17 0
BBX 16 17 0 0
BITMAP
0100
02C0
02C0
0000
F00F
4004
4004
3108
3108
3108
3108
0AD0
0AD0
0AD0
0AD0
0420
0420
ENDCHAR
STARTCHAR wcircumflex
ENCODING 373
SWIDTH 500 0
DWIDTH 12 0
BBX 11 13 0 0
BITMAP
0400
0A00
0000
F1E0
F1E0
40C0
40C0
3500
3500
3500
3500
0A00
0A00
ENDCHAR
STARTCHAR Ycircumflex
ENCODING 374
SWIDTH 500 0
DWIDTH 12 0
BBX 11 17 0 0
BITMAP
0400
0A00
0A00
0000
F1E0
40C0
3100
3100
3100
0A00
0400
0400
0400
0400
0400
0400
0E00
ENDCHAR
STARTCHAR ycircumflex
ENCODING 375
SWIDTH 400 0
DWIDTH 10 0
BBX 8 18 0 -5
BITMAP
08
34
00
F7
F7
42
42
34
34
34
34
08
08
30
30
40
40
80
ENDCHAR
STARTCHAR Ydieresis
ENCODING 376
SWIDTH 500 0
DWIDTH 12 0
BBX 11 16 0 0
BITMAP
3B00
3B00
0000
F1E0
40C0
3100
3100
3100
0A00
0400
0400
0400
0400
0400
0400
0E00
ENDCHAR
STARTCHAR Zacute
ENCODING 377
SWIDTH 400 0
DWIDTH 10 0
BBX 8 17 0 0
BITMAP
04
08
08
00
FF
81
02
04
04
04
08
30
30
40
40
81
FF
ENDCHAR
STARTCHAR zacute
ENCODING 378
SWIDTH 350 0
DWIDTH 8 0
BBX 7 13 0 0
BITMAP
08
30
00
FE
FE
82
04
08
30
40
40
82
FE
ENDCHAR
STARTCHAR Zdotaccent
ENCODING 379
SWIDTH 400 0
DWIDTH 10 0
BBX 8 16 0 0
BITMAP
0C
0C
00
FF
81
02
04
04
04
08
30
30
40
40
81
FF
ENDCHAR
STARTCHAR zdotaccent
ENCODING 380
SWIDTH 350 0
DWIDTH 8 0
BBX 7 12 0 0
BITMAP
38
00
FE
FE
82
04
08
30
40
40
82
FE
ENDCHAR
STARTCHAR Zcaron
ENCODING 381
SWIDTH 400 0
DWIDTH 10 0
BBX 8 17 0 0
BITMAP
34
08
08
00
FF
81
02
04
04
04
08
30
30
40
40
81
FF
ENDCHAR
STARTCHAR zcaron
ENCODING 382
SWIDTH 350 0
DWIDTH 8 0
BBX 7 13 0 0
BITMAP
44
38
00
FE
FE
82
04
08
30
40
40
82
FE
ENDCHAR
STARTCHAR longs
ENCODING 383
SWIDTH 200 0
DWIDTH 5 0
BBX 6 14 0 0
BITMAP
0C
30
40
40
C0
C0
40
40
40
40
40
40
40
F0
ENDCHAR
STARTCHAR florin
ENCODING 402
SWIDTH 200 0
DWIDTH 5 0
BBX 10 19 -4 -5
BITMAP
00C0
0300
0400
0400
0F00
0F00
0400
0400
0400
0400
0400
0400
0400
0400
0800
0800
1000
1000
E000
ENDCHAR
STARTCHAR uni0237
ENCODING 567
SWIDTH 150 0
DWIDTH 4 0
BBX 4 15 -2 -5
BITMAP
30
30
10
10
10
10
10
10
10
10
10
10
20
20
C0
ENDCHAR
STARTCHAR uni0250
ENCODING 592
SWIDTH 400 0
DWIDTH 10 0
BBX 8 10 0 0
BITMAP
CE
CE
71
41
42
7C
40
40
42
3C
ENDCHAR
STARTCHAR uni0251
ENCODING 593
SWIDTH 400 0
DWIDTH 10 0
BBX 8 10 0 0
BITMAP
3E
3E
42
82
82
82
82
82
86
7B
ENDCHAR
STARTCHAR uni0252
ENCODING 594
SWIDTH 400 0
DWIDTH 10 0
BBX 8 10 0 0
BITMAP
CE
CE
71
41
41
41
41
41
42
7C
ENDCHAR
STARTCHAR uni0253
ENCODING 595
SWIDTH 450 0
DWIDTH 11 0
BBX 10 14 0 0
BITMAP
0E00
3000
4000
4000
4E00
4E00
7100
40C0
40C0
40C0
40C0
40C0
7100
CE00
ENDCHAR
STARTCHAR uni0254
ENCODING 596
SWIDTH 400 0
DWIDTH 10 0
BBX 8 10 0 0
BITMAP
BC
BC
C2
81
01
01
81
81
42
3C
ENDCHAR
STARTCHAR uni0255
ENCODING 597
SWIDTH 400 0
DWIDTH 10 0
BBX 8 12 0 -2
BITMAP
3D
3D
43
81
80
80
82
82
45
3E
08
30
ENDCHAR
STARTCHAR uni0256
ENCODING 598
SWIDTH 450 0
DWIDTH 11 0
BBX 12 19 0 -5
BITMAP
0300
0100
0100
0100
3D00
3D00
4300
8100
8100
8100
8100
8100
4300
3D00
0100
0100
00C0
00C0
0030
ENDCHAR
STARTCHAR uni0257
ENCODING 599
SWIDTH 450 0
DWIDTH 11 0
BBX 12 14 0 0
BITMAP
0030
00C0
0100
0100
3D00
3D00
4300
8100
8100
8100
8100
8100
4300
3DC0
ENDCHAR
STARTCHAR uni0258
ENCODING 600
SWIDTH 400 0
DWIDTH 10 0
BBX 8 10 0 0
BITMAP
3C
3C
42
81
FF
01
01
01
42
3C
ENDCHAR
STARTCHAR uni0259
ENCODING 601
SWIDTH 400 0
DWIDTH 10 0
BBX 8 10 0 0
BITMAP
3C
3C
42
01
01
FF
81
81
42
3C
ENDCHAR
STARTCHAR uni025A
ENCODING 602
SWIDTH 550 0
DWIDTH 13 0
BBX 12 10 0 0
BITMAP
3C00
3C00
4200
0100
0120
FFE0
8120
8120
4210
3C00
ENDCHAR
STARTCHAR uni025B
ENCODING 603
SWIDTH 350 0
DWIDTH 8 0
BBX 7 10 0 0
BITMAP
7C
7C
82
80
7C
80
80
80
82
7C
ENDCHAR
STARTCHAR uni025C
ENCODING 604
SWIDTH 350 0
DWIDTH 8 0
BBX 7 10 0 0
BITMAP
7C
7C
82
02
7C
02
02
02
82
7C
ENDCHAR
STARTCHAR uni025D
ENCODING 605
SWIDTH 500 0
DWIDTH 12 0
BBX 11 10 0 0
BITMAP
7C00
7C00
82C0
03C0
7CC0
0220
0200
0200
8200
7C00
ENDCHAR
STARTCHAR uni025E
ENCODING 606
SWIDTH 450 0
DWIDTH 11 0
BBX 10 10 0 0
BITMAP
0F00
0F00
30C0
40C0
8F00
80C0
40C0
40C0
30C0
0F00
ENDCHAR
STARTCHAR uni025F
ENCODING 607
SWIDTH 200 0
DWIDTH 5 0
BBX 6 15 -2 -5
BITMAP
3C
3C
10
10
10
10
10
10
10
3C
10
10
20
20
C0
ENDCHAR
STARTCHAR uni0260
ENCODING 608
SWIDTH 450 0
DWIDTH 11 0
BBX 12 19 0 -5
BITMAP
0030
00C0
0100
0100
3D00
3D00
4300
8100
8100
8100
8100
8100
4300
3D00
0100
0100
0200
0200
3C00
ENDCHAR
STARTCHAR uni0261
ENCODING 609
SWIDTH 450 0
DWIDTH 11 0
BBX 10 15 0 -5
BITMAP
0DC0
0DC0
3300
4100
81C0
8100
8300
8300
4500
3900
3100
4100
4200
4200
3C00
ENDCHAR
STARTCHAR uni0262
ENCODING 610
SWIDTH 400 0
DWIDTH 10 0
BBX 8 10 0 0
BITMAP
3D
3D
43
80
87
81
81
81
43
3D
ENDCHAR
STARTCHAR uni0263
ENCODING 611
SWIDTH 400 0
DWIDTH 10 0
BBX 8 12 0 -2
BITMAP
F7
F7
42
42
34
34
34
34
08
08
34
08
ENDCHAR
STARTCHAR uni0264
ENCODING 612
SWIDTH 400 0
DWIDTH 10 0
BBX 8 10 0 0
BITMAP
76
76
89
34
34
34
34
34
34
08
ENDCHAR
STARTCHAR uni0265
ENCODING 613
SWIDTH 450 0
DWIDTH 11 0
BBX 10 15 0 -5
BITMAP
F3C0
F3C0
4100
4100
4100
4100
4100
4100
3300
0D00
0100
0100
0100
0100
01C0
ENDCHAR
STARTCHAR uni0266
ENCODING 614
SWIDTH 450 0
DWIDTH 11 0
BBX 10 14 0 0
BITMAP
0E00
3000
4000
4000
4C00
4C00
7200
4100
4100
4100
4100
4100
4100
F3C0
ENDCHAR
STARTCHAR uni0267
ENCODING 615
SWIDTH 450 0
DWIDTH 11 0
BBX 8 19 0 -5
BITMAP
0E
30
40
40
4C
4C
72
41
41
41
41
41
41
F1
01
01
02
02
3C
ENDCHAR
STARTCHAR uni0268
ENCODING 616
SWIDTH 200 0
DWIDTH 5 0
BBX 4 14 0 0
BITMAP
40
40
00
00
C0
C0
40
40
F0
40
40
40
40
F0
ENDCHAR
STARTCHAR uni0269
ENCODING 617
SWIDTH 200 0
DWIDTH 5 0
BBX 4 10 0 0
BITMAP
C0
C0
40
40
40
40
40
40
40
70
ENDCHAR
STARTCHAR uni026A
ENCODING 618
SWIDTH 200 0
DWIDTH 5 0
BBX 4 10 0 0
BITMAP
F0
F0
40
40
40
40
40
40
40
F0
ENDCHAR
STARTCHAR uni026B
ENCODING 619
SWIDTH 200 0
DWIDTH 5 0
BBX 6 14 -1 0
BITMAP
60
20
20
20
20
20
64
B8
20
20
20
20
20
78
ENDCHAR
STARTCHAR uni026C
ENCODING 620
SWIDTH 200 0
DWIDTH 5 0
BBX 5 14 -1 0
BITMAP
60
20
20
20
20
20
60
A0
78
20
20
20
20
78
ENDCHAR
STARTCHAR uni026D
ENCODING 621
SWIDTH 200 0
DWIDTH 5 0
BBX 6 19 0 -5
BITMAP
C0
40
40
40
40
40
40
40
40
40
40
40
40
40
40
40
30
30
0C
ENDCHAR
STARTCHAR uni026E
ENCODING 622
SWIDTH 450 0
DWIDTH 11 0
BBX 10 19 0 -5
BITMAP
C000
4000
4000
4000
7FC0
7FC0
4100
4200
4400
4E00
4100
4100
40C0
F0C0
00C0
00C0
0100
0100
0E00
ENDCHAR
STARTCHAR uni026F
ENCODING 623
SWIDTH 700 0
DWIDTH 17 0
BBX 16 10 0 0
BITMAP
C30C
C30C
4104
4104
4104
4104
4104
4104
32CC
0C37
ENDCHAR
STARTCHAR uni0270
ENCODING 624
SWIDTH 700 0
DWIDTH 17 0
BBX 16 15 0 -5
BITMAP
C30C
C30C
4104
4104
4104
4104
4104
4104
32CC
0C34
0004
0004
0004
0004
0007
ENDCHAR
STARTCHAR uni0271
ENCODING 625
SWIDTH 650 0
DWIDTH 16 0
BBX 14 15 0 -5
BITMAP
CC30
CC30
72C8
4104
4104
4104
4104
4104
4104
F3C4
0004
0004
0008
0008
00F0
ENDCHAR
STARTCHAR uni0272
ENCODING 626
SWIDTH 450 0
DWIDTH 11 0
BBX 12 15 -2 -5
BITMAP
3300
3300
1C80
1040
1040
1040
1040
1040
1040
10F0
1000
1000
2000
2000
C000
ENDCHAR
STARTCHAR uni0273
ENCODING 627
SWIDTH 400 0
DWIDTH 10 0
BBX 12 15 0 -5
BITMAP
CC00
CC00
7200
4100
4100
4100
4100
4100
4100
F100
0100
0100
00C0
00C0
0030
ENDCHAR
STARTCHAR uni0274
ENCODING 628
SWIDTH 450 0
DWIDTH 11 0
BBX 10 10 0 0
BITMAP
C3C0
C3C0
7100
4900
4900
4500
4500
4500
4300
F100
ENDCHAR
STARTCHAR uni0275
ENCODING 629
SWIDTH 400 0
DWIDTH 10 0
BBX 8 10 0 0
BITMAP
3C
3C
42
81
FF
81
81
81
42
3C
ENDCHAR
STARTCHAR uni0276
ENCODING 630
SWIDTH 550 0
DWIDTH 13 0
BBX 12 10 0 0
BITMAP
3FF0
3FF0
4410
84C0
87C0
84C0
8400
8400
4410
3FF0
ENDCHAR
STARTCHAR uni0277
ENCODING 631
SWIDTH 500 0
DWIDTH 12 0
BBX 11 10 0 0
BITMAP
0E00
0E00
3100
40C0
8420
8420
8420
8420
8420
7BC0
ENDCHAR
STARTCHAR uni0278
ENCODING 632
SWIDTH 400 0
DWIDTH 10 0
BBX 8 14 0 -2
BITMAP
3C
08
3C
3C
4A
89
89
89
89
89
4A
3C
08
3C
ENDCHAR
STARTCHAR uni0279
ENCODING 633
SWIDTH 400 0
DWIDTH 10 0
BBX 8 10 0 0
BITMAP
07
07
02
02
02
02
02
02
86
7B
ENDCHAR
STARTCHAR uni027A
ENCODING 634
SWIDTH 400 0
DWIDTH 10 0
BBX 8 14 0 0
BITMAP
07
02
02
02
02
02
02
02
02
02
02
02
86
7B
ENDCHAR
STARTCHAR uni027B
ENCODING 635
SWIDTH 400 0
DWIDTH 10 0
BBX 11 15 0 -5
BITMAP
0700
0700
0200
0200
0200
0200
0200
0200
8600
7A00
0200
0200
0100
0100
00E0
ENDCHAR
STARTCHAR uni027C
ENCODING 636
SWIDTH 400 0
DWIDTH 10 0
BBX 8 15 0 -5
BITMAP
CE
CE
71
40
40
40
40
40
40
40
40
40
40
40
F0
ENDCHAR
STARTCHAR uni027D
ENCODING 637
SWIDTH 400 0
DWIDTH 10 0
BBX 8 15 0 -5
BITMAP
CE
CE
71
40
40
40
40
40
40
40
40
40
30
30
0C
ENDCHAR
STARTCHAR uni027E
ENCODING 638
SWIDTH 400 0
DWIDTH 10 0
BBX 8 10 0 0
BITMAP
0E
0E
31
40
40
40
40
40
40
F0
ENDCHAR
STARTCHAR uni027F
ENCODING 639
SWIDTH 400 0
DWIDTH 10 0
BBX 8 10 0 0
BITMAP
78
78
84
02
02
02
02
02
02
07
ENDCHAR
STARTCHAR uni0280
ENCODING 640
SWIDTH 400 0
DWIDTH 10 0
BBX 8 10 0 0
BITMAP
FE
FE
41
41
41
7E
48
48
44
F3
ENDCHAR
STARTCHAR uni0281
ENCODING 641
SWIDTH 400 0
DWIDTH 10 0
BBX 8 10 0 0
BITMAP
F3
F3
44
48
7E
41
41
41
41
FE
ENDCHAR
STARTCHAR uni0282
ENCODING 642
SWIDTH 350 0
DWIDTH 8 0
BBX 7 15 0 -5
BITMAP
7A
7A
86
82
70
0C
82
82
C2
BC
80
80
40
40
3C
ENDCHAR
STARTCHAR uni0283
ENCODING 643
SWIDTH 200 0
DWIDTH 5 0
BBX 8 19 -2 -5
BITMAP
03
0C
10
10
10
10
10
10
10
10
10
10
10
10
10
10
20
20
C0
ENDCHAR
STARTCHAR uni0284
ENCODING 644
SWIDTH 200 0
DWIDTH 5 0
BBX 8 19 -2 -5
BITMAP
03
0C
10
10
10
10
10
10
10
10
10
10
10
3C
10
10
20
20
C0
ENDCHAR
STARTCHAR uni0285
ENCODING 645
SWIDTH 300 0
DWIDTH 7 0
BBX 8 14 -2 0
BITMAP
C0
20
10
10
10
10
10
10
10
10
10
10
0C
03
ENDCHAR
STARTCHAR uni0286
ENCODING 646
SWIDTH 200 0
DWIDTH 5 0
BBX 10 20 -4 -6
BITMAP
00C0
0300
0400
0400
0400
0400
0400
0400
0400
0400
0400
0400
0400
0400
0400
3400
C800
C800
3400
0300
ENDCHAR
STARTCHAR uni0287
ENCODING 647
SWIDTH 200 0
DWIDTH 5 0
BBX 5 15 -1 -5
BITMAP
C0
C0
20
20
20
20
20
20
20
78
20
20
20
20
20
ENDCHAR
STARTCHAR uni0288
ENCODING 648
SWIDTH 200 0
DWIDTH 5 0
BBX 6 19 0 -5
BITMAP
40
40
40
40
F0
F0
40
40
40
40
40
40
40
40
40
40
30
30
0C
ENDCHAR
STARTCHAR uni0289
ENCODING 649
SWIDTH 450 0
DWIDTH 11 0
BBX 10 10 0 0
BITMAP
C300
C300
4100
4100
FFC0
4100
4100
4100
3300
0DC0
ENDCHAR
STARTCHAR uni028A
ENCODING 650
SWIDTH 450 0
DWIDTH 11 0
BBX 10 10 0 0
BITMAP
F3C0
F3C0
3200
3200
4100
4100
4100
4100
3200
0C00
ENDCHAR
STARTCHAR uni028B
ENCODING 651
SWIDTH 400 0
DWIDTH 10 0
BBX 8 10 0 0
BITMAP
C4
C4
42
41
41
41
41
41
32
0C
ENDCHAR
STARTCHAR uni028C
ENCODING 652
SWIDTH 400 0
DWIDTH 10 0
BBX 8 10 0 0
BITMAP
08
08
08
34
34
34
42
42
42
F7
ENDCHAR
STARTCHAR uni028D
ENCODING 653
SWIDTH 500 0
DWIDTH 12 0
BBX 11 10 0 0
BITMAP
0A00
0A00
0A00
3500
3500
3500
40C0
40C0
40C0
F1E0
ENDCHAR
STARTCHAR uni028E
ENCODING 654
SWIDTH 400 0
DWIDTH 10 0
BBX 8 14 0 0
BITMAP
01
02
04
04
08
08
08
34
34
34
42
42
42
F7
ENDCHAR
STARTCHAR uni028F
ENCODING 655
SWIDTH 400 0
DWIDTH 10 0
BBX 8 10 0 0
BITMAP
F7
F7
42
34
34
08
08
08
08
3C
ENDCHAR
STARTCHAR uni0290
ENCODING 656
SWIDTH 350 0
DWIDTH 8 0
BBX 11 15 0 -5
BITMAP
FE00
FE00
8200
0400
0800
3000
4000
4000
8200
FE00
0200
0200
0100
0100
00E0
ENDCHAR
STARTCHAR uni0291
ENCODING 657
SWIDTH 350 0
DWIDTH 8 0
BBX 7 12 0 -2
BITMAP
FE
FE
82
04
08
30
44
44
8A
FC
30
40
ENDCHAR
STARTCHAR uni0292
ENCODING 658
SWIDTH 350 0
DWIDTH 8 0
BBX 7 15 0 -5
BITMAP
FE
FE
82
04
08
30
78
78
04
02
02
02
84
84
78
ENDCHAR
STARTCHAR uni0293
ENCODING 659
SWIDTH 350 0
DWIDTH 8 0
BBX 7 17 0 -7
BITMAP
FE
FE
82
04
08
30
78
78
04
02
02
42
B4
B4
78
08
04
ENDCHAR
STARTCHAR uni0294
ENCODING 660
SWIDTH 400 0
DWIDTH 10 0
BBX 8 13 0 0
BITMAP
3C
42
81
01
01
02
04
08
08
08
08
08
3C
ENDCHAR
STARTCHAR uni0295
ENCODING 661
SWIDTH 400 0
DWIDTH 10 0
BBX 8 13 0 0
BITMAP
3C
42
81
80
80
40
30
08
08
08
08
08
3C
ENDCHAR
STARTCHAR uni0296
ENCODING 662
SWIDTH 400 0
DWIDTH 10 0
BBX 8 13 0 0
BITMAP
3C
08
08
08
08
08
04
02
01
81
81
42
3C
ENDCHAR
STARTCHAR uni0297
ENCODING 663
SWIDTH 400 0
DWIDTH 10 0
BBX 8 15 0 -5
BITMAP
3D
3D
43
81
80
80
80
80
80
80
80
81
42
42
3C
ENDCHAR
STARTCHAR uni0298
ENCODING 664
SWIDTH 400 0
DWIDTH 10 0
BBX 8 10 0 0
BITMAP
3C
3C
42
89
BD
BD
89
89
42
3C
ENDCHAR
STARTCHAR uni0299
ENCODING 665
SWIDTH 400 0
DWIDTH 10 0
BBX 8 10 0 0
BITMAP
FE
FE
41
41
7E
41
41
41
41
FE
ENDCHAR
STARTCHAR uni029A
ENCODING 666
SWIDTH 450 0
DWIDTH 11 0
BBX 10 10 0 0
BITMAP
7C00
7C00
8200
8100
7CC0
80C0
8100
8100
8200
7C00
ENDCHAR
STARTCHAR uni029B
ENCODING 667
SWIDTH 400 0
DWIDTH 10 0
BBX 12 14 0 0
BITMAP
0030
00C0
0100
0100
3D00
3D00
4300
8000
8700
8100
8100
8100
4300
3D00
ENDCHAR
STARTCHAR uni029C
ENCODING 668
SWIDTH 450 0
DWIDTH 11 0
BBX 10 10 0 0
BITMAP
F3C0
F3C0
4100
4100
7F00
4100
4100
4100
4100
F3C0
ENDCHAR
STARTCHAR uni029D
ENCODING 669
SWIDTH 150 0
DWIDTH 4 0
BBX 8 20 -4 -6
BITMAP
04
04
00
00
0C
0C
04
04
04
04
04
04
04
04
04
34
C8
C8
34
03
ENDCHAR
STARTCHAR uni029E
ENCODING 670
SWIDTH 450 0
DWIDTH 11 0
BBX 10 15 0 -5
BITMAP
F3C0
F3C0
4100
3100
0B00
0500
0900
0900
3100
7900
0100
0100
0100
0100
01C0
ENDCHAR
STARTCHAR uni029F
ENCODING 671
SWIDTH 400 0
DWIDTH 10 0
BBX 8 10 0 0
BITMAP
F0
F0
40
40
40
40
40
40
41
FF
ENDCHAR
STARTCHAR uni02A0
ENCODING 672
SWIDTH 450 0
DWIDTH 11 0
BBX 12 19 0 -5
BITMAP
0030
00C0
0100
0100
3D00
3D00
4300
8100
8100
8100
8100
8100
4300
3D00
0100
0100
0100
0100
03C0
ENDCHAR
STARTCHAR uni02A1
ENCODING 673
SWIDTH 400 0
DWIDTH 10 0
BBX 8 13 0 0
BITMAP
3C
42
81
01
01
02
04
08
3C
08
08
08
3C
ENDCHAR
STARTCHAR uni02A2
ENCODING 674
SWIDTH 400 0
DWIDTH 10 0
BBX 8 13 0 0
BITMAP
3C
42
81
80
80
40
30
08
3C
08
08
08
3C
ENDCHAR
STARTCHAR uni02A3
ENCODING 675
SWIDTH 750 0
DWIDTH 18 0
BBX 17 14 0 0
BITMAP
030000
010000
010000
010000
3D3F80
3D3F80
432080
810300
810400
810800
811000
811000
432080
3DFF80
ENDCHAR
STARTCHAR uni02A4
ENCODING 676
SWIDTH 750 0
DWIDTH 18 0
BBX 17 19 0 -5
BITMAP
030000
010000
010000
010000
3D3F80
3D3F80
432080
810300
810400
810800
811C00
811C00
430300
3DC080
000080
000080
002300
002300
001C00
ENDCHAR
STARTCHAR uni02A5
ENCODING 677
SWIDTH 750 0
DWIDTH 18 0
BBX 17 16 0 -2
BITMAP
030000
010000
010000
010000
3D3F80
3D3F80
432080
810300
810400
810800
811300
811300
432480
3DFF00
000800
001000
ENDCHAR
STARTCHAR uni02A6
ENCODING 678
SWIDTH 550 0
DWIDTH 13 0
BBX 12 14 0 0
BITMAP
4000
4000
4000
4000
F3D0
F3D0
4430
4410
4300
40E0
4410
4410
4610
3DE0
ENDCHAR
STARTCHAR uni02A7
ENCODING 679
SWIDTH 350 0
DWIDTH 8 0
BBX 10 19 0 -5
BITMAP
41C0
4200
4400
4400
F400
F400
4400
4400
4400
4400
4400
4400
4400
3C00
0400
0400
0800
0800
7000
ENDCHAR
STARTCHAR uni02A8
ENCODING 680
SWIDTH 600 0
DWIDTH 14 0
BBX 13 16 0 -2
BITMAP
4000
4000
4000
4000
F1E8
F1E8
4218
4408
4400
4400
4410
4410
4628
39F0
00C0
0100
ENDCHAR
STARTCHAR uni02A9
ENCODING 681
SWIDTH 600 0
DWIDTH 14 0
BBX 13 19 0 -5
BITMAP
0C00
3000
4000
4000
FEE0
FEE0
4310
4208
4208
4208
4208
4208
4208
F708
0008
0008
0010
0010
01E0
ENDCHAR
STARTCHAR uni02AA
ENCODING 682
SWIDTH 500 0
DWIDTH 12 0
BBX 11 14 0 0
BITMAP
C000
4000
4000
4000
4720
4720
48E0
4820
4600
41C0
4820
4820
4C20
FBC0
ENDCHAR
STARTCHAR uni02AB
ENCODING 683
SWIDTH 500 0
DWIDTH 12 0
BBX 11 14 0 0
BITMAP
C000
4000
4000
4000
4FE0
4FE0
4820
40C0
4100
4200
4400
4400
4820
FFE0
ENDCHAR
STARTCHAR uni02AC
ENCODING 684
SWIDTH 500 0
DWIDTH 12 0
BBX 11 13 0 0
BITMAP
F1E0
44C0
3500
0A00
0A00
0A00
0000
F1E0
44C0
3500
3500
0A00
0A00
ENDCHAR
STARTCHAR uni02AD
ENCODING 685
SWIDTH 500 0
DWIDTH 12 0
BBX 11 13 0 0
BITMAP
FFE0
8020
8020
8020
8020
8020
0000
FFE0
8020
8020
8020
8020
8020
ENDCHAR
STARTCHAR uni02AE
ENCODING 686
SWIDTH 450 0
DWIDTH 11 0
BBX 11 15 -1 -5
BITMAP
C1E0
C1E0
2080
2080
2080
2080
2080
2080
1980
0680
0080
0080
0080
0080
00E0
ENDCHAR
STARTCHAR uni02AF
ENCODING 687
SWIDTH 450 0
DWIDTH 11 0
BBX 13 15 -1 -5
BITMAP
C1E0
C1E0
2080
2080
2080
2080
2080
2080
1980
0680
0080
0080
0060
0060
0018
ENDCHAR
STARTCHAR circumflex
ENCODING 710
SWIDTH 300 0
DWIDTH 7 0
BBX 6 3 0 11
BITMAP
30
48
84
ENDCHAR
STARTCHAR caron
ENCODING 711
SWIDTH 300 0
DWIDTH 7 0
BBX 6 3 0 11
BITMAP
84
48
30
ENDCHAR
STARTCHAR uni02C8
ENCODING 712
SWIDTH 200 0
DWIDTH 5 0
BBX 1 3 1 11
BITMAP
80
80
80
ENDCHAR
STARTCHAR macron
ENCODING 713
SWIDTH 300 0
DWIDTH 7 0
BBX 6 1 0 13
BITMAP
FC
ENDCHAR
STARTCHAR uni02CA
ENCODING 714
SWIDTH 150 0
DWIDTH 4 0
BBX 2 2 0 12
BITMAP
40
80
ENDCHAR
STARTCHAR uni02CB
ENCODING 715
SWIDTH 150 0
DWIDTH 4 0
BBX 2 2 0 12
BITMAP
80
40
ENDCHAR
STARTCHAR uni02D2
ENCODING 722
SWIDTH 150 0
DWIDTH 4 0
BBX 2 4 0 10
BITMAP
80
40
40
80
ENDCHAR
STARTCHAR uni02D3
ENCODING 723
SWIDTH 150 0
DWIDTH 4 0
BBX 2 4 0 10
BITMAP
40
80
80
40
ENDCHAR
STARTCHAR uni02D4
ENCODING 724
SWIDTH 200 0
DWIDTH 5 0
BBX 4 3 0 11
BITMAP
40
40
F0
ENDCHAR
STARTCHAR uni02D5
ENCODING 725
SWIDTH 200 0
DWIDTH 5 0
BBX 4 3 0 11
BITMAP
F0
40
40
ENDCHAR
STARTCHAR uni02D6
ENCODING 726
SWIDTH 200 0
DWIDTH 5 0
BBX 4 3 0 11
BITMAP
40
F0
40
ENDCHAR
STARTCHAR uni02D7
ENCODING 727
SWIDTH 200 0
DWIDTH 5 0
BBX 4 1 0 12
BITMAP
F0
ENDCHAR
STARTCHAR breve
ENCODING 728
SWIDTH 300 0
DWIDTH 7 0
BBX 6 2 0 12
BITMAP
84
78
ENDCHAR
STARTCHAR dotaccent
ENCODING 729
SWIDTH 250 0
DWIDTH 6 0
BBX 3 1 1 13
BITMAP
E0
ENDCHAR
STARTCHAR ring
ENCODING 730
SWIDTH 300 0
DWIDTH 7 0
BBX 6 3 0 11
BITMAP
78
84
78
ENDCHAR
STARTCHAR ogonek
ENCODING 731
SWIDTH 300 0
DWIDTH 7 0
BBX 4 5 1 -5
BITMAP
60
80
90
90
60
ENDCHAR
STARTCHAR tilde
ENCODING 732
SWIDTH 350 0
DWIDTH 8 0
BBX 7 2 0 12
BITMAP
72
8C
ENDCHAR
STARTCHAR hungarumlaut
ENCODING 733
SWIDTH 350 0
DWIDTH 8 0
BBX 7 3 0 11
BITMAP
32
44
88
ENDCHAR
STARTCHAR uni0300
ENCODING 768
SWIDTH 0 0
DWIDTH 0 0
BBX 2 2 -7 12
BITMAP
80
40
ENDCHAR
STARTCHAR uni0301
ENCODING 769
SWIDTH 0 0
DWIDTH 0 0
BBX 2 2 -6 12
BITMAP
40
80
ENDCHAR
STARTCHAR uni0302
ENCODING 770
SWIDTH 0 0
DWIDTH 0 0
BBX 3 2 -7 12
BITMAP
40
A0
ENDCHAR
STARTCHAR uni0303
ENCODING 771
SWIDTH 0 0
DWIDTH 0 0
BBX 6 2 -8 12
BITMAP
6C
B0
ENDCHAR
STARTCHAR uni0304
ENCODING 772
SWIDTH 0 0
DWIDTH 0 0
BBX 6 1 -8 13
BITMAP
FC
ENDCHAR
STARTCHAR uni0305
ENCODING 773
SWIDTH 0 0
DWIDTH 0 0
BBX 11 1 -11 13
BITMAP
FFE0
ENDCHAR
STARTCHAR uni0306
ENCODING 774
SWIDTH 0 0
DWIDTH 0 0
BBX 6 2 -8 12
BITMAP
8C
70
ENDCHAR
STARTCHAR uni0307
ENCODING 775
SWIDTH 0 0
DWIDTH 0 0
BBX 2 1 -7 13
BITMAP
C0
ENDCHAR
STARTCHAR uni0308
ENCODING 776
SWIDTH 0 0
DWIDTH 0 0
BBX 6 1 -8 13
BITMAP
DC
ENDCHAR
STARTCHAR uni030A
ENCODING 778
SWIDTH 0 0
DWIDTH 0 0
BBX 6 4 -8 12
BITMAP
70
70
8C
70
ENDCHAR
STARTCHAR uni030B
ENCODING 779
SWIDTH 0 0
DWIDTH 0 0
BBX 5 2 -7 12
BITMAP
58
A0
ENDCHAR
STARTCHAR uni030C
ENCODING 780
SWIDTH 0 0
DWIDTH 0 0
BBX 3 2 -7 12
BITMAP
A0
40
ENDCHAR
STARTCHAR uni0370
ENCODING 880
SWIDTH 400 0
DWIDTH 10 0
BBX 8 13 0 0
BITMAP
F0
40
40
40
40
40
7F
40
40
40
40
40
F0
ENDCHAR
STARTCHAR uni0371
ENCODING 881
SWIDTH 350 0
DWIDTH 8 0
BBX 7 10 0 0
BITMAP
80
80
40
40
7E
40
40
40
40
F0
ENDCHAR
STARTCHAR uni0372
ENCODING 882
SWIDTH 400 0
DWIDTH 10 0
BBX 8 18 0 -5
BITMAP
FF
89
08
08
08
08
08
08
08
08
08
08
08
08
08
08
08
08
ENDCHAR
STARTCHAR uni0373
ENCODING 883
SWIDTH 400 0
DWIDTH 10 0
BBX 8 18 0 -5
BITMAP
7F
89
08
08
08
08
08
08
08
08
08
08
08
08
08
08
08
08
ENDCHAR
STARTCHAR uni0374
ENCODING 884
SWIDTH 150 0
DWIDTH 4 0
BBX 2 4 0 10
BITMAP
40
40
80
80
ENDCHAR
STARTCHAR uni0375
ENCODING 885
SWIDTH 150 0
DWIDTH 4 0
BBX 2 5 0 -1
BITMAP
40
40
40
80
80
ENDCHAR
STARTCHAR uni0376
ENCODING 886
SWIDTH 500 0
DWIDTH 12 0
BBX 11 13 0 0
BITMAP
F0E0
41C0
41C0
42C0
42C0
42C0
44C0
44C0
48C0
48C0
48C0
70C0
41E0
ENDCHAR
STARTCHAR uni0377
ENCODING 887
SWIDTH 450 0
DWIDTH 11 0
BBX 10 10 0 0
BITMAP
F1C0
F1C0
4300
4500
4500
4900
4900
4900
7100
43C0
ENDCHAR
STARTCHAR uni037A
ENCODING 890
SWIDTH 200 0
DWIDTH 5 0
BBX 4 4 0 -2
BITMAP
C0
40
40
30
ENDCHAR
STARTCHAR uni037B
ENCODING 891
SWIDTH 400 0
DWIDTH 10 0
BBX 8 10 0 0
BITMAP
BC
BC
C2
81
01
01
81
81
42
3C
ENDCHAR
STARTCHAR uni037C
ENCODING 892
SWIDTH 400 0
DWIDTH 10 0
BBX 8 10 0 0
BITMAP
3D
3D
43
81
88
88
81
81
42
3C
ENDCHAR
STARTCHAR uni037D
ENCODING 893
SWIDTH 400 0
DWIDTH 10 0
BBX 8 10 0 0
BITMAP
BC
BC
C2
81
09
09
81
81
42
3C
ENDCHAR
STARTCHAR uni037E
ENCODING 894
SWIDTH 150 0
DWIDTH 4 0
BBX 2 9 0 -1
BITMAP
40
40
00
00
00
00
40
40
80
ENDCHAR
STARTCHAR tonos
ENCODING 900
SWIDTH 200 0
DWIDTH 5 0
BBX 4 3 0 11
BITMAP
30
40
80
ENDCHAR
STARTCHAR dieresistonos
ENCODING 901
SWIDTH 300 0
DWIDTH 7 0
BBX 6 5 0 11
BITMAP
08
08
30
00
CC
ENDCHAR
STARTCHAR Alphatonos
ENCODING 902
SWIDTH 500 0
DWIDTH 12 0
BBX 11 13 0 0
BITMAP
4C00
8400
0A00
0A00
0A00
0A00
3100
3F00
3100
40C0
40C0
40C0
F1E0
ENDCHAR
STARTCHAR anoteleia
ENCODING 903
SWIDTH 100 0
DWIDTH 2 0
BBX 1 2 0 6
BITMAP
80
80
ENDCHAR
STARTCHAR Epsilontonos
ENCODING 904
SWIDTH 600 0
DWIDTH 14 0
BBX 13 13 0 0
BITMAP
4FF8
8408
0400
0400
0400
0420
07E0
0420
0400
0400
0400
0408
0FF8
ENDCHAR
STARTCHAR Etatonos
ENCODING 905
SWIDTH 650 0
DWIDTH 16 0
BBX 14 13 0 0
BITMAP
4E1C
8408
0408
0408
0408
0408
07F8
0408
0408
0408
0408
0408
0E1C
ENDCHAR
STARTCHAR Iotatonos
ENCODING 906
SWIDTH 350 0
DWIDTH 8 0
BBX 7 13 0 0
BITMAP
4E
84
04
04
04
04
04
04
04
04
04
04
0E
ENDCHAR
STARTCHAR Omicrontonos
ENCODING 908
SWIDTH 600 0
DWIDTH 14 0
BBX 13 13 0 0
BITMAP
43C0
8C30
0810
3008
3008
3008
3008
3008
3008
0810
0810
0C30
03C0
ENDCHAR
STARTCHAR Upsilontonos
ENCODING 910
SWIDTH 650 0
DWIDTH 16 0
BBX 14 13 0 0
BITMAP
4E1C
8408
0210
0210
0210
0120
00C0
00C0
00C0
00C0
00C0
00C0
01E0
ENDCHAR
STARTCHAR Omegatonos
ENCODING 911
SWIDTH 650 0
DWIDTH 16 0
BBX 14 13 0 0
BITMAP
43E0
8C18
0808
3004
3004
3004
3004
0808
0C18
0220
0220
3224
3E3C
ENDCHAR
STARTCHAR iotadieresistonos
ENCODING 912
SWIDTH 200 0
DWIDTH 5 0
BBX 6 16 -1 0
BITMAP
18
18
20
00
DC
00
60
60
20
20
20
20
20
20
20
18
ENDCHAR
STARTCHAR Alpha
ENCODING 913
SWIDTH 500 0
DWIDTH 12 0
BBX 11 13 0 0
BITMAP
0C00
0400
0A00
0A00
0A00
0A00
3100
3F00
3100
40C0
40C0
40C0
F1E0
ENDCHAR
STARTCHAR Beta
ENCODING 914
SWIDTH 450 0
DWIDTH 11 0
BBX 10 13 0 0
BITMAP
FE00
4100
40C0
40C0
40C0
4100
7E00
4100
40C0
40C0
40C0
4100
FE00
ENDCHAR
STARTCHAR Gamma
ENCODING 915
SWIDTH 450 0
DWIDTH 11 0
BBX 10 13 0 0
BITMAP
FFC0
40C0
4000
4000
4000
4000
4000
4000
4000
4000
4000
4000
F000
ENDCHAR
STARTCHAR Delta
ENCODING 916
SWIDTH 500 0
DWIDTH 12 0
BBX 11 13 0 0
BITMAP
0400
0400
0A00
0A00
0A00
3100
3100
3100
40C0
40C0
40C0
8020
FFE0
ENDCHAR
STARTCHAR Epsilon
ENCODING 917
SWIDTH 450 0
DWIDTH 11 0
BBX 10 13 0 0
BITMAP
FFC0
40C0
4000
4000
4000
4200
7E00
4200
4000
4000
4000
40C0
FFC0
ENDCHAR
STARTCHAR Zeta
ENCODING 918
SWIDTH 400 0
DWIDTH 10 0
BBX 8 13 0 0
BITMAP
FF
81
02
04
04
04
08
30
30
40
40
81
FF
ENDCHAR
STARTCHAR Eta
ENCODING 919
SWIDTH 500 0
DWIDTH 12 0
BBX 11 13 0 0
BITMAP
F1E0
40C0
40C0
40C0
40C0
40C0
7FC0
40C0
40C0
40C0
40C0
40C0
F1E0
ENDCHAR
STARTCHAR Theta
ENCODING 920
SWIDTH 500 0
DWIDTH 12 0
BBX 11 13 0 0
BITMAP
0E00
71C0
40C0
8020
8020
B120
BF20
B120
8020
40C0
40C0
71C0
0E00
ENDCHAR
STARTCHAR Iota
ENCODING 921
SWIDTH 200 0
DWIDTH 5 0
BBX 4 13 0 0
BITMAP
F0
40
40
40
40
40
40
40
40
40
40
40
F0
ENDCHAR
STARTCHAR Kappa
ENCODING 922
SWIDTH 450 0
DWIDTH 11 0
BBX 10 13 0 0
BITMAP
F3C0
4100
4200
4400
4400
4800
7400
4200
4200
4100
4100
4100
F3C0
ENDCHAR
STARTCHAR Lambda
ENCODING 923
SWIDTH 500 0
DWIDTH 12 0
BBX 11 13 0 0
BITMAP
0C00
0400
0A00
0A00
0A00
0A00
3100
3100
3100
40C0
40C0
40C0
F1E0
ENDCHAR
STARTCHAR Mu
ENCODING 924
SWIDTH 600 0
DWIDTH 14 0
BBX 13 13 0 0
BITMAP
C018
7030
48D0
4510
4510
4210
4210
4010
4010
4010
4010
4010
F038
ENDCHAR
STARTCHAR Nu
ENCODING 925
SWIDTH 500 0
DWIDTH 12 0
BBX 11 13 0 0
BITMAP
C1E0
70C0
70C0
48C0
48C0
48C0
44C0
44C0
42C0
42C0
42C0
41C0
F0C0
ENDCHAR
STARTCHAR Xi
ENCODING 926
SWIDTH 400 0
DWIDTH 10 0
BBX 8 13 0 0
BITMAP
FF
81
00
00
00
42
7E
42
00
00
00
81
FF
ENDCHAR
STARTCHAR Omicron
ENCODING 927
SWIDTH 500 0
DWIDTH 12 0
BBX 11 13 0 0
BITMAP
0E00
71C0
40C0
8020
8020
8020
8020
8020
8020
40C0
40C0
71C0
0E00
ENDCHAR
STARTCHAR Pi
ENCODING 928
SWIDTH 500 0
DWIDTH 12 0
BBX 11 13 0 0
BITMAP
FFE0
40C0
40C0
40C0
40C0
40C0
40C0
40C0
40C0
40C0
40C0
40C0
F1E0
ENDCHAR
STARTCHAR Rho
ENCODING 929
SWIDTH 450 0
DWIDTH 11 0
BBX 10 13 0 0
BITMAP
FE00
4100
40C0
40C0
40C0
4100
7E00
4000
4000
4000
4000
4000
F000
ENDCHAR
STARTCHAR Sigma
ENCODING 931
SWIDTH 450 0
DWIDTH 11 0
BBX 10 13 0 0
BITMAP
FFC0
40C0
3000
0800
0800
0400
0200
0400
0800
3000
3000
40C0
FFC0
ENDCHAR
STARTCHAR Tau
ENCODING 932
SWIDTH 400 0
DWIDTH 10 0
BBX 8 13 0 0
BITMAP
FF
89
08
08
08
08
08
08
08
08
08
08
3C
ENDCHAR
STARTCHAR Upsilon
ENCODING 933
SWIDTH 500 0
DWIDTH 12 0
BBX 11 13 0 0
BITMAP
F1E0
40C0
3100
3100
3100
0A00
0400
0400
0400
0400
0400
0400
0E00
ENDCHAR
STARTCHAR Phi
ENCODING 934
SWIDTH 400 0
DWIDTH 10 0
BBX 8 13 0 0
BITMAP
3C
08
3C
4A
4A
89
89
89
4A
3C
3C
08
3C
ENDCHAR
STARTCHAR Chi
ENCODING 935
SWIDTH 500 0
DWIDTH 12 0
BBX 11 13 0 0
BITMAP
F1E0
40C0
3100
3100
3100
0A00
0400
0A00
3100
3100
3100
40C0
F1E0
ENDCHAR
STARTCHAR Psi
ENCODING 936
SWIDTH 500 0
DWIDTH 12 0
BBX 11 13 0 0
BITMAP
8E20
44C0
44C0
44C0
44C0
3500
0E00
0400
0400
0400
0400
0400
0E00
ENDCHAR
STARTCHAR Omega
ENCODING 937
SWIDTH 550 0
DWIDTH 13 0
BBX 12 13 0 0
BITMAP
0F00
70E0
4020
8010
8010
8010
8010
4020
70E0
0900
0900
8910
F9F0
ENDCHAR
STARTCHAR Iotadieresis
ENCODING 938
SWIDTH 200 0
DWIDTH 5 0
BBX 6 16 -1 0
BITMAP
DC
DC
00
78
20
20
20
20
20
20
20
20
20
20
20
78
ENDCHAR
STARTCHAR Upsilondieresis
ENCODING 939
SWIDTH 500 0
DWIDTH 12 0
BBX 11 16 0 0
BITMAP
3B00
3B00
0000
F1E0
40C0
3100
3100
3100
0A00
0400
0400
0400
0400
0400
0400
0E00
ENDCHAR
STARTCHAR alphatonos
ENCODING 940
SWIDTH 450 0
DWIDTH 11 0
BBX 10 13 0 0
BITMAP
0400
0800
0000
38C0
38C0
4500
8200
8200
8200
8200
8200
4500
38C0
ENDCHAR
STARTCHAR epsilontonos
ENCODING 941
SWIDTH 350 0
DWIDTH 8 0
BBX 7 13 0 0
BITMAP
08
30
00
7C
7C
82
80
7C
80
80
80
82
7C
ENDCHAR
STARTCHAR etatonos
ENCODING 942
SWIDTH 400 0
DWIDTH 10 0
BBX 8 18 0 -5
BITMAP
04
08
00
CC
CC
72
41
41
41
41
41
41
F1
01
01
01
01
01
ENDCHAR
STARTCHAR iotatonos
ENCODING 943
SWIDTH 200 0
DWIDTH 5 0
BBX 4 13 0 0
BITMAP
30
40
00
C0
C0
40
40
40
40
40
40
40
30
ENDCHAR
STARTCHAR upsilondieresistonos
ENCODING 944
SWIDTH 400 0
DWIDTH 10 0
BBX 8 16 0 0
BITMAP
04
04
08
00
76
00
C4
C4
42
41
41
41
41
41
32
0C
ENDCHAR
STARTCHAR alpha
ENCODING 945
SWIDTH 450 0
DWIDTH 11 0
BBX 10 10 0 0
BITMAP
38C0
38C0
4500
8200
8200
8200
8200
8200
4500
38C0
ENDCHAR
STARTCHAR beta
ENCODING 946
SWIDTH 400 0
DWIDTH 10 0
BBX 8 18 0 -5
BITMAP
3C
42
81
81
81
82
8C
82
81
81
81
82
8C
80
80
80
80
80
ENDCHAR
STARTCHAR gamma
ENCODING 947
SWIDTH 350 0
DWIDTH 8 0
BBX 7 15 0 -4
BITMAP
02
C4
C4
34
08
08
08
30
30
30
30
40
40
40
40
ENDCHAR
STARTCHAR delta
ENCODING 948
SWIDTH 400 0
DWIDTH 10 0
BBX 8 14 0 0
BITMAP
0C
32
30
08
3C
3C
42
81
81
81
81
81
42
3C
ENDCHAR
STARTCHAR epsilon
ENCODING 949
SWIDTH 350 0
DWIDTH 8 0
BBX 7 10 0 0
BITMAP
7C
7C
82
80
7C
80
80
80
82
7C
ENDCHAR
STARTCHAR zeta
ENCODING 950
SWIDTH 350 0
DWIDTH 8 0
BBX 7 21 0 -5
BITMAP
80
80
40
3E
40
40
80
80
80
80
80
80
80
80
40
3C
02
02
04
04
38
ENDCHAR
STARTCHAR eta
ENCODING 951
SWIDTH 400 0
DWIDTH 10 0
BBX 8 15 0 -5
BITMAP
CC
CC
72
41
41
41
41
41
41
F1
01
01
01
01
01
ENDCHAR
STARTCHAR theta
ENCODING 952
SWIDTH 400 0
DWIDTH 10 0
BBX 8 13 0 0
BITMAP
0C
72
41
81
81
81
FF
81
81
82
82
46
38
ENDCHAR
STARTCHAR iota
ENCODING 953
SWIDTH 200 0
DWIDTH 5 0
BBX 4 10 0 0
BITMAP
C0
C0
40
40
40
40
40
40
40
30
ENDCHAR
STARTCHAR kappa
ENCODING 954
SWIDTH 450 0
DWIDTH 11 0
BBX 10 10 0 0
BITMAP
F700
F700
4200
4400
4800
7400
4200
4200
4100
F3C0
ENDCHAR
STARTCHAR lambda
ENCODING 955
SWIDTH 400 0
DWIDTH 10 0
BBX 8 14 0 0
BITMAP
80
40
30
30
08
08
08
34
34
34
42
42
42
F7
ENDCHAR
STARTCHAR mu
ENCODING 956
SWIDTH 450 0
DWIDTH 11 0
BBX 10 15 0 -5
BITMAP
C300
C300
4100
4100
4100
4100
4100
4100
7300
4DC0
4000
4000
4000
4000
4000
ENDCHAR
STARTCHAR nu
ENCODING 957
SWIDTH 400 0
DWIDTH 10 0
BBX 8 10 0 0
BITMAP
C3
C3
41
41
41
42
42
42
44
78
ENDCHAR
STARTCHAR xi
ENCODING 958
SWIDTH 350 0
DWIDTH 8 0
BBX 7 21 0 -5
BITMAP
80
80
40
3E
40
40
3C
3C
40
80
80
80
80
80
40
3C
02
02
04
04
38
ENDCHAR
STARTCHAR omicron
ENCODING 959
SWIDTH 400 0
DWIDTH 10 0
BBX 8 10 0 0
BITMAP
3C
3C
42
81
81
81
81
81
42
3C
ENDCHAR
STARTCHAR pi
ENCODING 960
SWIDTH 450 0
DWIDTH 11 0
BBX 10 11 0 0
BITMAP
00C0
7F00
7F00
B200
3200
3200
3200
3200
3200
4200
4100
ENDCHAR
STARTCHAR rho
ENCODING 961
SWIDTH 400 0
DWIDTH 10 0
BBX 8 15 0 -5
BITMAP
3C
3C
42
81
81
81
81
81
C2
BC
80
80
80
80
80
ENDCHAR
STARTCHAR sigma1
ENCODING 962
SWIDTH 400 0
DWIDTH 10 0
BBX 8 15 0 -5
BITMAP
3F
3F
40
80
80
80
80
80
40
3E
01
01
02
02
3C
ENDCHAR
STARTCHAR sigma
ENCODING 963
SWIDTH 400 0
DWIDTH 10 0
BBX 10 10 0 0
BITMAP
3FC0
3FC0
4200
8100
8100
8100
8100
8100
4200
3C00
ENDCHAR
STARTCHAR tau
ENCODING 964
SWIDTH 400 0
DWIDTH 10 0
BBX 8 10 0 0
BITMAP
7F
7F
88
08
08
08
08
08
08
04
ENDCHAR
STARTCHAR upsilon
ENCODING 965
SWIDTH 400 0
DWIDTH 10 0
BBX 8 10 0 0
BITMAP
C4
C4
42
41
41
41
41
41
32
0C
ENDCHAR
STARTCHAR phi
ENCODING 966
SWIDTH 400 0
DWIDTH 10 0
BBX 8 15 0 -5
BITMAP
44
44
8A
89
89
89
89
89
4A
3C
08
08
08
08
08
ENDCHAR
STARTCHAR chi
ENCODING 967
SWIDTH 450 0
DWIDTH 11 0
BBX 10 15 0 -5
BITMAP
C0C0
C0C0
B100
3100
0A00
0C00
0C00
0C00
0C00
0C00
3400
4200
42C0
42C0
81C0
ENDCHAR
STARTCHAR psi
ENCODING 968
SWIDTH 500 0
DWIDTH 12 0
BBX 11 15 0 -5
BITMAP
8420
8420
44C0
44C0
44C0
44C0
44C0
44C0
3500
0E00
0400
0400
0400
0400
0400
ENDCHAR
STARTCHAR omega
ENCODING 969
SWIDTH 600 0
DWIDTH 14 0
BBX 13 10 0 0
BITMAP
3020
3020
4010
8008
8208
8208
8208
8208
4510
38E0
ENDCHAR
STARTCHAR iotadieresis
ENCODING 970
SWIDTH 200 0
DWIDTH 5 0
BBX 6 12 -1 0
BITMAP
DC
00
60
60
20
20
20
20
20
20
20
18
ENDCHAR
STARTCHAR upsilondieresis
ENCODING 971
SWIDTH 400 0
DWIDTH 10 0
BBX 8 12 0 0
BITMAP
76
00
C4
C4
42
41
41
41
41
41
32
0C
ENDCHAR
STARTCHAR omicrontonos
ENCODING 972
SWIDTH 400 0
DWIDTH 10 0
BBX 8 13 0 0
BITMAP
04
08
00
3C
3C
42
81
81
81
81
81
42
3C
ENDCHAR
STARTCHAR upsilontonos
ENCODING 973
SWIDTH 400 0
DWIDTH 10 0
BBX 8 13 0 0
BITMAP
04
08
00
C4
C4
42
41
41
41
41
41
32
0C
ENDCHAR
STARTCHAR omegatonos
ENCODING 974
SWIDTH 600 0
DWIDTH 14 0
BBX 13 13 0 0
BITMAP
0100
0200
0000
3020
3020
4010
8008
8208
8208
8208
8208
4510
38E0
ENDCHAR
STARTCHAR uni0400
ENCODING 1024
SWIDTH 450 0
DWIDTH 11 0
BBX 10 17 0 0
BITMAP
0800
0400
0400
0000
FFC0
40C0
4000
4000
4000
4200
7E00
4200
4000
4000
4000
40C0
FFC0
ENDCHAR
STARTCHAR afii10023
ENCODING 1025
SWIDTH 450 0
DWIDTH 11 0
BBX 10 16 0 0
BITMAP
7300
7300
0000
FFC0
40C0
4000
4000
4000
4200
7E00
4200
4000
4000
4000
40C0
FFC0
ENDCHAR
STARTCHAR afii10051
ENCODING 1026
SWIDTH 500 0
DWIDTH 12 0
BBX 11 18 0 -5
BITMAP
FF00
8900
0800
0B00
0B00
0CC0
0820
0820
0820
0820
0820
0820
3C20
0020
0020
04C0
04C0
0300
ENDCHAR
STARTCHAR afii10052
ENCODING 1027
SWIDTH 450 0
DWIDTH 11 0
BBX 10 17 0 0
BITMAP
0400
0800
0800
0000
FFC0
40C0
4000
4000
4000
4000
4000
4000
4000
4000
4000
4000
F000
ENDCHAR
STARTCHAR afii10053
ENCODING 1028
SWIDTH 450 0
DWIDTH 11 0
BBX 10 13 0 0
BITMAP
0EC0
71C0
40C0
8000
8000
8200
FE00
8200
8000
40C0
40C0
71C0
0E00
ENDCHAR
STARTCHAR afii10054
ENCODING 1029
SWIDTH 400 0
DWIDTH 10 0
BBX 8 13 0 0
BITMAP
3D
43
81
80
80
40
3C
02
01
81
81
C2
BC
ENDCHAR
STARTCHAR afii10055
ENCODING 1030
SWIDTH 200 0
DWIDTH 5 0
BBX 4 13 0 0
BITMAP
F0
40
40
40
40
40
40
40
40
40
40
40
F0
ENDCHAR
STARTCHAR afii10056
ENCODING 1031
SWIDTH 200 0
DWIDTH 5 0
BBX 6 16 -1 0
BITMAP
DC
DC
00
78
20
20
20
20
20
20
20
20
20
20
20
78
ENDCHAR
STARTCHAR afii10057
ENCODING 1032
SWIDTH 450 0
DWIDTH 11 0
BBX 10 13 0 0
BITMAP
03C0
0100
0100
0100
0100
0100
0100
0100
0100
8200
8200
C600
3800
ENDCHAR
STARTCHAR afii10058
ENCODING 1033
SWIDTH 750 0
DWIDTH 18 0
BBX 17 13 0 0
BITMAP
3FE000
08C000
08C000
08C000
08C000
08C000
08FC00
08C300
08C080
88C080
88C080
88C300
71FC00
ENDCHAR
STARTCHAR afii10059
ENCODING 1034
SWIDTH 700 0
DWIDTH 17 0
BBX 16 13 0 0
BITMAP
F3C0
4100
4100
4100
4100
4100
7FF8
4104
4103
4103
4103
4104
F3F8
ENDCHAR
STARTCHAR afii10060
ENCODING 1035
SWIDTH 550 0
DWIDTH 13 0
BBX 12 13 0 0
BITMAP
FF00
8900
0800
0B00
0B00
0CC0
0820
0820
0820
0820
0820
0820
3CF0
ENDCHAR
STARTCHAR afii10061
ENCODING 1036
SWIDTH 450 0
DWIDTH 11 0
BBX 10 17 0 0
BITMAP
0400
0800
0800
0000
F3C0
4100
4200
4400
4400
4800
7400
4200
4200
4100
4100
4100
F3C0
ENDCHAR
STARTCHAR uni040D
ENCODING 1037
SWIDTH 500 0
DWIDTH 12 0
BBX 11 17 0 0
BITMAP
0800
0400
0400
0000
F0E0
41C0
41C0
42C0
42C0
42C0
44C0
44C0
48C0
48C0
48C0
70C0
41E0
ENDCHAR
STARTCHAR afii10062
ENCODING 1038
SWIDTH 500 0
DWIDTH 12 0
BBX 11 17 0 0
BITMAP
3100
0E00
0E00
0000
F1E0
40C0
3100
3100
3100
0A00
0400
0400
0800
0800
0800
B000
4000
ENDCHAR
STARTCHAR afii10145
ENCODING 1039
SWIDTH 500 0
DWIDTH 12 0
BBX 11 15 0 -2
BITMAP
F1E0
40C0
40C0
40C0
40C0
40C0
40C0
40C0
40C0
40C0
40C0
40C0
FFE0
0400
0400
ENDCHAR
STARTCHAR afii10017
ENCODING 1040
SWIDTH 500 0
DWIDTH 12 0
BBX 11 13 0 0
BITMAP
0C00
0400
0A00
0A00
0A00
0A00
3100
3F00
3100
40C0
40C0
40C0
F1E0
ENDCHAR
STARTCHAR afii10018
ENCODING 1041
SWIDTH 450 0
DWIDTH 11 0
BBX 10 13 0 0
BITMAP
FF00
4100
4000
4000
4000
4000
7E00
4100
40C0
40C0
40C0
4100
FE00
ENDCHAR
STARTCHAR afii10019
ENCODING 1042
SWIDTH 450 0
DWIDTH 11 0
BBX 10 13 0 0
BITMAP
FE00
4100
40C0
40C0
40C0
4100
7E00
4100
40C0
40C0
40C0
4100
FE00
ENDCHAR
STARTCHAR afii10020
ENCODING 1043
SWIDTH 450 0
DWIDTH 11 0
BBX 10 13 0 0
BITMAP
FFC0
40C0
4000
4000
4000
4000
4000
4000
4000
4000
4000
4000
F000
ENDCHAR
STARTCHAR afii10021
ENCODING 1044
SWIDTH 500 0
DWIDTH 12 0
BBX 11 15 0 -2
BITMAP
3FE0
08C0
08C0
08C0
08C0
08C0
08C0
08C0
30C0
30C0
30C0
40C0
FFE0
8020
8020
ENDCHAR
STARTCHAR afii10022
ENCODING 1045
SWIDTH 450 0
DWIDTH 11 0
BBX 10 13 0 0
BITMAP
FFC0
40C0
4000
4000
4000
4200
7E00
4200
4000
4000
4000
40C0
FFC0
ENDCHAR
STARTCHAR afii10024
ENCODING 1046
SWIDTH 700 0
DWIDTH 17 0
BBX 16 13 0 0
BITMAP
F3CF
4104
3108
0910
0910
0520
0BD0
3108
3108
4104
4104
4104
F3CF
ENDCHAR
STARTCHAR afii10025
ENCODING 1047
SWIDTH 400 0
DWIDTH 10 0
BBX 8 13 0 0
BITMAP
BC
C2
81
01
01
02
3C
02
01
81
81
42
3C
ENDCHAR
STARTCHAR afii10026
ENCODING 1048
SWIDTH 500 0
DWIDTH 12 0
BBX 11 13 0 0
BITMAP
F0E0
41C0
41C0
42C0
42C0
42C0
44C0
44C0
48C0
48C0
48C0
70C0
41E0
ENDCHAR
STARTCHAR afii10027
ENCODING 1049
SWIDTH 500 0
DWIDTH 12 0
BBX 11 17 0 0
BITMAP
3100
0E00
0E00
0000
F0E0
41C0
41C0
42C0
42C0
42C0
44C0
44C0
48C0
48C0
48C0
70C0
41E0
ENDCHAR
STARTCHAR afii10028
ENCODING 1050
SWIDTH 450 0
DWIDTH 11 0
BBX 10 13 0 0
BITMAP
F3C0
4100
4200
4400
4400
4800
7400
4200
4200
4100
4100
4100
F3C0
ENDCHAR
STARTCHAR afii10029
ENCODING 1051
SWIDTH 500 0
DWIDTH 12 0
BBX 11 13 0 0
BITMAP
3FE0
08C0
08C0
08C0
08C0
08C0
08C0
08C0
08C0
88C0
88C0
88C0
71E0
ENDCHAR
STARTCHAR afii10030
ENCODING 1052
SWIDTH 600 0
DWIDTH 14 0
BBX 13 13 0 0
BITMAP
C018
7030
48D0
4510
4510
4210
4210
4010
4010
4010
4010
4010
F038
ENDCHAR
STARTCHAR afii10031
ENCODING 1053
SWIDTH 500 0
DWIDTH 12 0
BBX 11 13 0 0
BITMAP
F1E0
40C0
40C0
40C0
40C0
40C0
7FC0
40C0
40C0
40C0
40C0
40C0
F1E0
ENDCHAR
STARTCHAR afii10032
ENCODING 1054
SWIDTH 500 0
DWIDTH 12 0
BBX 11 13 0 0
BITMAP
0E00
71C0
40C0
8020
8020
8020
8020
8020
8020
40C0
40C0
71C0
0E00
ENDCHAR
STARTCHAR afii10033
ENCODING 1055
SWIDTH 500 0
DWIDTH 12 0
BBX 11 13 0 0
BITMAP
FFE0
40C0
40C0
40C0
40C0
40C0
40C0
40C0
40C0
40C0
40C0
40C0
F1E0
ENDCHAR
STARTCHAR afii10034
ENCODING 1056
SWIDTH 450 0
DWIDTH 11 0
BBX 10 13 0 0
BITMAP
FE00
4100
40C0
40C0
40C0
4100
7E00
4000
4000
4000
4000
4000
F000
ENDCHAR
STARTCHAR afii10035
ENCODING 1057
SWIDTH 450 0
DWIDTH 11 0
BBX 10 13 0 0
BITMAP
0EC0
71C0
40C0
8000
8000
8000
8000
8000
8000
40C0
40C0
71C0
0E00
ENDCHAR
STARTCHAR afii10036
ENCODING 1058
SWIDTH 400 0
DWIDTH 10 0
BBX 8 13 0 0
BITMAP
FF
89
08
08
08
08
08
08
08
08
08
08
3C
ENDCHAR
STARTCHAR afii10037
ENCODING 1059
SWIDTH 500 0
DWIDTH 12 0
BBX 11 13 0 0
BITMAP
F1E0
40C0
3100
3100
3100
0A00
0400
0400
0800
0800
0800
B000
4000
ENDCHAR
STARTCHAR afii10038
ENCODING 1060
SWIDTH 500 0
DWIDTH 12 0
BBX 11 13 0 0
BITMAP
0E00
0400
3F00
44C0
44C0
8420
8420
8420
44C0
3F00
3F00
0400
0E00
ENDCHAR
STARTCHAR afii10039
ENCODING 1061
SWIDTH 500 0
DWIDTH 12 0
BBX 11 13 0 0
BITMAP
F1E0
40C0
3100
3100
3100
0A00
0400
0A00
3100
3100
3100
40C0
F1E0
ENDCHAR
STARTCHAR afii10040
ENCODING 1062
SWIDTH 500 0
DWIDTH 12 0
BBX 11 15 0 -2
BITMAP
F1E0
40C0
40C0
40C0
40C0
40C0
40C0
40C0
40C0
40C0
40C0
40C0
FFE0
0020
0020
ENDCHAR
STARTCHAR afii10041
ENCODING 1063
SWIDTH 500 0
DWIDTH 12 0
BBX 11 13 0 0
BITMAP
F1E0
40C0
40C0
40C0
40C0
31C0
0EC0
00C0
00C0
00C0
00C0
00C0
01E0
ENDCHAR
STARTCHAR afii10042
ENCODING 1064
SWIDTH 600 0
DWIDTH 14 0
BBX 13 13 0 0
BITMAP
F738
4210
4210
4210
4210
4210
4210
4210
4210
4210
4210
4210
FFF8
ENDCHAR
STARTCHAR afii10043
ENCODING 1065
SWIDTH 600 0
DWIDTH 14 0
BBX 13 15 0 -2
BITMAP
F738
4210
4210
4210
4210
4210
4210
4210
4210
4210
4210
4210
FFF8
0008
0008
ENDCHAR
STARTCHAR afii10044
ENCODING 1066
SWIDTH 550 0
DWIDTH 13 0
BBX 12 13 0 0
BITMAP
FC00
8800
0800
0800
0800
0800
0FC0
0820
0810
0810
0810
0820
3FC0
ENDCHAR
STARTCHAR afii10045
ENCODING 1067
SWIDTH 600 0
DWIDTH 14 0
BBX 13 13 0 0
BITMAP
F038
4010
4010
4010
4010
4010
7E10
4110
40D0
40D0
40D0
4110
FE38
ENDCHAR
STARTCHAR afii10046
ENCODING 1068
SWIDTH 450 0
DWIDTH 11 0
BBX 10 13 0 0
BITMAP
F000
4000
4000
4000
4000
4000
7E00
4100
40C0
40C0
40C0
4100
FE00
ENDCHAR
STARTCHAR afii10047
ENCODING 1069
SWIDTH 450 0
DWIDTH 11 0
BBX 10 13 0 0
BITMAP
BC00
C300
8100
00C0
00C0
30C0
3FC0
30C0
00C0
8100
8100
C300
3C00
ENDCHAR
STARTCHAR afii10048
ENCODING 1070
SWIDTH 650 0
DWIDTH 16 0
BBX 14 13 0 0
BITMAP
F1E0
4618
4408
4804
4804
4804
7804
4804
4804
4408
4408
4618
F1E0
ENDCHAR
STARTCHAR afii10049
ENCODING 1071
SWIDTH 450 0
DWIDTH 11 0
BBX 10 13 0 0
BITMAP
3FC0
4100
8100
8100
8100
4100
3F00
0900
3100
4100
4100
4100
83C0
ENDCHAR
STARTCHAR afii10065
ENCODING 1072
SWIDTH 400 0
DWIDTH 10 0
BBX 8 10 0 0
BITMAP
3C
3C
42
02
3E
42
82
82
86
7B
ENDCHAR
STARTCHAR afii10066
ENCODING 1073
SWIDTH 400 0
DWIDTH 10 0
BBX 8 14 0 0
BITMAP
38
40
80
80
BC
BC
C2
81
81
81
81
81
42
3C
ENDCHAR
STARTCHAR afii10067
ENCODING 1074
SWIDTH 400 0
DWIDTH 10 0
BBX 8 10 0 0
BITMAP
FE
FE
41
41
7E
41
41
41
41
FE
ENDCHAR
STARTCHAR afii10068
ENCODING 1075
SWIDTH 350 0
DWIDTH 8 0
BBX 7 10 0 0
BITMAP
FE
FE
42
40
40
40
40
40
40
F0
ENDCHAR
STARTCHAR afii10069
ENCODING 1076
SWIDTH 400 0
DWIDTH 10 0
BBX 8 12 0 -2
BITMAP
7F
7F
32
32
32
32
42
42
42
FF
81
81
ENDCHAR
STARTCHAR afii10070
ENCODING 1077
SWIDTH 400 0
DWIDTH 10 0
BBX 8 10 0 0
BITMAP
3C
3C
42
81
FF
80
80
80
42
3C
ENDCHAR
STARTCHAR afii10072
ENCODING 1078
SWIDTH 700 0
DWIDTH 17 0
BBX 16 10 0 0
BITMAP
7BDC
7BDC
3108
0910
0520
0BD0
3108
3108
4104
F3CF
ENDCHAR
STARTCHAR afii10073
ENCODING 1079
SWIDTH 350 0
DWIDTH 8 0
BBX 7 10 0 0
BITMAP
BC
BC
C2
02
7C
02
02
02
82
7C
ENDCHAR
STARTCHAR afii10074
ENCODING 1080
SWIDTH 450 0
DWIDTH 11 0
BBX 10 10 0 0
BITMAP
F1C0
F1C0
4300
4500
4500
4900
4900
4900
7100
43C0
ENDCHAR
STARTCHAR afii10075
ENCODING 1081
SWIDTH 450 0
DWIDTH 11 0
BBX 10 13 0 0
BITMAP
4100
3E00
0000
F1C0
F1C0
4300
4500
4500
4900
4900
4900
7100
43C0
ENDCHAR
STARTCHAR afii10076
ENCODING 1082
SWIDTH 450 0
DWIDTH 11 0
BBX 10 10 0 0
BITMAP
F700
F700
4200
4400
4800
7400
4200
4200
4100
F3C0
ENDCHAR
STARTCHAR afii10077
ENCODING 1083
SWIDTH 400 0
DWIDTH 10 0
BBX 8 10 0 0
BITMAP
7F
7F
32
32
32
32
32
32
32
C7
ENDCHAR
STARTCHAR afii10078
ENCODING 1084
SWIDTH 500 0
DWIDTH 12 0
BBX 11 10 0 0
BITMAP
C0E0
C0E0
71C0
4AC0
44C0
44C0
40C0
40C0
40C0
F1E0
ENDCHAR
STARTCHAR afii10079
ENCODING 1085
SWIDTH 450 0
DWIDTH 11 0
BBX 10 10 0 0
BITMAP
F3C0
F3C0
4100
4100
7F00
4100
4100
4100
4100
F3C0
ENDCHAR
STARTCHAR afii10080
ENCODING 1086
SWIDTH 400 0
DWIDTH 10 0
BBX 8 10 0 0
BITMAP
3C
3C
42
81
81
81
81
81
42
3C
ENDCHAR
STARTCHAR afii10081
ENCODING 1087
SWIDTH 450 0
DWIDTH 11 0
BBX 10 10 0 0
BITMAP
FFC0
FFC0
4100
4100
4100
4100
4100
4100
4100
F3C0
ENDCHAR
STARTCHAR afii10082
ENCODING 1088
SWIDTH 450 0
DWIDTH 11 0
BBX 10 15 0 -5
BITMAP
CE00
CE00
7100
40C0
40C0
40C0
40C0
40C0
7100
4E00
4000
4000
4000
4000
F000
ENDCHAR
STARTCHAR afii10083
ENCODING 1089
SWIDTH 400 0
DWIDTH 10 0
BBX 8 10 0 0
BITMAP
3D
3D
43
81
80
80
81
81
42
3C
ENDCHAR
STARTCHAR afii10084
ENCODING 1090
SWIDTH 400 0
DWIDTH 10 0
BBX 8 10 0 0
BITMAP
FF
FF
89
08
08
08
08
08
08
3C
ENDCHAR
STARTCHAR afii10085
ENCODING 1091
SWIDTH 400 0
DWIDTH 10 0
BBX 8 15 0 -5
BITMAP
F7
F7
42
42
34
34
34
34
08
08
30
30
40
40
80
ENDCHAR
STARTCHAR afii10086
ENCODING 1092
SWIDTH 600 0
DWIDTH 14 0
BBX 13 19 0 -5
BITMAP
0700
0200
0200
0200
3AE0
3AE0
4710
8208
8208
8208
8208
8208
4710
3AE0
0200
0200
0200
0200
0700
ENDCHAR
STARTCHAR afii10087
ENCODING 1093
SWIDTH 400 0
DWIDTH 10 0
BBX 8 10 0 0
BITMAP
F7
F7
42
34
08
08
34
34
42
F7
ENDCHAR
STARTCHAR afii10088
ENCODING 1094
SWIDTH 450 0
DWIDTH 11 0
BBX 10 12 0 -2
BITMAP
F3C0
F3C0
4100
4100
4100
4100
4100
4100
4100
FFC0
00C0
00C0
ENDCHAR
STARTCHAR afii10089
ENCODING 1095
SWIDTH 450 0
DWIDTH 11 0
BBX 10 10 0 0
BITMAP
F3C0
F3C0
4100
4100
3F00
0100
0100
0100
0100
03C0
ENDCHAR
STARTCHAR afii10090
ENCODING 1096
SWIDTH 600 0
DWIDTH 14 0
BBX 13 10 0 0
BITMAP
F738
F738
4210
4210
4210
4210
4210
4210
4210
FFF8
ENDCHAR
STARTCHAR afii10091
ENCODING 1097
SWIDTH 600 0
DWIDTH 14 0
BBX 13 12 0 -2
BITMAP
F738
F738
4210
4210
4210
4210
4210
4210
4210
FFF8
0008
0008
ENDCHAR
STARTCHAR afii10092
ENCODING 1098
SWIDTH 500 0
DWIDTH 12 0
BBX 11 10 0 0
BITMAP
FC00
FC00
8800
0800
0FC0
0820
0820
0820
0820
3FC0
ENDCHAR
STARTCHAR afii10093
ENCODING 1099
SWIDTH 550 0
DWIDTH 13 0
BBX 12 10 0 0
BITMAP
F0F0
F0F0
4020
4020
7E20
4120
4120
4120
4120
FEF0
ENDCHAR
STARTCHAR afii10094
ENCODING 1100
SWIDTH 400 0
DWIDTH 10 0
BBX 8 10 0 0
BITMAP
F0
F0
40
40
7E
41
41
41
41
FE
ENDCHAR
STARTCHAR afii10095
ENCODING 1101
SWIDTH 400 0
DWIDTH 10 0
BBX 8 10 0 0
BITMAP
BC
BC
C2
89
0F
09
81
81
42
3C
ENDCHAR
STARTCHAR afii10096
ENCODING 1102
SWIDTH 550 0
DWIDTH 13 0
BBX 12 10 0 0
BITMAP
F3C0
F3C0
4420
4810
7810
4810
4810
4810
4420
F3C0
ENDCHAR
STARTCHAR afii10097
ENCODING 1103
SWIDTH 400 0
DWIDTH 10 0
BBX 8 10 0 0
BITMAP
7F
7F
82
82
82
7E
0A
0A
32
C7
ENDCHAR
STARTCHAR uni0450
ENCODING 1104
SWIDTH 400 0
DWIDTH 10 0
BBX 8 13 0 0
BITMAP
30
08
00
3C
3C
42
81
FF
80
80
80
42
3C
ENDCHAR
STARTCHAR afii10071
ENCODING 1105
SWIDTH 400 0
DWIDTH 10 0
BBX 8 12 0 0
BITMAP
34
00
3C
3C
42
81
FF
80
80
80
42
3C
ENDCHAR
STARTCHAR afii10099
ENCODING 1106
SWIDTH 400 0
DWIDTH 10 0
BBX 8 19 0 -5
BITMAP
C0
40
F0
40
4C
4C
72
41
41
41
41
41
41
F1
01
01
32
32
0C
ENDCHAR
STARTCHAR afii10100
ENCODING 1107
SWIDTH 350 0
DWIDTH 8 0
BBX 7 13 0 0
BITMAP
08
30
00
FE
FE
42
40
40
40
40
40
40
F0
ENDCHAR
STARTCHAR afii10101
ENCODING 1108
SWIDTH 400 0
DWIDTH 10 0
BBX 8 10 0 0
BITMAP
3D
3D
43
89
F8
88
81
81
42
3C
ENDCHAR
STARTCHAR afii10102
ENCODING 1109
SWIDTH 350 0
DWIDTH 8 0
BBX 7 10 0 0
BITMAP
7A
7A
86
82
70
0C
82
82
C2
BC
ENDCHAR
STARTCHAR afii10103
ENCODING 1110
SWIDTH 200 0
DWIDTH 5 0
BBX 4 14 0 0
BITMAP
40
40
00
00
C0
C0
40
40
40
40
40
40
40
F0
ENDCHAR
STARTCHAR afii10104
ENCODING 1111
SWIDTH 200 0
DWIDTH 5 0
BBX 6 13 -1 0
BITMAP
DC
00
00
60
60
20
20
20
20
20
20
20
78
ENDCHAR
STARTCHAR afii10105
ENCODING 1112
SWIDTH 150 0
DWIDTH 4 0
BBX 4 19 -2 -5
BITMAP
10
10
00
00
30
30
10
10
10
10
10
10
10
10
10
10
20
20
C0
ENDCHAR
STARTCHAR afii10106
ENCODING 1113
SWIDTH 600 0
DWIDTH 14 0
BBX 13 10 0 0
BITMAP
7F00
7F00
3200
3200
33F0
3208
3208
3208
3208
C7F0
ENDCHAR
STARTCHAR afii10107
ENCODING 1114
SWIDTH 600 0
DWIDTH 14 0
BBX 13 10 0 0
BITMAP
F700
F700
4200
4200
7FF0
4208
4208
4208
4208
F7F0
ENDCHAR
STARTCHAR afii10108
ENCODING 1115
SWIDTH 450 0
DWIDTH 11 0
BBX 10 14 0 0
BITMAP
C000
4000
F000
4000
4C00
4C00
7200
4100
4100
4100
4100
4100
4100
F3C0
ENDCHAR
STARTCHAR afii10109
ENCODING 1116
SWIDTH 450 0
DWIDTH 11 0
BBX 10 13 0 0
BITMAP
0400
0800
0000
F700
F700
4200
4400
4800
7400
4200
4200
4100
F3C0
ENDCHAR
STARTCHAR uni045D
ENCODING 1117
SWIDTH 450 0
DWIDTH 11 0
BBX 10 13 0 0
BITMAP
0800
0400
0000
F1C0
F1C0
4300
4500
4500
4900
4900
4900
7100
43C0
ENDCHAR
STARTCHAR afii10110
ENCODING 1118
SWIDTH 400 0
DWIDTH 10 0
BBX 8 18 0 -5
BITMAP
42
3C
00
F7
F7
42
42
34
34
34
34
08
08
30
30
40
40
80
ENDCHAR
STARTCHAR afii10193
ENCODING 1119
SWIDTH 450 0
DWIDTH 11 0
BBX 10 12 0 -2
BITMAP
F3C0
F3C0
4100
4100
4100
4100
4100
4100
4100
FFC0
0400
0400
ENDCHAR
STARTCHAR uni0460
ENCODING 1120
SWIDTH 700 0
DWIDTH 17 0
BBX 16 13 0 0
BITMAP
F3CF
4104
4104
3108
3108
3108
3108
0AD0
0AD0
0AD0
0AD0
0420
0420
ENDCHAR
STARTCHAR uni0461
ENCODING 1121
SWIDTH 500 0
DWIDTH 12 0
BBX 11 10 0 0
BITMAP
CDE0
CDE0
44C0
44C0
3500
3500
3500
3500
0A00
0A00
ENDCHAR
STARTCHAR uni0462
ENCODING 1122
SWIDTH 450 0
DWIDTH 11 0
BBX 11 13 -1 0
BITMAP
7800
2000
FC00
A400
A400
2000
3F00
2080
2060
2060
2060
2080
7F00
ENDCHAR
STARTCHAR uni0463
ENCODING 1123
SWIDTH 400 0
DWIDTH 10 0
BBX 9 10 -1 0
BITMAP
7800
7800
2000
FC00
BF00
2080
2080
2080
2080
7F00
ENDCHAR
STARTCHAR uni0464
ENCODING 1124
SWIDTH 600 0
DWIDTH 14 0
BBX 13 13 0 0
BITMAP
F1E8
4618
4408
4800
4800
4820
7FE0
4820
4800
4408
4408
4618
F1E0
ENDCHAR
STARTCHAR uni0465
ENCODING 1125
SWIDTH 550 0
DWIDTH 13 0
BBX 12 10 0 0
BITMAP
F3D0
F3D0
4430
4910
7F00
4900
4810
4810
4420
F3C0
ENDCHAR
STARTCHAR uni0466
ENCODING 1126
SWIDTH 500 0
DWIDTH 12 0
BBX 11 13 0 0
BITMAP
0C00
0400
0A00
0A00
0A00
0A00
3100
3100
3B00
4AC0
4AC0
44C0
F5E0
ENDCHAR
STARTCHAR uni0467
ENCODING 1127
SWIDTH 400 0
DWIDTH 10 0
BBX 8 10 0 0
BITMAP
08
08
08
34
34
34
4A
4A
4A
CB
ENDCHAR
STARTCHAR uni0468
ENCODING 1128
SWIDTH 700 0
DWIDTH 17 0
BBX 16 13 0 0
BITMAP
F0E0
4020
40D0
40D0
40D0
40D0
7F08
4108
41D8
42D4
42D4
4224
F72F
ENDCHAR
STARTCHAR uni0469
ENCODING 1129
SWIDTH 600 0
DWIDTH 14 0
BBX 13 10 0 0
BITMAP
F0C0
F0C0
40C0
4120
7F20
4120
42D0
42D0
42D0
F6D8
ENDCHAR
STARTCHAR uni046A
ENCODING 1130
SWIDTH 600 0
DWIDTH 14 0
BBX 13 13 0 0
BITMAP
7FF0
3020
08C0
0500
0500
0200
0FC0
3220
4210
4210
4210
4210
F738
ENDCHAR
STARTCHAR uni046B
ENCODING 1131
SWIDTH 600 0
DWIDTH 14 0
BBX 13 10 0 0
BITMAP
3FE0
3FE0
08C0
0500
0200
3FE0
4210
4210
4210
F738
ENDCHAR
STARTCHAR uni046C
ENCODING 1132
SWIDTH 800 0
DWIDTH 19 0
BBX 18 13 0 0
BITMAP
F3FF80
410300
40C400
402800
402800
401000
7FFC00
411300
421080
421080
421080
421080
F73BC0
ENDCHAR
STARTCHAR uni046D
ENCODING 1133
SWIDTH 800 0
DWIDTH 19 0
BBX 18 10 0 0
BITMAP
F1FF00
F1FF00
40C400
402800
401000
7FFF00
421080
421080
421080
F73BC0
ENDCHAR
STARTCHAR uni046E
ENCODING 1134
SWIDTH 400 0
DWIDTH 10 0
BBX 8 22 0 -5
BITMAP
34
08
08
00
BC
C2
81
01
01
02
3C
02
01
01
01
02
7C
80
80
7C
7C
02
ENDCHAR
STARTCHAR uni046F
ENCODING 1135
SWIDTH 350 0
DWIDTH 8 0
BBX 7 18 0 -5
BITMAP
44
38
00
BC
BC
C2
02
7C
02
02
02
02
7C
80
80
7C
7C
02
ENDCHAR
STARTCHAR uni0470
ENCODING 1136
SWIDTH 500 0
DWIDTH 12 0
BBX 12 13 0 0
BITMAP
8E10
4420
44C0
44C0
44C0
3500
0E00
0400
0400
0400
0400
0400
0E00
ENDCHAR
STARTCHAR uni0471
ENCODING 1137
SWIDTH 500 0
DWIDTH 12 0
BBX 12 15 0 -5
BITMAP
8410
8410
4420
4420
44C0
44C0
44C0
44C0
3500
0E00
0400
0400
0400
0400
0400
ENDCHAR
STARTCHAR uni0472
ENCODING 1138
SWIDTH 500 0
DWIDTH 12 0
BBX 11 13 0 0
BITMAP
0E00
71C0
40C0
8020
8020
B820
C4E0
8320
8020
40C0
40C0
71C0
0E00
ENDCHAR
STARTCHAR uni0473
ENCODING 1139
SWIDTH 400 0
DWIDTH 10 0
BBX 8 10 0 0
BITMAP
3C
3C
42
81
BB
CD
81
81
42
3C
ENDCHAR
STARTCHAR uni0474
ENCODING 1140
SWIDTH 500 0
DWIDTH 12 0
BBX 12 13 0 0
BITMAP
F020
40D0
40C0
3100
3100
3100
3100
0A00
0A00
0A00
0A00
0400
0400
ENDCHAR
STARTCHAR uni0475
ENCODING 1141
SWIDTH 400 0
DWIDTH 10 0
BBX 10 10 0 0
BITMAP
F100
F100
42C0
4200
3400
3400
3400
3400
0800
0800
ENDCHAR
STARTCHAR uni0476
ENCODING 1142
SWIDTH 500 0
DWIDTH 12 0
BBX 12 17 0 0
BITMAP
3400
0A00
0A00
0000
F020
40D0
40C0
3100
3100
3100
3100
0A00
0A00
0A00
0A00
0400
0400
ENDCHAR
STARTCHAR uni0477
ENCODING 1143
SWIDTH 400 0
DWIDTH 10 0
BBX 10 13 0 0
BITMAP
4800
3400
0000
F100
F100
42C0
4200
3400
3400
3400
3400
0800
0800
ENDCHAR
STARTCHAR uni0478
ENCODING 1144
SWIDTH 850 0
DWIDTH 20 0
BBX 19 18 0 -5
BITMAP
0E0000
71C000
40C000
803CE0
803CE0
802840
802840
802480
802480
40C480
40C480
71C300
0E0300
000400
000400
000800
000800
001000
ENDCHAR
STARTCHAR uni0479
ENCODING 1145
SWIDTH 750 0
DWIDTH 18 0
BBX 17 15 0 -5
BITMAP
3CF780
3CF780
422300
812300
811400
811400
811400
811400
420800
3C0800
001000
001000
002000
002000
00C000
ENDCHAR
STARTCHAR uni047A
ENCODING 1146
SWIDTH 550 0
DWIDTH 13 0
BBX 12 15 0 -1
BITMAP
0600
0F00
76E0
4020
8010
8010
8010
8010
8010
8010
4020
4020
76E0
0F00
0600
ENDCHAR
STARTCHAR uni047B
ENCODING 1147
SWIDTH 450 0
DWIDTH 11 0
BBX 10 12 0 -1
BITMAP
0C00
3E00
3E00
4D00
80C0
80C0
80C0
80C0
80C0
4D00
3E00
0C00
ENDCHAR
STARTCHAR uni047C
ENCODING 1148
SWIDTH 700 0
DWIDTH 17 0
BBX 16 17 0 0
BITMAP
0020
07E0
07E0
0400
3008
4304
4104
8003
8003
8003
83C3
8103
8103
42C4
42C4
42C4
3C38
ENDCHAR
STARTCHAR uni047D
ENCODING 1149
SWIDTH 600 0
DWIDTH 14 0
BBX 13 14 0 0
BITMAP
0010
7FF0
4000
0600
3220
3220
4010
8008
8708
8208
8208
8208
4510
38E0
ENDCHAR
STARTCHAR uni047E
ENCODING 1150
SWIDTH 700 0
DWIDTH 17 0
BBX 16 17 0 0
BITMAP
0FF0
0910
0910
0000
F3CF
4104
4104
3108
3108
3108
3108
0AD0
0AD0
0AD0
0AD0
0420
0420
ENDCHAR
STARTCHAR uni047F
ENCODING 1151
SWIDTH 500 0
DWIDTH 12 0
BBX 11 13 0 0
BITMAP
7FC0
44C0
0000
CDE0
CDE0
44C0
44C0
3500
3500
3500
3500
0A00
0A00
ENDCHAR
STARTCHAR uni0480
ENCODING 1152
SWIDTH 450 0
DWIDTH 11 0
BBX 10 15 0 -2
BITMAP
0EC0
71C0
40C0
8000
8000
8000
8000
8000
8000
4000
4000
7000
0E00
0200
0200
ENDCHAR
STARTCHAR uni0481
ENCODING 1153
SWIDTH 400 0
DWIDTH 10 0
BBX 8 12 0 -2
BITMAP
3D
3D
43
81
80
80
80
80
40
3C
04
04
ENDCHAR
STARTCHAR uni2000
ENCODING 8192
SWIDTH 500 0
DWIDTH 12 0
BBX 1 1 0 0
BITMAP
00
ENDCHAR
STARTCHAR uni2001
ENCODING 8193
SWIDTH 1000 0
DWIDTH 24 0
BBX 1 1 0 0
BITMAP
00
ENDCHAR
STARTCHAR uni2002
ENCODING 8194
SWIDTH 500 0
DWIDTH 12 0
BBX 1 1 0 0
BITMAP
00
ENDCHAR
STARTCHAR uni2003
ENCODING 8195
SWIDTH 1000 0
DWIDTH 24 0
BBX 1 1 0 0
BITMAP
00
ENDCHAR
STARTCHAR uni2004
ENCODING 8196
SWIDTH 350 0
DWIDTH 8 0
BBX 1 1 0 0
BITMAP
00
ENDCHAR
STARTCHAR uni2005
ENCODING 8197
SWIDTH 250 0
DWIDTH 6 0
BBX 1 1 0 0
BITMAP
00
ENDCHAR
STARTCHAR uni2006
ENCODING 8198
SWIDTH 150 0
DWIDTH 4 0
BBX 1 1 0 0
BITMAP
00
ENDCHAR
STARTCHAR uni2007
ENCODING 8199
SWIDTH 400 0
DWIDTH 10 0
BBX 1 1 0 0
BITMAP
00
ENDCHAR
STARTCHAR uni2008
ENCODING 8200
SWIDTH 200 0
DWIDTH 5 0
BBX 1 1 0 0
BITMAP
00
ENDCHAR
STARTCHAR uni2009
ENCODING 8201
SWIDTH 150 0
DWIDTH 4 0
BBX 1 1 0 0
BITMAP
00
ENDCHAR
STARTCHAR uni200A
ENCODING 8202
SWIDTH 50 0
DWIDTH 1 0
BBX 1 1 0 0
BITMAP
00
ENDCHAR
STARTCHAR uni200B
ENCODING 8203
SWIDTH 0 0
DWIDTH 0 0
BBX 1 1 0 0
BITMAP
00
ENDCHAR
STARTCHAR uni200C
ENCODING 8204
SWIDTH 0 0
DWIDTH 0 0
BBX 1 1 0 0
BITMAP
00
ENDCHAR
STARTCHAR uni200D
ENCODING 8205
SWIDTH 0 0
DWIDTH 0 0
BBX 1 1 0 0
BITMAP
00
ENDCHAR
STARTCHAR uni200E
ENCODING 8206
SWIDTH 0 0
DWIDTH 0 0
BBX 1 1 0 0
BITMAP
00
ENDCHAR
STARTCHAR uni200F
ENCODING 8207
SWIDTH 0 0
DWIDTH 0 0
BBX 1 1 0 0
BITMAP
00
ENDCHAR
STARTCHAR uni2010
ENCODING 8208
SWIDTH 350 0
DWIDTH 8 0
BBX 7 1 0 5
BITMAP
FE
ENDCHAR
STARTCHAR uni2011
ENCODING 8209
SWIDTH 350 0
DWIDTH 8 0
BBX 7 1 0 5
BITMAP
FE
ENDCHAR
STARTCHAR uni2012
ENCODING 8210
SWIDTH 400 0
DWIDTH 10 0
BBX 8 1 0 5
BITMAP
FF
ENDCHAR
STARTCHAR endash
ENCODING 8211
SWIDTH 400 0
DWIDTH 10 0
BBX 8 1 0 5
BITMAP
FF
ENDCHAR
STARTCHAR emdash
ENCODING 8212
SWIDTH 650 0
DWIDTH 16 0
BBX 14 1 0 5
BITMAP
FFFC
ENDCHAR
STARTCHAR afii00208
ENCODING 8213
SWIDTH 650 0
DWIDTH 16 0
BBX 14 1 0 5
BITMAP
FFFC
ENDCHAR
STARTCHAR uni2016
ENCODING 8214
SWIDTH 200 0
DWIDTH 5 0
BBX 4 18 0 -4
BITMAP
B0
B0
B0
B0
B0
B0
B0
B0
B0
B0
B0
B0
B0
B0
B0
B0
B0
B0
ENDCHAR
STARTCHAR underscoredbl
ENCODING 8215
SWIDTH 400 0
DWIDTH 10 0
BBX 8 4 0 -4
BITMAP
FF
00
FF
FF
ENDCHAR
STARTCHAR quoteleft
ENCODING 8216
SWIDTH 150 0
DWIDTH 4 0
BBX 2 4 0 10
BITMAP
40
80
C0
C0
ENDCHAR
STARTCHAR quoteright
ENCODING 8217
SWIDTH 150 0
DWIDTH 4 0
BBX 2 4 0 10
BITMAP
C0
C0
40
80
ENDCHAR
STARTCHAR quotesinglbase
ENCODING 8218
SWIDTH 150 0
DWIDTH 4 0
BBX 2 4 0 -2
BITMAP
C0
C0
40
80
ENDCHAR
STARTCHAR quotereversed
ENCODING 8219
SWIDTH 150 0
DWIDTH 4 0
BBX 2 4 0 10
BITMAP
C0
C0
80
40
ENDCHAR
STARTCHAR quotedblleft
ENCODING 8220
SWIDTH 300 0
DWIDTH 7 0
BBX 6 4 0 10
BITMAP
44
88
CC
CC
ENDCHAR
STARTCHAR quotedblright
ENCODING 8221
SWIDTH 300 0
DWIDTH 7 0
BBX 6 4 0 10
BITMAP
CC
CC
44
88
ENDCHAR
STARTCHAR quotedblbase
ENCODING 8222
SWIDTH 300 0
DWIDTH 7 0
BBX 6 4 0 -2
BITMAP
CC
CC
44
88
ENDCHAR
STARTCHAR uni201F
ENCODING 8223
SWIDTH 300 0
DWIDTH 7 0
BBX 6 4 0 10
BITMAP
CC
CC
88
44
ENDCHAR
STARTCHAR dagger
ENCODING 8224
SWIDTH 300 0
DWIDTH 7 0
BBX 6 8 0 6
BITMAP
30
30
FC
30
30
30
30
30
ENDCHAR
STARTCHAR daggerdbl
ENCODING 8225
SWIDTH 300 0
DWIDTH 7 0
BBX 6 9 0 5
BITMAP
30
30
FC
30
30
30
FC
30
30
ENDCHAR
STARTCHAR bullet
ENCODING 8226
SWIDTH 300 0
DWIDTH 7 0
BBX 6 6 0 4
BITMAP
78
78
FC
FC
FC
78
ENDCHAR
STARTCHAR uni2023
ENCODING 8227
SWIDTH 300 0
DWIDTH 7 0
BBX 6 6 0 4
BITMAP
80
80
F0
FC
F0
80
ENDCHAR
STARTCHAR uni2024
ENCODING 8228
SWIDTH 200 0
DWIDTH 5 0
BBX 1 2 1 0
BITMAP
80
80
ENDCHAR
STARTCHAR uni2025
ENCODING 8229
SWIDTH 350 0
DWIDTH 8 0
BBX 5 2 1 0
BITMAP
88
88
ENDCHAR
STARTCHAR ellipsis
ENCODING 8230
SWIDTH 500 0
DWIDTH 12 0
BBX 9 2 1 0
BITMAP
8980
8980
ENDCHAR
STARTCHAR uni2027
ENCODING 8231
SWIDTH 100 0
DWIDTH 2 0
BBX 1 2 0 6
BITMAP
80
80
ENDCHAR
STARTCHAR perthousand
ENCODING 8240
SWIDTH 650 0
DWIDTH 16 0
BBX 14 13 0 0
BITMAP
7700
8900
8A00
8A00
8A00
7400
0400
05D8
0A24
0A24
0A24
3224
31D8
ENDCHAR
STARTCHAR uni2031
ENCODING 8241
SWIDTH 800 0
DWIDTH 19 0
BBX 18 13 0 0
BITMAP
770000
890000
8A0000
8A0000
8A0000
740000
040000
05DB80
0A2440
0A2440
0A2440
322440
31DB80
ENDCHAR
STARTCHAR guilsinglleft
ENCODING 8249
SWIDTH 250 0
DWIDTH 6 0
BBX 5 9 0 1
BITMAP
08
08
30
40
80
40
30
30
08
ENDCHAR
STARTCHAR guilsinglright
ENCODING 8250
SWIDTH 250 0
DWIDTH 6 0
BBX 5 9 0 1
BITMAP
80
80
40
30
08
30
40
40
80
ENDCHAR
STARTCHAR exclamdbl
ENCODING 8252
SWIDTH 200 0
DWIDTH 5 0
BBX 4 13 0 0
BITMAP
B0
B0
B0
B0
B0
B0
B0
B0
B0
00
00
B0
B0
ENDCHAR
STARTCHAR uni203D
ENCODING 8253
SWIDTH 400 0
DWIDTH 10 0
BBX 8 14 0 0
BITMAP
08
3C
4A
89
09
09
0A
0C
08
08
00
00
08
08
ENDCHAR
STARTCHAR fraction
ENCODING 8260
SWIDTH 200 0
DWIDTH 5 0
BBX 13 13 -5 0
BITMAP
0008
0010
0020
0040
0040
0180
0200
0400
0800
1000
1000
6000
8000
ENDCHAR
STARTCHAR uni2047
ENCODING 8263
SWIDTH 800 0
DWIDTH 19 0
BBX 18 13 0 0
BITMAP
3C0F00
421080
812040
010040
010040
020080
040300
080400
080400
000000
000000
080400
080400
ENDCHAR
STARTCHAR uni2048
ENCODING 8264
SWIDTH 500 0
DWIDTH 12 0
BBX 11 13 0 0
BITMAP
3C20
4220
8120
0120
0120
0220
0420
0820
0820
0000
0000
0820
0820
ENDCHAR
STARTCHAR uni2049
ENCODING 8265
SWIDTH 500 0
DWIDTH 12 0
BBX 11 13 0 0
BITMAP
8700
88C0
B020
8020
8020
80C0
8100
8200
8200
0000
0000
8200
8200
ENDCHAR
STARTCHAR Euro
ENCODING 8364
SWIDTH 550 0
DWIDTH 13 0
BBX 12 13 0 0
BITMAP
03D0
0C30
0810
3000
3000
FC00
3000
FC00
3000
0810
0810
0C30
03C0
ENDCHAR
STARTCHAR uni2117
ENCODING 8471
SWIDTH 600 0
DWIDTH 14 0
BBX 13 13 0 0
BITMAP
0700
38E0
4010
4F10
4F10
88C8
8F08
8808
4810
4010
4010
38E0
0700
ENDCHAR
STARTCHAR uni2120
ENCODING 8480
SWIDTH 500 0
DWIDTH 12 0
BBX 11 4 0 10
BITMAP
7420
C6E0
3520
C420
ENDCHAR
STARTCHAR trademark
ENCODING 8482
SWIDTH 500 0
DWIDTH 12 0
BBX 11 4 0 10
BITMAP
F420
46E0
4520
4420
ENDCHAR
STARTCHAR Omega
ENCODING 8486
SWIDTH 550 0
DWIDTH 13 0
BBX 12 13 0 0
BITMAP
0F00
70E0
4020
8010
8010
8010
8010
4020
70E0
0900
0900
8910
F9F0
ENDCHAR
STARTCHAR uni2127
ENCODING 8487
SWIDTH 550 0
DWIDTH 13 0
BBX 12 13 0 0
BITMAP
F9F0
8910
0900
70E0
70E0
4020
8010
8010
8010
4020
4020
70E0
0F00
ENDCHAR
STARTCHAR uni21E7
ENCODING 8679
SWIDTH 500 0
DWIDTH 12 0
BBX 11 13 0 0
BITMAP
0400
0A00
3100
40C0
40C0
F1E0
3100
3100
3100
3100
3100
3100
3F00
ENDCHAR
STARTCHAR uni2200
ENCODING 8704
SWIDTH 500 0
DWIDTH 12 0
BBX 11 13 0 0
BITMAP
F1E0
40C0
40C0
3100
3100
3F00
3100
0A00
0A00
0A00
0A00
0400
0C00
ENDCHAR
STARTCHAR uni2201
ENCODING 8705
SWIDTH 350 0
DWIDTH 8 0
BBX 7 13 0 0
BITMAP
3A
46
42
80
80
80
80
80
80
40
40
42
3C
ENDCHAR
STARTCHAR partialdiff
ENCODING 8706
SWIDTH 400 0
DWIDTH 10 0
BBX 8 14 0 0
BITMAP
38
04
02
01
0D
0D
33
41
81
81
82
82
44
38
ENDCHAR
STARTCHAR uni2203
ENCODING 8707
SWIDTH 450 0
DWIDTH 11 0
BBX 10 13 0 0
BITMAP
FFC0
8100
0100
0100
0100
3100
3F00
3100
0100
0100
0100
8100
FFC0
ENDCHAR
STARTCHAR uni2204
ENCODING 8708
SWIDTH 450 0
DWIDTH 11 0
BBX 10 18 0 -2
BITMAP
0200
0200
0200
FFC0
8500
0500
0500
0500
3900
3F00
3900
3100
3100
3100
B100
FFC0
4000
4000
ENDCHAR
STARTCHAR uni2205
ENCODING 8709
SWIDTH 600 0
DWIDTH 14 0
BBX 13 13 0 0
BITMAP
0FC8
3030
4030
80C8
80C8
8108
8208
8408
8808
7010
7010
7020
8FC0
ENDCHAR
STARTCHAR Delta
ENCODING 8710
SWIDTH 500 0
DWIDTH 12 0
BBX 11 13 0 0
BITMAP
0400
0400
0400
0A00
0A00
0A00
3100
3100
40C0
40C0
40C0
8020
FFE0
ENDCHAR
STARTCHAR uni2207
ENCODING 8711
SWIDTH 500 0
DWIDTH 12 0
BBX 11 13 0 0
BITMAP
FFE0
8020
40C0
40C0
40C0
3100
3100
0A00
0A00
0400
0400
0400
0400
ENDCHAR
STARTCHAR uni2208
ENCODING 8712
SWIDTH 400 0
DWIDTH 10 0
BBX 8 13 0 0
BITMAP
0F
30
40
80
80
80
FF
80
80
40
40
30
0F
ENDCHAR
STARTCHAR uni2209
ENCODING 8713
SWIDTH 400 0
DWIDTH 10 0
BBX 8 18 0 -2
BITMAP
02
02
02
0F
34
44
84
84
88
FF
88
B0
70
70
30
4F
40
40
ENDCHAR
STARTCHAR uni220A
ENCODING 8714
SWIDTH 300 0
DWIDTH 7 0
BBX 6 10 0 0
BITMAP
3C
3C
40
80
FC
80
80
80
40
3C
ENDCHAR
STARTCHAR uni220B
ENCODING 8715
SWIDTH 400 0
DWIDTH 10 0
BBX 8 13 0 0
BITMAP
F8
04
02
01
01
01
FF
01
01
02
02
04
F8
ENDCHAR
STARTCHAR uni220C
ENCODING 8716
SWIDTH 400 0
DWIDTH 10 0
BBX 8 18 0 -2
BITMAP
02
02
02
FA
04
06
05
05
09
FF
09
31
32
32
34
F8
40
40
ENDCHAR
STARTCHAR uni220D
ENCODING 8717
SWIDTH 300 0
DWIDTH 7 0
BBX 6 10 0 0
BITMAP
F0
F0
08
04
FC
04
04
04
08
F0
ENDCHAR
STARTCHAR product
ENCODING 8719
SWIDTH 550 0
DWIDTH 13 0
BBX 12 18 0 -4
BITMAP
FFF0
4020
4020
4020
4020
4020
4020
4020
4020
4020
4020
4020
4020
4020
4020
4020
F0F0
F0F0
ENDCHAR
STARTCHAR uni2210
ENCODING 8720
SWIDTH 550 0
DWIDTH 13 0
BBX 12 18 0 -4
BITMAP
F0F0
4020
4020
4020
4020
4020
4020
4020
4020
4020
4020
4020
4020
4020
4020
4020
FFF0
FFF0
ENDCHAR
STARTCHAR summation
ENCODING 8721
SWIDTH 550 0
DWIDTH 13 0
BBX 12 18 0 -4
BITMAP
FFF0
4010
4000
3000
3000
3000
0800
0800
0400
0800
0800
0800
3000
3000
4000
4010
FFF0
FFF0
ENDCHAR
STARTCHAR radical
ENCODING 8730
SWIDTH 500 0
DWIDTH 12 0
BBX 11 14 0 0
BITMAP
0020
0020
00C0
00C0
0100
0100
0100
C200
4200
3400
3400
3400
0800
0800
ENDCHAR
STARTCHAR uni221B
ENCODING 8731
SWIDTH 500 0
DWIDTH 12 0
BBX 11 16 0 0
BITMAP
7800
7800
8420
3820
04C0
84C0
7900
7900
0100
C200
4200
3400
3400
3400
0800
0800
ENDCHAR
STARTCHAR uni221C
ENCODING 8732
SWIDTH 500 0
DWIDTH 12 0
BBX 11 16 0 0
BITMAP
0800
0800
3820
4820
FCC0
08C0
0900
0900
0100
C200
4200
3400
3400
3400
0800
0800
ENDCHAR
STARTCHAR uni221D
ENCODING 8733
SWIDTH 450 0
DWIDTH 11 0
BBX 10 6 0 4
BITMAP
71C0
71C0
8A00
8400
8A00
71C0
ENDCHAR
STARTCHAR infinity
ENCODING 8734
SWIDTH 500 0
DWIDTH 12 0
BBX 11 6 0 4
BITMAP
71C0
71C0
8A20
8420
8A20
71C0
ENDCHAR
STARTCHAR integral
ENCODING 8747
SWIDTH 300 0
DWIDTH 7 0
BBX 8 18 -1 -4
BITMAP
06
19
18
18
18
18
18
18
18
18
18
18
18
18
18
98
60
60
ENDCHAR
STARTCHAR uni222C
ENCODING 8748
SWIDTH 550 0
DWIDTH 13 0
BBX 14 18 -1 -4
BITMAP
0618
1964
1860
1860
1860
1860
1860
1860
1860
1860
1860
1860
1860
1860
1860
9A60
6180
6180
ENDCHAR
STARTCHAR uni222D
ENCODING 8749
SWIDTH 800 0
DWIDTH 19 0
BBX 20 18 -1 -4
BITMAP
061860
196590
186180
186180
186180
186180
186180
186180
186180
186180
186180
186180
186180
186180
186180
9A6980
618600
618600
ENDCHAR
STARTCHAR approxequal
ENCODING 8776
SWIDTH 350 0
DWIDTH 8 0
BBX 7 6 0 2
BITMAP
72
8C
00
72
8C
8C
ENDCHAR
STARTCHAR uni2249
ENCODING 8777
SWIDTH 350 0
DWIDTH 8 0
BBX 7 13 0 -1
BITMAP
04
04
08
08
7A
8C
30
72
BC
BC
30
40
40
ENDCHAR
STARTCHAR notequal
ENCODING 8800
SWIDTH 400 0
DWIDTH 10 0
BBX 8 9 0 1
BITMAP
04
04
04
FF
08
FF
30
30
30
ENDCHAR
STARTCHAR equivalence
ENCODING 8801
SWIDTH 350 0
DWIDTH 8 0
BBX 7 6 0 2
BITMAP
FE
00
FE
00
FE
FE
ENDCHAR
STARTCHAR uni2262
ENCODING 8802
SWIDTH 350 0
DWIDTH 8 0
BBX 7 11 0 0
BITMAP
04
04
04
FE
08
FE
30
FE
FE
40
40
ENDCHAR
STARTCHAR uni2263
ENCODING 8803
SWIDTH 350 0
DWIDTH 8 0
BBX 7 9 0 1
BITMAP
FE
FE
00
FE
00
FE
00
00
FE
ENDCHAR
STARTCHAR lessequal
ENCODING 8804
SWIDTH 250 0
DWIDTH 6 0
BBX 5 11 0 0
BITMAP
08
30
30
40
80
40
30
08
08
00
F8
ENDCHAR
STARTCHAR greaterequal
ENCODING 8805
SWIDTH 250 0
DWIDTH 6 0
BBX 5 11 0 0
BITMAP
80
40
40
30
08
30
40
80
80
00
F8
ENDCHAR
STARTCHAR uni2303
ENCODING 8963
SWIDTH 400 0
DWIDTH 10 0
BBX 8 5 0 8
BITMAP
08
34
42
81
81
ENDCHAR
STARTCHAR uni2318
ENCODING 8984
SWIDTH 600 0
DWIDTH 14 0
BBX 13 13 0 0
BITMAP
7030
88C8
88C8
7FF0
7FF0
08C0
08C0
08C0
7FF0
88C8
88C8
88C8
7030
ENDCHAR
STARTCHAR uni2325
ENCODING 8997
SWIDTH 650 0
DWIDTH 16 0
BBX 14 13 0 0
BITMAP
F83C
0800
0400
0400
0400
0200
0200
0100
0100
00C0
00C0
00C0
003C
ENDCHAR
STARTCHAR lozenge
ENCODING 9674
SWIDTH 300 0
DWIDTH 7 0
BBX 6 11 0 1
BITMAP
30
30
48
48
48
84
48
48
30
30
30
ENDCHAR
STARTCHAR uni2661
ENCODING 9825
SWIDTH 700 0
DWIDTH 17 0
BBX 16 13 0 0
BITMAP
3C38
42C4
8103
8003
8003
8003
4004
3008
0810
0420
0420
02C0
0100
ENDCHAR
STARTCHAR heart
ENCODING 9829
SWIDTH 700 0
DWIDTH 17 0
BBX 16 13 0 0
BITMAP
3C38
7EFC
FFFF
FFFF
FFFF
FFFF
7FFC
3FF8
0FF0
07E0
07E0
03C0
0100
ENDCHAR
STARTCHAR uniF600
ENCODING 62976
SWIDTH 1100 0
DWIDTH 26 0
BBX 28 14 0 0
BITMAP
00000030
000080C0
3C000100
42030100
40234100
40234100
38D36100
40E45200
81245200
81148E00
84108200
84108200
4A088000
3C040000
ENDCHAR
STARTCHAR uniF601
ENCODING 62977
SWIDTH 1350 0
DWIDTH 32 0
BBX 31 15 0 -2
BITMAP
01C00300
06301CC0
380C6038
C0038006
C0038006
380C6038
06301CC0
01C00300
06301CC0
380C6038
380C6038
C0038006
380C6038
06301CC0
01C00300
ENDCHAR
STARTCHAR uniF602
ENCODING 62978
SWIDTH 750 0
DWIDTH 18 0
BBX 17 16 0 -2
BITMAP
01C000
063000
380C00
C00380
B80C80
B80C80
863080
81C080
80C080
80C080
80C080
80C080
C0C380
38CC00
06F000
01C000
ENDCHAR
STARTCHAR uniF603
ENCODING 62979
SWIDTH 950 0
DWIDTH 23 0
BBX 22 18 0 -2
BITMAP
003000
003000
01CC00
060380
05CC80
043080
041080
041080
061380
39DC60
C0301C
B9DC6C
86138C
86138C
82108C
C2309C
3BCCE0
060380
ENDCHAR
STARTCHAR uniF604
ENCODING 62980
SWIDTH 750 0
DWIDTH 18 0
BBX 17 16 0 -2
BITMAP
01C000
06F000
3D2C00
CAD780
BD2F80
BD2F80
CEF480
B5EB80
CAD480
B5EB80
CAD480
CAD480
F5EB80
3ADC00
07F000
01C000
ENDCHAR
STARTCHAR uniF605
ENCODING 62981
SWIDTH 750 0
DWIDTH 18 0
BBX 15 14 1 -1
BITMAP
0380
0FE0
7FF8
8FE6
8FE6
F39E
FC7E
FE7E
FE7E
FE7E
FE7E
7E78
0E60
0200
ENDCHAR
STARTCHAR uniF606
ENCODING 62982
SWIDTH 800 0
DWIDTH 19 0
BBX 18 16 0 -2
BITMAP
00C000
01E000
02D000
00C000
00C000
00C000
00C000
00C000
00C000
00C000
00C000
00C000
033000
8C0C40
F003C0
F807C0
ENDCHAR
STARTCHAR uniF607
ENCODING 62983
SWIDTH 850 0
DWIDTH 20 0
BBX 19 18 0 -4
BITMAP
090000
36C000
30C000
450040
810060
810060
80C0A0
78FF20
0C3C20
0C0040
0C0040
0C0040
08F840
090440
090440
310840
3E0F80
3E0F80
ENDCHAR
STARTCHAR uniF608
ENCODING 62984
SWIDTH 1200 0
DWIDTH 29 0
BBX 29 24 0 -7
BITMAP
B5DCF3F8
B5DCF3F8
B5DCF3F8
B5DCF3F8
B5DCF3F8
B5DCF3F8
B5DCF3F8
B5DCF3F8
B5DCF3F8
B5DCF3F8
B5DCF3F8
B5DCF3F8
B5DCF3F8
B5DCF3F8
B5DCF3F8
B5DCF3F8
B5DCF3F8
B5DCF3F8
B5DCF3F8
B5DCF3F8
B5DCF3F8
B5DCF3F8
B5DCF3F8
B5DCF3F8
ENDCHAR
STARTCHAR uniF609
ENCODING 62985
SWIDTH 1200 0
DWIDTH 29 0
BBX 29 24 0 -7
BITMAP
FEFBDD48
FEFBDD48
FEFBDD48
FEFBDD48
FEFBDD48
FEFBDD48
FEFBDD48
FEFBDD48
FEFBDD48
FEFBDD48
FEFBDD48
FEFBDD48
FEFBDD48
FEFBDD48
FEFBDD48
FEFBDD48
FEFBDD48
FEFBDD48
FEFBDD48
FEFBDD48
FEFBDD48
FEFBDD48
FEFBDD48
FEFBDD48
ENDCHAR
STARTCHAR uniF60A
ENCODING 62986
SWIDTH 800 0
DWIDTH 19 0
BBX 19 24 0 -7
BITMAP
800FE0
8DCFE0
8DCFE0
B22FE0
B52FE0
8ACFE0
B52FE0
B22FE0
B22FE0
B52FE0
8ACFE0
B52FE0
B22FE0
B52FE0
B52FE0
8ACFE0
B52FE0
B22FE0
B52FE0
8ACFE0
8ACFE0
B52FE0
B22FE0
8DCFE0
ENDCHAR
STARTCHAR uniF60B
ENCODING 62987
SWIDTH 800 0
DWIDTH 19 0
BBX 19 24 0 -7
BITMAP
FE0020
FE3720
FE3720
FEC8A0
FED4A0
FE2B20
FED4A0
FEC8A0
FEC8A0
FED4A0
FE2B20
FED4A0
FEC8A0
FED4A0
FED4A0
FE2B20
FED4A0
FEC8A0
FED4A0
FE2B20
FE2B20
FED4A0
FEC8A0
FE3720
ENDCHAR
STARTCHAR uniF60C
ENCODING 62988
SWIDTH 1200 0
DWIDTH 29 0
BBX 21 24 1 -7
BITMAP
944618
944618
944618
944618
944618
944618
944618
944618
944618
944618
944618
944618
944618
944618
944618
944618
944618
944618
944618
944618
944618
944618
944618
944618
ENDCHAR
STARTCHAR uniF60D
ENCODING 62989
SWIDTH 1200 0
DWIDTH 29 0
BBX 21 24 7 -7
BITMAP
821158
821158
821158
821158
821158
821158
821158
821158
821158
821158
821158
821158
821158
821158
821158
821158
821158
821158
821158
821158
821158
821158
821158
821158
ENDCHAR
STARTCHAR uniF60E
ENCODING 62990
SWIDTH 800 0
DWIDTH 19 0
BBX 11 24 1 -7
BITMAP
FFE0
E460
E460
9BA0
95A0
EA60
95A0
9BA0
9BA0
95A0
EA60
95A0
9BA0
95A0
95A0
EA60
95A0
9BA0
95A0
EA60
EA60
95A0
9BA0
E460
ENDCHAR
STARTCHAR uniF60F
ENCODING 62991
SWIDTH 800 0
DWIDTH 19 0
BBX 11 24 7 -7
BITMAP
FFE0
E460
E460
9BA0
95A0
EA60
95A0
9BA0
9BA0
95A0
EA60
95A0
9BA0
95A0
95A0
EA60
95A0
9BA0
95A0
EA60
EA60
95A0
9BA0
E460
ENDCHAR
STARTCHAR uniF610
ENCODING 62992
SWIDTH 800 0
DWIDTH 19 0
BBX 18 13 0 0
BITMAP
FF3FC0
892440
080400
080400
080400
080400
080400
080400
080400
080400
080400
080400
3C0F00
ENDCHAR
STARTCHAR uniF611
ENCODING 62993
SWIDTH 400 0
DWIDTH 10 0
BBX 10 14 0 0
BITMAP
4200
4200
4200
4200
FF00
FF00
4200
4200
4200
4200
4200
4200
4200
39C0
ENDCHAR
STARTCHAR uniF700
ENCODING 63232
SWIDTH 450 0
DWIDTH 11 0
BBX 10 17 0 0
BITMAP
3900
4600
4600
0000
F3C0
4100
4200
4400
4400
4800
7400
4200
4200
4100
4100
4100
F3C0
ENDCHAR
STARTCHAR uniF701
ENCODING 63233
SWIDTH 450 0
DWIDTH 11 0
BBX 10 17 0 0
BITMAP
3900
4600
4600
0000
C000
4000
4000
4700
4700
4200
4400
4800
7400
4200
4200
4100
F3C0
ENDCHAR
STARTCHAR uniF702
ENCODING 63234
SWIDTH 750 0
DWIDTH 18 0
BBX 17 13 0 0
BITMAP
F1E000
40C000
40C000
40C000
40C000
40C000
40C000
40C000
40C000
40C000
40C000
40C080
FFFF80
ENDCHAR
STARTCHAR uniF703
ENCODING 63235
SWIDTH 350 0
DWIDTH 8 0
BBX 7 14 0 0
BITMAP
CC
44
44
44
44
44
44
44
44
44
44
44
44
FE
ENDCHAR
STARTCHAR uniF704
ENCODING 63236
SWIDTH 600 0
DWIDTH 14 0
BBX 13 17 0 0
BITMAP
0E20
33C0
33C0
0000
C018
7030
48D0
4510
4510
4210
4210
4010
4010
4010
4010
4010
F038
ENDCHAR
STARTCHAR uniF705
ENCODING 63237
SWIDTH 700 0
DWIDTH 17 0
BBX 16 13 0 0
BITMAP
0E10
31E0
0000
CC30
CC30
72C8
4104
4104
4104
4104
4104
4104
F3CF
ENDCHAR
STARTCHAR uniF706
ENCODING 63238
SWIDTH 900 0
DWIDTH 22 0
BBX 20 13 0 0
BITMAP
0EF870
71D020
40D020
801020
801020
801020
801FE0
801020
801020
40D020
40D020
71D020
0E3870
ENDCHAR
STARTCHAR uniF707
ENCODING 63239
SWIDTH 800 0
DWIDTH 19 0
BBX 18 14 0 0
BITMAP
00E000
002000
002000
002000
3D2C00
3D2C00
433300
812080
802080
802080
812080
812080
422080
3CF3C0
ENDCHAR
STARTCHAR uniF708
ENCODING 63240
SWIDTH 850 0
DWIDTH 20 0
BBX 19 13 0 0
BITMAP
3DF0E0
432040
812040
802040
802040
402040
3C3FC0
022040
012040
812040
812040
C22040
BCF0E0
ENDCHAR
STARTCHAR uniF709
ENCODING 63241
SWIDTH 750 0
DWIDTH 18 0
BBX 17 14 0 0
BITMAP
01C000
00C000
00C000
00C000
7AD800
7AD800
86E400
82C300
70C300
0CC300
82C300
82C300
C2C300
BDE780
ENDCHAR
STARTCHAR uniF70A
ENCODING 63242
SWIDTH 850 0
DWIDTH 20 0
BBX 19 13 0 0
BITMAP
FFF0E0
892040
082040
082040
082040
082040
083FC0
082040
082040
082040
082040
082040
3CF0E0
ENDCHAR
STARTCHAR uniF70B
ENCODING 63243
SWIDTH 650 0
DWIDTH 16 0
BBX 14 14 0 0
BITMAP
4600
4200
4200
4200
F2E0
F2E0
4310
4208
4208
4208
4208
4208
4208
3F1C
ENDCHAR
STARTCHAR uniF70C
ENCODING 63244
SWIDTH 500 0
DWIDTH 12 0
BBX 11 13 0 0
BITMAP
F1C0
40C0
40C0
40C0
40C0
40C0
40C0
40C0
40C0
40C0
40C0
40C0
FFE0
ENDCHAR
STARTCHAR uniF70D
ENCODING 63245
SWIDTH 850 0
DWIDTH 20 0
BBX 19 13 0 0
BITMAP
0EF000
71D000
40D000
801700
801700
801880
801040
801040
801040
40D040
40D040
71D040
0E38E0
ENDCHAR
STARTCHAR uniF70E
ENCODING 63246
SWIDTH 800 0
DWIDTH 19 0
BBX 18 13 0 0
BITMAP
3DE000
432000
812000
802C00
802C00
403300
3C2080
022080
012080
812080
812080
C22080
BCF3C0
ENDCHAR
STARTCHAR uniF70F
ENCODING 63247
SWIDTH 800 0
DWIDTH 19 0
BBX 18 13 0 0
BITMAP
FFE000
892000
082000
082C00
082C00
083300
082080
082080
082080
082080
082080
082080
3CF3C0
ENDCHAR
STARTCHAR uniF710
ENCODING 63248
SWIDTH 1000 0
DWIDTH 24 0
BBX 23 13 0 0
BITMAP
30C01E
30C020
310040
322720
322720
442890
78D090
44D30C
82CC0C
82000C
82000C
810010
80E3E0
ENDCHAR
STARTCHAR uniF711
ENCODING 63249
SWIDTH 500 0
DWIDTH 12 0
BBX 11 13 0 0
BITMAP
8800
B000
C000
B000
B000
8800
0000
0220
02C0
0300
0300
02C0
0220
ENDCHAR
STARTCHAR uniF712
ENCODING 63250
SWIDTH 750 0
DWIDTH 18 0
BBX 17 13 0 0
BITMAP
880000
B00000
C00000
B3E000
B3E000
8A0000
03C000
020780
03E800
000700
000700
000080
000F00
ENDCHAR
STARTCHAR uniF713
ENCODING 63251
SWIDTH 500 0
DWIDTH 12 0
BBX 11 13 0 0
BITMAP
8800
B000
C000
B000
B000
8800
0000
01E0
0200
01C0
01C0
0020
03C0
ENDCHAR
STARTCHAR uniF714
ENCODING 63252
SWIDTH 550 0
DWIDTH 13 0
BBX 12 13 0 0
BITMAP
7800
8000
B800
89C0
89C0
7A00
0200
02F0
0C20
0020
0020
0020
00F0
ENDCHAR
STARTCHAR uniF715
ENCODING 63253
SWIDTH 600 0
DWIDTH 14 0
BBX 9 9 2 2
BITMAP
D480
2B00
2B00
D480
2B00
D480
2B00
D480
D480
ENDCHAR
STARTCHAR uniF71C
ENCODING 63260
SWIDTH 450 0
DWIDTH 11 0
BBX 17 16 -7 -6
BITMAP
007B80
007B80
008600
010200
010200
010200
010200
010200
008600
007A00
000200
000400
001800
001800
7FE000
800000
ENDCHAR
STARTCHAR uniF71D
ENCODING 63261
SWIDTH 150 0
DWIDTH 4 0
BBX 14 20 -12 -6
BITMAP
0004
0004
0000
0000
000C
000C
0004
0004
0004
0004
0004
0004
0004
0004
0004
0008
0030
0030
7FC0
8000
ENDCHAR
STARTCHAR uniF71E
ENCODING 63262
SWIDTH 350 0
DWIDTH 8 0
BBX 17 14 -10 -4
BITMAP
001E80
001E80
002180
002080
001C00
000300
000080
000080
000080
000100
000E00
3FF000
C00000
C00000
ENDCHAR
STARTCHAR uniF71F
ENCODING 63263
SWIDTH 400 0
DWIDTH 10 0
BBX 19 16 -11 -6
BITMAP
001EE0
001EE0
000840
000840
000680
000680
000680
000680
000100
000100
000600
000800
003000
003000
7FC000
800000
ENDCHAR
STARTCHAR uniFB00
ENCODING 64256
SWIDTH 400 0
DWIDTH 10 0
BBX 11 14 0 0
BITMAP
0CE0
3100
4200
4200
FF00
FF00
4200
4200
4200
4200
4200
4200
4200
F700
ENDCHAR
STARTCHAR fi
ENCODING 64257
SWIDTH 400 0
DWIDTH 10 0
BBX 8 14 0 0
BITMAP
0C
30
40
40
FE
FE
42
42
42
42
42
42
42
F7
ENDCHAR
STARTCHAR fl
ENCODING 64258
SWIDTH 400 0
DWIDTH 10 0
BBX 8 14 0 0
BITMAP
0E
32
42
42
F2
F2
42
42
42
42
42
42
42
F7
ENDCHAR
STARTCHAR uniFB03
ENCODING 64259
SWIDTH 600 0
DWIDTH 14 0
BBX 13 14 0 0
BITMAP
0CE0
3100
4200
4200
FFF0
FFF0
4210
4210
4210
4210
4210
4210
4210
F738
ENDCHAR
STARTCHAR uniFB04
ENCODING 64260
SWIDTH 600 0
DWIDTH 14 0
BBX 13 14 0 0
BITMAP
0CF0
3110
4210
4210
FF10
FF10
4210
4210
4210
4210
4210
4210
4210
F738
ENDCHAR
STARTCHAR uniFB05
ENCODING 64261
SWIDTH 400 0
DWIDTH 10 0
BBX 10 14 0 0
BITMAP
0E00
3200
4200
4200
C700
C700
4200
4200
4200
4200
4200
4200
4200
F1C0
ENDCHAR
STARTCHAR uniFB06
ENCODING 64262
SWIDTH 550 0
DWIDTH 13 0
BBX 13 14 0 0
BITMAP
0020
0320
04E0
0420
7AF0
7AF0
8620
8220
7020
0C20
8220
8220
C220
BC18
ENDCHAR
STARTCHAR uniFB07
ENCODING 64263
SWIDTH 600 0
DWIDTH 14 0
BBX 14 14 0 0
BITMAP
0010
01D0
0230
0210
3D38
3D38
4310
8110
8010
8010
8110
8110
4210
3C0C
ENDCHAR
STARTCHAR .notdef
ENCODING -1
SWIDTH 0 0
DWIDTH 0 0
BBX 1 1 0 0
BITMAP
00
ENDCHAR
STARTCHAR .null
ENCODING -1
SWIDTH 0 0
DWIDTH 0 0
BBX 1 1 0 0
BITMAP
00
ENDCHAR
STARTCHAR nonmarkingreturn
ENCODING -1
SWIDTH 0 0
DWIDTH 0 0
BBX 1 1 0 0
BITMAP
00
ENDCHAR
ENDFONT
